<mxfile host="65bd71144e">
    <diagram id="0pIlJkkbeSmC3oxG9PNB" name="Page-1">
        <mxGraphModel dx="1002" dy="1777" grid="1" gridSize="10" guides="1" tooltips="1" connect="1" arrows="1" fold="1" page="1" pageScale="1" pageWidth="850" pageHeight="1100" math="0" shadow="0">
            <root>
                <mxCell id="0"/>
                <mxCell id="1" parent="0"/>
                <mxCell id="2" value="" style="fillColor=#f5f5f5;strokeColor=#666666;shadow=0;fontSize=14;align=left;spacing=10;9E9E9E;verticalAlign=top;spacingTop=-4;fontStyle=0;spacingLeft=40;html=1;fontFamily=Helvetica;fontColor=#333333;" vertex="1" parent="1">
                    <mxGeometry y="-1100" width="642" height="668" as="geometry"/>
                </mxCell>
                <mxCell id="31" style="edgeStyle=none;html=1;" edge="1" parent="1" source="28" target="29">
                    <mxGeometry relative="1" as="geometry"/>
                </mxCell>
                <mxCell id="28" value="&lt;b&gt;Client Request&lt;/b&gt;" style="rounded=0;whiteSpace=wrap;html=1;fillColor=#dae8fc;strokeColor=#6c8ebf;" vertex="1" parent="1">
                    <mxGeometry x="174" y="-1074" width="120" height="60" as="geometry"/>
                </mxCell>
                <mxCell id="36" style="edgeStyle=none;html=1;endArrow=none;endFill=0;" edge="1" parent="1" source="29">
                    <mxGeometry relative="1" as="geometry">
                        <mxPoint x="234" y="-765" as="targetPoint"/>
                    </mxGeometry>
                </mxCell>
                <mxCell id="29" value="&lt;b&gt;TenantName&lt;br&gt;Middleware&lt;/b&gt;" style="rounded=0;whiteSpace=wrap;html=1;fillColor=#dae8fc;strokeColor=#6c8ebf;" vertex="1" parent="1">
                    <mxGeometry x="174" y="-906.5" width="120" height="60" as="geometry"/>
                </mxCell>
                <mxCell id="30" value="" style="shape=image;verticalLabelPosition=bottom;labelBackgroundColor=default;verticalAlign=top;aspect=fixed;imageAspect=0;image=data:image/png,iVBORw0KGgoAAAANSUhEUgAAAgAAAAIACAYAAAD0eNT6AAAACXBIWXMAAA7SAAAO0gFcPFpKAAAAGXRFWHRTb2Z0d2FyZQB3d3cuaW5rc2NhcGUub3Jnm+48GgAAIABJREFUeJzs3Xd4VMXXwPHvbjab3gMpEEgg9N47KtIFERUpSlPsiO1n772+KHZFURGkWQBFBQso0jtIkd4JJCG9J5v3jw2Rkrp3du/u5nyeZx8w7D0zQnLn7NyZMyCEEEIIIYQQQgghhBBCCCGEEEIIIYQQQgghhBBCCCGEEEIIIYQQQgghhBBCCCGEEEIIIYQQQgghhBBCCCGEEEIIIYQQQgghhBBCCCGEEEIIIYQQQgghhBBCCCGEEEIIIYQQQgghhBBCCCGEEEIIIYQQQgghhBBCCCGEEEIIIYQQQgghhBBCCCGEEEIIIYQQQgghhBBCCCGEEEIIIYQQQgghhBBCCCGEEEIIIYQQQgghhBBCCCGEEEIIIYQQQgghhBBCCCGEEEIIIYQQQgghhBBCCCGEEEIIIYQQQgghhBBCCCGEEEIIIYQQQgghhBBCCCGEEEIIIYQQQgghhBBCCCGEEEIIIYQQQgghhBBCCCGEEEIIIYQQQgghhBBCCCGEEEIIIYQQQgghhBBCCCGEEEIIIYQQQgghhBBCCCGEEEIIIYQQQgghhBBCCCGEEEIIIYQQQgghhBBCCCGEEEIIIYQQQgghhBBCCCGEEEIIIYQQQgghhHABBr07IISwuwCgXskrDAi96GUGPIDAMq7NBXJKfn/2vFdyya+ngGMlvwohXIgkAEK4Bx+gGdASaAE0BepjHfRDHNB+HnC05LUf+AfYBewAEh3QvhCimiQBEML1mIH2QJeSVyegAWDUs1MVSAI2A+uAtSW/JuvaIyGEJABCuAAvoDvQD7gCaFfyNVe2F/gb+K3kJbMEQjiYJABCOKeGwDCsg35vwFff7thVMbAV+BX4GVgJFOnaIyGEEMKBGgD3Yv1kbME6MNbEVxIwExiK9XGHEEII4XZigCeAPeg/8DrjKwX4FOhh61+wEEII4Sy8gBHAD0AB+g+yrvL6F3gWiK3uX7gQQgihp3rAa1hXwOs9mLryqxD4HuuCSCGEEMJpdcD6TFs+7at/7cG6bsKdF0kKIYRwIQZgCLAe/QfJmvA6AzwC+FflH0cIIYSwh77IwK/XKwnrOoHgyv6RhBBCCFUGA1vQfxCUl3WdxeNYSyQLIYQQdtEcWIL+g568Ln0dB27DetiREEIIoUQ08DHWVel6D3Tyqvi1Cdk1IIQQQiMT1pXn6eg/sMmreq8fgLqX/pMKUfPIWQBCVE9H4BOsB/K4DJOHkehavtSL8icy3IewIC/Cgr0JDfQiwM8Tb7MHPt4mADxNRgoKLQAUFlrIyC4gL7+I5LQ8zpa8klJzOXoqk8MnM8nJK9Tzf80WqVjXB3yMteSyEDWSJABCVE0A8CJwN078PDksyItWjUJp3iCElvEhNG8YTFydAKJr+WLysM9pwYkp1mRgz+FU/tmfwq6Dqfyz/yyHTmRQXGyXJlVZA9wO7NC7I0LoQRIAISrXA2shnwZ6d+R8niYjHZqH06VVbbq0rEXX1rWJqxNgvwYN5dwuyhnlUzPyWbfjDOt2JLJuxxnWbD9DSnqe/fpnmzzgaeBNZDZA1DCSAAhRPhPwZMnLKT71N6gbQN8udejbtQ79u9UhyF/DYXkGAxiNYPQo+bXk9wZDyZ8ZwGAsf+C/WHExFFvAUlzy+2KwFIHFAhYLlsJCtuxK5Le1x/lt7UlWbkkgL99pTv1dA4wFDujdESEcRRIAIcrWHJiFzs/6jUYDXVvV5torY7n2yljbP+F7eICHqeTXkpdRp5zGUgRFRWSk5/DT8oN8u/QAP/99lMzsAn3685904B6ssz1CuD1JAIS41E1YF4jpVl++fbNwJlzdiOv6xhFdq5rdMBjA5AmmkgHf5Fn1T/E6yckpYNmKA3z1/U5++OMg+QW6zsZ/CdwJ5OjZCSHszbnvCkI4lhfwFtabv8PVCvHmxsHxTBzWmNaNQ6t+oQHrp3uTJ5jM4GmyWx8dIelsDl8v2sXn87exdVeiXt3YBlwP7NerA0LYmyQAQljVBRYAXR3dcLumYdwxohljh8Tj41XFwdsAeHiC2QyeZuvzeze0aUcC02ZsZO7i3aVbEx0oHbgZ+NbRDQvhCJIACAE9sZ4vH+6oBo1GA8P7xHLfjS3o2S6y6hd6eoLZyzroO/m0vkrHT2XwwVeb+WjWVlLSch3ZdDHwHPB8ye+FcBs15w4iRNlGYH3m65BDY4xGA4N7xvD8XR1o1zSsihd5WD/pe3npt3DPSWRm5fP+zM28/tE6zqY6NBGYD4wHHNqoEPYkCYCoyZ7E+snO7j8HRqOBUQMa8NRt7WgaV8WTaj09wcvH+qu4QEZWPu9+vok3P1nvyBmBv4DhwFlHNSiEPUkCIGoiT2A61k90dndZhyjefLALHZtX4QmDwQheZuvA76bP9VVKTsnhhXdW88HMzY5aI7AX67HPUi9AuDxJAERN44V1OvdqezfUuH4Qr9/fmWGX16/8zQYjeHmDt5f196Ja9h1K4ZFXVvD90r2OaO4U0A/Y6YjGhLAXSQBETeKLdbFff3s24mky8sDYVjx3Z3u8zJU8szcYrc/2vX1q1KI+e1m+5ih3PL6UvQftPkufAgwC1tm7ISHspWavKBI1iT/Wo2D72rORXu0jWfLeAEYPbFjx4TsGA/j4gF9AjVvRb09xMUFMGtUGk8nImk0nKbLYbeG+DzAKWAsctlcjQtiT3HVETRAM/Ir1KF+7CPDzZOqDXblleJPKx3KzF/j4yjN+O9u2+wzj7v+R7bvtWkwoC+vjpD/s2YgQ9iAzAMLd+QJLgG72aqBr69r88sFA+nWtU/Hgb/IE/0Drs375xG93kbX8mDSqDUajgb83HLfX0cRmrFtJVwJH7dKCEHYidyHhzszAYmCAPYJ7mow8d2cHHp7YGg9jBT9KRqP1E7/Zyx7dEFXw59pjjH/gR46cSLdXE6nAFcBWezUghGqSAAh35QF8Ddxgj+B1avsx7/U+9GgbUfEbZbrfaaRl5DHhwSUsXLrPXk0kApcDu+zVgBAqySMA4Y4MWPf532SP4Fd0imLZR4No1qCCgj5GD/APkNX9TsTby8QNVzXFw8PAX+uO2eORgB8wDOtOk1Tl0YVQTO5Mwh1NBe63R+CHxrfm5SkdK17hb/YCXz8Z+J3Y0j8PMWbKYnuVE94FdAfS7BFcCFXkDiXczd3Ae6qDmjyMvPtoN+4Y0az8NxkM1oFfnvW7hP2HUxgy8Rv+tU/NgBVY157k2yO4ECrIIwDhTnoBs1H8fR3g58n3U/sxamDD8t/k4QEBQdaV/sIlhAb7MOaaFqzdctIeiwNjgWisi1CFcEqSAAh3EQf8BgSoDBobHcCKz66iW+va5b/J7GXd3lfRTgDhlHy8TYy+uhn7DqWwc2+S6vDtgQxgjerAQqggCYBwB/5YB/84lUEb1w9i+adX0TAmsOw3GAzg529d5S9jv8symYxcO7AJJ09nsvmf06rD98NaLVAODxJOR25bwtUZgG+xHtOqTKtGoSz7cBCR4T5lv8FotH7q96i5OXR2TgH7D6ey7/BZklNySEnLJSu7gOycQjKy8vH1MeHr40mgvxl/PzMhQd40ig0hPjaEkCBvvbt/ieJieOCF33n7s42qQydinQ04rjqwEFpIAiBc3RPAiyoDdmweztIPBxEaVM5iPg+TdYtfDdrbn5GVz98bjvPXumOs23KSfYdTOH4qw+Z44aE+xNcPoVObKHp1rkvvLjFEhPsp7LHtnnpzJS++u1p12NVYawQUqA4shK0kARCurCvWEqwmVQFbNw5lxadXERJYzuDvaQZ/f2rCj8723YnMWbyL3/4+zJadpykqstvBOgA0bRjGFd3rccOQpvTuHINRxzUVT7zxFy+/p/zR/VTgQdVBhbCV+9/FhLsKALYAFSzNr574mEBWfj60/Gl/s3fJ/n5VLTqfQ8fSmLNoF18v2mWPRXFVVicygJFDmzJmWHM6tIrUpQ9TnvmNd7/YpDJkMXAtsFBlUCFs5ca3MuHmvgDGqwpWp7YfKz8fQlydcjYReHuBj7+q5pzOph0JTJuxka8X7bL7J/3qatcigvtu6ciN17TAw8Nxt6ziYrj9sV+YPmebyrBJQCsgQWVQIWwhCYBwRTcA81QFCw/25q/Ph9AsrpzSvt4+1pX+bqa4GH74bT+vf7SOVRudf31ao7gQ/ndbZ8Zd1xJvL2VPfSpUVFTMDXct5Ltf9qoMuwi4RmVAIWwhCYBwNTHANiBERTB/X09WfHoVHZqHl/0GH19rAuBmNmw7xeSnf2X91lN6d6XaYusGMfXpPgwf0Ngh7WXnFHD5yDls2Kb072oi1lksIXQjCYBwNUuB/ioCGQww//Urub5fOeUDfHzA270++ScmZ/PYa3/y+YIdWCzONdVfXf16xfLOc31p2jDM7m0lJGbR5eqZHD2prGJgGtAaOKoqoBDVVXM3MQtXNBJ4RFWwJ29tx+RRzcv+Qy9v8HGObWmqfDp3G1ff8i1rNp+0x0l4DnfwaCqfzN5Kbn4RvbvE4GHHXQP+fmb69oxl9sJd5OUXqQjpDTQHZqkIJoQtZAZAuIogYDcQpSLY0MvqsfCtfmVvNfPyAl/3WfCXlpHHbY/+wvwf9+jdFbvp0i6aue9dTWzdILu2s2jZPobf9p3KBOoGYIGyaEJUg8wACFfxJnClikBNYoP46f2B+JS1kMxsBt8At0mNN25PYMDY+axc7/yL/LQ4kZDB5/N3EFs3kFZNa9mtnaYNw8jKLmT1phOqQvYEpgN5qgIKUVWSAAhX0BH4GNBcei/Az5Pln15FndplTO97elrL+7rJ4P/RrC1cf8dCks7m6N0Vh8jLL+Lbn/eSmp5H/95xGAz2+Ye8ols9Vqw9ylE1JwgGAGZgmYpgQlRHzallKlyVB/AhipLVaQ93o3H9MqaJPUzWg33cxDNT/+bOJ5ZRUGjRuysON23GRkZNXqzqWf0lTCYjc98bprJ08RSgpapgQlSVJADC2U3AOgOg2XV945g4rIytYwYD+AWAwfV/HIqKirnj8aU8P22V3l3R1YIlexg0bj7pmfaZWY+O8OezNwapCucJvKUqmBBVJY8AhDPzxnrSn+aVXVHhvix5bwC+3mU89/cPAJNjCsvYU35BESPvWsSs73fq3RWncPh4Gr+sOMi1g5rg5+upPH7juFBOJCg7QrgB1gODDqoIJkRVuP5HHuHO7sZa+EcTgwE+fbYX4cFlHEHr62s94MfFFRfDrY/8wvdLlVasc3lbd52h341zSUnLtUv8t5+5kvhYJTWpAN5A7snCgdxkuZNwQ4HAAaCcEn1VN3lUc959tPulf2A2W6f+3cB9z/3OtBnKz7GvlMFgIDo6mobx8cTE1CM4JAQfb298ff3IzcslNzeH1NRUTh4/wYGDBzh29CiFhYUO72fvLjH8MvMGfMqaAdLor3XHuGLUHFWFlcYAc1QEEqIykgAIZ/Uc8LTWIFHhvuxZNIJAv4umgD1MEBDkFj8Br36wlsde+9MhbZlMJrp07UqPHj3p1r0HHTp2xNe36tUSCwoK2LF9O2vXrGbVqlWs/OtPsrOz7djj/wzr34jvPh5ul2OGb39sKZ98vVVFqINAMyBfRTAhKuIGtz/hhmoD+7FukdJk9itXMGZQGScGBwaDh+svgfl60S5uuvcHu1f269SpM9eNGME11wwnvJa6ffbZ2dn8/NMSvv3mG37/7VeKiuyzcv+cZ+7rwbP391Qe92xqLk37TCcxWUkyMwn4TEUgISoiCYBwRq8DD2kNcnnHKP6YfhWXbAf39QUv1z/gZ9+hFDpc9QUZWfb5sGg0GrlqyBCm3Hs/7dq3t0sb5zty+DDvv/cuX8+eTW6ufWoXGI0Gvv/kWq7uF6889hcLdjDxfz+pCLUXa5lg+2ZDosaTBEA4mwDgGBpX/nuajGyZN5wWDS9aoGUqmfp3cXn5RXQf/pWqFeiX6Nd/AC+8+BLxjRrZJX5FkhITeeWVl/jqyy+xWNTXMQgK8GLb0pupXydQadziYug9YjZ/b1BSdXEkMF9FICHKIytOhbO5BQXb/u4Z3eLSwf/cfn838PDLy+0y+MfGxfH13HnMmTdfl8EfILxWLf5v6tv89scKOnXqrDx+WkYeEx9covw0RIMBpj7V59IZJ9s8inxAE3bm+g9BhTsxAbOBYC1BQgK9+G5qX7y9Lvr29vMHk/r94I627K9DTHnmN+VxR44azddz59GsWTknJDpYRGQko8fciNFoZO2aNRQrXOhw+HgaYSE+dGkXrSwmQJ3IAHbtS2bn3iStoaKAtVjXwghhFzIDIJzJtUCs1iAPjmtFcMBFe/s9PcHspTW07vILirjnmd+ULvrz9fXlg48+5v0PP8LPz7mOQPbw8ODhRx7l+0WLiYxUchBkqcde+5Mjaur5X+Clh3rjaVJya71XRRAhyiMJgHAmD2gNUCvEmymjW1z0VYPbHO/71qcb2HvwrLJ4YWFhLFz8IzeMHKUspj1079GTX379jcaNmyiLmZ1TwEMvLVcW75z42BBuG9NWRaj+QBlbWIRQQxIA4Sy6AV20Bnl4QhsCLt7z7+0NRtf/Vj+RkMGL765RFq9u3br8+PMvtO/QQVlMezrXX5XrAhYs2cOfa48pi3fO45O74WXW/ITVCNyuoDtClMn174rCXdysNUBUuC93jWx24ReNRvB2/S1/YJ2yzlS05S8yMorFS36mUaMyDkdyYqGhoXzz/UKlScsDL/yuvI5CdIQ/E0a0UhFqItYzMYRQThIA4Qx8gBFagzw8sfWlh/34+qFqWbaeDh1LY87i3UpiBQUFMf/bb6lXr56SeI7m5+fHnHkLlCUvm/85zU/LDyiJdb6Hbu+CSftagHAU/GwIURZJAIQzGI7GrX8Bfp7cfM1Fz4c9Pd3ioB+AqdPXU1iofU+8p6cns76eQ/PmF6+TcC1hYWHM//Y7wsLClMR7SeGjlXMa1g9m5JCmKkJNUBFEiItJAiCcwXitASZc3fjSev8+Va9R78ySzuYwY/4OJbEef+JJunXvoSSW3mJiYnj/o48xKljfsWbzCVasPaqgVxd68DYl6xUuB9TuVxQCSQCE/uoCV2oJYDDA3SMv2rtu9rIe+OMG3vtyE9k5BZrj9LnySu6+Z4qCHjmPvn37cc8UNbvlPvxqi5I452vXIoJu7etoDWMEnHubhnBJkgAIvd2ExoJUA7rXpUnseU8QDICPeyz8s1iKlXz6DwgI4N33P1DyadnZPPLoY0qqFi5cuo8zag7zucBd49qpCDNaRRAhzud+dwPhajQvcLpk37/ZC4zuUeTy7w3HOXZSe7Gahx99jIiISAU9cj5mLy/eeHMqBo2LPfMLivjyGzWPWs434qqm1ArT/DiqI+BaWzaE05MEQOipDqDp41FMpB8Dute98Itusu0PYO4P2lf+N23ajEm33qagN86rV+/eDL36as1x5v2wR0FvLuRl9mCimi2B16sIIsQ5kgAIPQ1F44EnYwbFYzSeF8LL220+/RcUWliwRPuA9Ojjj+Pp6fpnIFTm4Ucf0/yIY9OOBA4dS1PUo/+Mv76lijBDVAQR4hxJAISertIaYNTABhd+wdt9aqb8ufYoSWdzNMVo0LAhg6+qGeNG06bNlMwC/Pi7+vN3mjcKp1XTWlrDdAY0BxHiHEkAhF580bj6v3mDYNo2OW8fuKfZbT79A0pK1E6ePMUtF/6V59bb79Ac46flBxX05FI3XqP5lEUPYJCCrggBSAIg9NMXawVAm40edNE5KV6uf9rf+f5ary0B8PX15boRNauIXNeu3TQfGLR64wmKihTXBgZGD2uuoiil5lkzIc6RBEDoZbDWAKMHnpcAeHi4TdU/gNy8QtZvPaUpxsBBg53ueF9HGHPjjZquT8/MY9vuM4p685960YF0aKV5J0Z/NG6bFeIcSQCEXnprubh5g2AaxgT+9wUv93n2D7B+6yly8wo1xbju+pq5aHzQYO0fkldtPK6gJ5ca2jdea4hgQMmWAiEkARB6CAM0FUm/YOufwWDd++9GtH4CNZvN9L7scjWdqYbCwkIOHjjAxo0b2LlzJwUF2isYVlfD+HgaNGxY+RsrsGNPoqLeXEhBAgAak2chzpEEQOihBxq3/12QAHia3eLEv/PtO5Si6fq2bdvh48BqiEePHuX++6bQuGEcnTu2Z2C/vlzWszsN6scwcfxYNm/a5LC+APTpo2l9Kbv2JSvqyYXaNo+gblSA1jC9VPRFCEkAhB40nUbj42Wid4fznqW62eI/gP2HtSUAXbt3U9STys36aiY9unbmqy+/JD39wqqFOTk5/LB4MQP79+WF557FYtF+omFVtG2nrfzu7v1JinpyIYMBBvSO0xqmFxoTaCFAEgChj55aLu7VPgIfr5KDfoxG8HC/Ijf7NCYArVq1UdSTin06/RPuv3cKOTkV1yuwWCxMe/stHnnofw7pV5u2bTVdfzY1l7SMPEW9udBlXetpDREBaD/8QNR4kgAIR/MGOmgJ0L/bxdP/GnvkZCyWYg4f11aNrqHGZ+BVsWP7dp5+8gmKi6u+Ze7zGZ8x/ZOP7dgrq0aNGuPhoW2xfEJilqLeXOiyrjEqwmj6GRICJAEQjtca0DRn361N7f/+w80W/wFkZudTWKhtqjyuQYPK36TRKy+/RH5+frWve+apJ9m4cYMdevQfk8lERESEphin7ZQA1IsOJLZuUOVvrJi2KQ4hkARAOF6Lyt9SPpOHkXZNS6r/GY1gMqnok1PJzNK2ct7f35+AAM0LzSqUeOYMvy5batO1+fn53DJhPMnJ9llod050dB1N1yeeVX808Dm9u2ieBVByxrCo2SQBEI6mqR5qy/iQ/57/u1Hhn/NlZlX/U/X5/Pz8FfWkfBs3bqjW1P/FTpw4wZ2332rXRYHBISGars/NK1LUk0spKAgkMwBCM0kAhKNpSgA6tTjvLBQ3PeEuM1vbDICvn+az5yuVeEb7Pvk/fv+dN994XUFvymY2a0sQtT6GqUj7ltoeT2A9FEjbFIeo8SQBEI6m6RFAp5bhJb8zgMk9E4CCAm2fPD0d8PfiYVJTjfbN119j+R9/KIl1MU9PbY+HCgrtNwPQpnntC4+xtk0zFX0RNZckAMKR/AFNe6A6Ni+ZAfA0uV3xn3P8/bR9cs3Ots/itfM1atxYSRyLxcIdt9/KyZMnlcQ7X16etkcpJg/73R4D/Mw0itX2iAKw/0pP4dYkARCO1BwNm/YMBmhUr6T+v5tO/4P2BCAry/4JQPv2HahVu3blb6yC5KQkbpkwXnnZ4LQ0bVspA/ztu8akZZNalb+pYvbf6yncmiQAwpHqa7k4IswHf9+Sgd/kngsAgf/+H22UkZFBUZH9pq/Bus3u5lsmKYu3YcN6nn36KWXxANJSUzVd7+9r3++xeJkBEDqTBEA4UrSWi+NjSvZOGwzW43/dlNYZgMLCQo4dPaqoN+WbMuVe4hupK0j38UcfsmjhQiWxiouLOXr0iKYYwYH2rTERHxusNYTMAAhNJAEQjqQpAWhYt2Rvu5su/jvHy+xBeKi2g3wOHDygqDfl8/L25tMZX+Dtre7QoXvvuZv9+/ZpjpOQcIrMzExNMerVCaz8TRo0rK95BiBWQTdEDSYJgHAkbTMA557/K1qB7swaxYZqun7f3r2KelKxli1b8vqbbyqLl5mZyc0Txld6tkBl9u3VlkR4e5mICPfTFKMyDetrngEIBtz3WZiwO0kAhCNp2rccV6dkBsDD/ar/XaxRnLZPh+vXrVXUk8qNufEmbho7Tlm8Xbt28r8H7tcUY/36dZqur1cnUMU2vQpF1fbXupHFgLUegBA2kQRAOJKmBKD2uWnxGpAAaF0gtnr1ak2V+qrrtdffoHUbdScQzps7h5lffGHz9WtWr9LUfotG4ZW/SSNPk5HQYM2PT9RsxRA1kiQAwpE01T8NDfQCo4f1DAA317ShtkcASYmJ/PvvHkW9qZyXtzczPv+SoCDNh9yUeuzRR9i+bVu1r8vNzWHD+vWa2m7bwjHjqoLHDDIDIGzm/ndS4Uw0FakPDfKqEc//Abp30F7ldbGiFfVVFRsXx7vvf4BBUYGmvLxcJk4YR2o1t/P9uuxXsrO1HeTTroXmUr1VEllLcwIgMwDCZpIACEfxRuP3W2hQyQxADVAnMkDzIrFvv/1GUW+qbvBVQ7hr8j3K4h05fJjJd91ZrccZ33+n7f/bYIBObaI0xaiq0GBvrSHsf/KTcFuSAAhH0fSw09NkJNDP7Nb7/y+m9cjYA/v3s2njRkW9qbqnnn6Grt26K4v3y88/8e60aVV6b3JyMsuWLtPUXqumtVR8Mq8SP41Fn9D4cyVqNkkAhKNoOqIuyN9sXTFdA57/n9O7s+Yz4/nwg/cU9KR6TCYTn86YoaxUMMDLL73A6lV/V/q+Lz6fQW6uti2E/XrGabq+Onx9JAEQ+qk5d1OhN00JgMlU8ly5hjwCAOjfO07zVrQfFi/m8KFDinpUdZGRUUz/dAYeimZsCgsLmXTzzZw5c7rc9+Tn5THj0081t9W/d6zmGFXl6y0JgNCPJADCUTTdqIwGAxiMNWoGIDrCn8u7ajo8kaKiIqa9/ZaiHlVPz169eOyJJ5XFO3PmNJNuvpnCwsIy//yzzz7l9OkETW2EhfhwRXdNR1ZUi6+P5i2tkgAIm9Wcu6nQm6bC6gaDoUYN/ueMHqb9yPevZ8+yaTudCvfedz/9BwxUFm/1qr95+aUXLvl6SkoK//fG65rjXz+4CZ4mx32fKdgx4f5FMYTd1Lw7qtCLprNejUbAjuezO6vrBjXB7KltGr2oqIhHH37IoYWBzjEYDHzw0cfUq6dtJuN8706bxi8//3TB1159+aVqbxcsy6irtSdc1WGxaP43KXs6RIgqkOxROEq+losNGNBaN9UVhQR5M7hPAxYu1Vbbfv36dXzx+Qwm3nyLop5VXXBwMDO+mMngQQPIz8vq1aEZAAAgAElEQVTTHK+4uJjJd93J78v/pH5sLH+vXMnnMz5T0FO4ZtJ31A73JSzYh/BQH8JCfAgP8SU81IdaYb6Eh1z49bAQH03flhbtSZl9z30Wbk0SAOEo2u/8hpo3AwDwwKTOmhMAgKeeeIIuXbvSvHkLBb2qnrbt2vHyK69qrvF/TmpqKhMnjGPu/AXcc/edWCwWJXHTMvJIy8hjHylVer/RaChJBkqSglAfwoJ9iKjld1ES4UN4qC+1wnwI9P/vaZjMAAg91byPVEIvMYDNh9SHBnmRvP52UHj0rCvpPnwWazaf0BynSZOm/PrHcnx9NW3KsNmdt9/GgvnzlMUzmUzlLgp0VmZPj9JkISUtl+OnMrSEex54RlHXRA0jCYBwlAjA5iXaJg8j+bunYPDStJbQZS1cuo/ht32nJFb/AQOZOWs2JpPjJwCzs7Ppf2Uf9uzZ7fC23dSvwEIgCTgDJJf8PhmNj92E+5MEQDhKCHBWS4CM7ZPxD3JMhTZnY7EU06LvZ+w5kKwk3o03jeXtd95VVre/Ovbt20u/PleQmZnp8LZrmHQgEWtCcO6VDBwHDgO7AcedGCWcTs2pqiL0VgQ8iYak8+6b2hEYqLl2uksyGAzUjQxg3g9qPjnv2L6drMxMLr+ij8OTgLCwMOrHxvHD4kUObbcG8gJCgbpAY6At0A0YAIwEJgN3A+2w7tI5hCwqrFEkARCOYgGmoKFwyS0jW1ErvOaefdI0Poy1W05y4Ij27W4AGzas5+SJE/QfMACjg2ssNGvWjJSUFDZv2uTQdsUl/IBWwGjgZqAY2IYsLqwRauayaqGXM1ouTknLVdUPlzXt2b6a6wKcb/asr7hx1Egle+ir67kXXqRjx04Ob1eUqw4wFdgJDNa5L8IBJAEQjqQpATimbbW0W2jSIJT7bumoNOZvv/1K3z6Xs2P7dqVxK2M2m/nsiy8JCwtzaLuiUnHAEuBtQPNhBcJ5SQIgHElTAnDoeJqqfri0p+/tQdOGagfNw4cO0b9vH95843WHbqurU6cOH3483eGPIESV3Av8AtTc525uTtYACEe6DOhs68UN6wcztG8jhd1xTWZPD3p3juGLBTsoLFJTAAfAYrHw98qV/LRkCQ3j46kfG6ssdkXiGjSguLiYVVU47lc4XBxwOTAf2VbodiQBEI7UEbjC1ovDQnwYe21Lhd1xXRG1/AgN8uGn5QeUx05MTGTe3Dls2bKF+rH1qVOnjvI2Ltatew/WrVvLkSNH7N6WqLYYoDXWJMDxB0oIu5F5N+FImg6mP3RMHgGc765x7bh2YGO7xf912VIG9e/H0KsG8+03C8jLtc8izHMzD8ePH7dLfKHEEOBVvTsh1JJCQMKRugBrbb3Yy+xB5u4HMDnwuFZnl56Zx+U3zGHLztN2bys4OJgBAwcxaPBgLrv8CgICAmyOlZ+Xx5o1a/jt12UsXrSQEye0lzkWdlcMXAd8r3dHhBqSAAhHCoYqnrJSjh3LbqZlk1qKuuMeEhKz6HHtLA4eddxWPg8PD5o2a0bHTp1o1Kgx8Y0aERUVTVhYKN7nndeQl5dLeno6J46f4PDhQ+zbu5ctmzezfft2cnNzHNZfoUwa1kd5+/XuiNBOEgDhaAlYzwWwycy3hjD2WsefZufs9h9Ooce1sziTnK13V5ySwWgkJCoWk6cXZm/rQUj5udnkZWeQl5VObla6zj10KduwVhSUDM7FyXHAwtH+RUMCsPmfBEkAyhAfG8KSL0Zw5ei5pGdqP3nZ3RRbLAy68yXa9BtZ5p8XFRaQlZpEdloyWWlJZKcmkZmSeN7XkslKTSIrJZGstCSyUpMoyK2xyVYb4H2slQOFC5MZAOFo04FJtl58WdcYVswbo7A77mXTjgQGjptP0ln5cHYxs48/93y+loi45kriFebnkp1+lpz0FHIyUshOTyEj+RTpiSfJyUglu+TrORkppCedIj3xBIX5bpWc3QLM0LsTwnaSAAhHewD4P1svDgrwImXHfehwiJ3L2Lk3iQFj53MiQSonXiyiQQvumbEWs48+p0rmZWeQlZJIZmqidWbh3AxDajJZqdYZh/++lkRWWhLFFnW1HhTLwfooYJveHRG2kduocLTewJ9aAuxZfitNGoQq6o57OpGQwbBJ37FpR4LeXXE67QbeyOjnvtK7G1V2fkKQnZ5cmiRkpVgThPMTicyURHIyNK2zra79WBcFyh5dFyQJgHA0X6w3C5vXn3z4Un/uuKmduh65qeycAm55+GfmLlZzhLA7ufaRD+h67R16d8MuLEWFFyYNaclkppwhKzWJU/t3sGvlDxTmK63p8D3W7YFSJMjFSAIg9LAZ6xnkNrluUBO++egahd1xbx/N2sL9z/9Bbp6c8HqOyezFXZ+spG4ztQcruYKkE4eYfv/VpBzZqTLs/9DwaE/oQyqqCD3YXAwIYPmaI1gs8mGjqu64qR3rF4+jfUubN1+4ncL8PL567Aay08/q3RWHC68Tx6RpP+MdpLSexqtAT5UBhf3JWQBCD+GAzR/hc3ILubpfPNERckhZVUWE+3HLyNZ4mU2s3nRC6SFCrio3M5XTB3fStt8oDDVsValfQCAhDdryz7KvUTRzbwQGArOBLBUBhf1JAiD0kAtM1hKgYf0QenSsq6g7NYPRaKB3lxgmXN+KpLPZ7NiTqHeXdJd0bB8ms5m4tr307orDRdZrSGaBgeNbV6gKGYB1QeAsZD2AS5AEQOihM3CjlgAmk5GbhktBIFsEBngxfGBj+nSP5dCxNA4fd70F3N5+gRQWqNlTf3Dzn8S27UlodJySeK6kSYde7N2+nrSTyir7xmJd4PuHqoDCfmQNgHC0gcB3WoPI9jbtenWuy/J5o1k+bzSDLm/gMrUVQiLrM+HNRRg91BQytViK+PqpG0lPOqkknisxGo2MfeEr/GvXUxn2UeAqlQGFfUgCIBxpINYtQ95aA6Wk2edo2pro8q71+OnLEez+41amTOxAeKhP5RfpqMVlw2jQ/jIG3vmispiZZ08z+4nRWIpq3k6JoJAwRr04D6PJrCqkEZiJdTZAODEXyfmFG1A2+APUiQzg+Lq7VIQSF8kvKOLn5QeZ/+Mefl5x0OmSrdve/434jn0oLi7my4eGs2vlYmWxvf0CKcjPxVJUiG9gKEG16xIV35r4jlfQrOcQfIPClLXlbJZ+/T6/T7tHZciNWHcGuFX9Y3ciCYBwBKWDP8iZAI5SWGjh743HWb76KCvWHmXDtlPk5Or3KdnD5MkLy9Mwma3fSjkZqUwb35GzJw7avW2T2YtWfa7nyomPUzu2md3bc7himP7YGPYtn6sy6oeAZOpOShIAYW/KB3+Aj18ZwG1j2qoMKarAYinm8PE0du9PZvf+ZPbsT2bPgbMkns0mOSWH5JRLDyEKDvQiONCbyFp+HD6eRkKi7bvE6jbtwJQvN1zwtRP/bub9ST1VV7crl9HoQe8bH2TAHS/gYfJ0SJuOkpOdyVvju5B6VGn1yJuwbg8UTkYSAGFPdhn8a4X6cODvOwjwU/bMUihWUGjBw2jAaLzwFtPj2lms3nTC5rjdrruT4Q+/f8nX1y2czrev3G5zXFvEtOjMmOdnE1a3oUPbtbcj+3by8aSuFOYq286fBXQBlJYeFNrJIkBhL3YZ/I1GA7Ne6SODv5PzNBkvGfwtlmK2a6w9ULdZhzK/3uWaW+lw1XhNsavr2M71vH9rT5KO7XNou/ZWv1ELBv3vI5Uh/YBvAKnc5WQkARD2YJfBH+D1+zrTv0sUSClgl3PgSCqZWfmaYkQ3Lv+xz7UPv09kw1aa4ldX5tnTTL9nAGmJts9qOKNeQ2+k1dV3qgzZFJiuMqDQThIAoZrdBv/X7uvMg+NKbvCF2gYS4Xjbdp/RdL2HyZOIuPKLP3l6+zL21QV4+wVqaqe6Uk4dZubD12KxFDm0XXsb9dBUajXppDQkGiuACrUkARAq9cdOg/9Lkzvy8ITW/32hsObt13Z1W3ed1nR97dhmmMxeFb6nVr3GjHz2S4fX9j+2awOrF1y6NsGVeZq9GP/qArwDw1WGnQr0UBlQ2E4SAKHKQGARdvrk//iki6Z+CwtUNyPsbNsubTMAUY1aV/4moEXvYfQcea+mtmyx9KOnSE865fB27al2dD2GPfk5BoOyocIT+BrrgWBCZ5IACBXsOu1/wSf/c4qKwCIn2rmSbbu1LQCMbtSmyu8dfM9r1GvZVVN71ZWXncH6Re73mLvDZVfR+cbHVIasB3yFjD+6k38AoZXjpv3Pp+4TiXCA5JQcjp1M1xSjogWAF/MweeIbGKqpPVts+OELit0wMR1+93PEdOivMuRA4EmVAUX1yV1UaOHYaf9zDAYICACjfPu6Cq0LAAGi4qv2CAAgNzONfRt+09xmdaWcOsyhbX87vF17MxqN3PT8l/iGRasM+wzQT2VAUT1yBxW20umTvwECAkHRSXDCMbbs1LYAMKh2XfxCalX5/cd2baCoQJ+dIgc3r9ClXXsLCY9g1MvfqD40aC5QX1VAUT2SAAhb6PjJXwZ/V7Rd4/P/6nz6Bzi1b5um9rQ4tf8f3dq2t6Ztu9L71pdVhgzFuijQvWoquwhJAER1OX7BH8jg7+K07gCozvN/gLQz+hXmST19VLe2HWHg+Ptp0HO4ypDdgddVBhRVIwmAqA4Z/EW15RcUsXt/sqYYVd0CeE5OZpqm9rQoyM3WrW1HMBoMjH12BoHR8SrD3gtcrzKgqJwkAKKqZPAXNtm1L5n8Am1V8qqzBRDQ9ZQ+g9FDt7YdxS8giDEvL8DD7KMqpAH4DGisKqConCQAoipk8Bc20zr9b/bxIzymUbWu8a/GgkHV/IJrRo2bBs3a0P++d1WGDMR6aJCvyqCifJIAiMrI4C800VoCOLJhKwzV3PIZVreBpja1qFW/iW5tO9rl191M80E3qwzZCvhQZUBRPkkAREVk8BeaOXoBIEBMiy6a2tQipllH3dp2NAMw6pF3CWtQvUc0lRgH3KoyoCibJACiPDL4CyW0FgGKruYCQLAeHBQSFaupXVsYDAYadx3g8Hb15O3jw7hXF2D2C1IZ9h2gvcqA4lKSAIiyyOAvlDh6Mp2zqbmaYkRVcwEgWAfitv1HaWrXFvGdriQwPMrh7eotqn48Qx+bYf0ZVsMbWAAEqwooLiUJgLiYDP5CGa3T/wajsdpFgM7pdt2deHgqq1pXJT1uuMeh7TmTLv2G02HEAypDNgC+xPqkQdiBJADifDL4C6W2akwAwuvGY/bxs+na4IgYLh/7sKb2q6N+6+407zXUYe05o+vufYXIlj1VhrwacNw/Yg0jd1xxjgz+Qjk9FgCe78qJj7Pt13kkHdunKU5lvHwDGPn055W+ryAvhyPbV3Ny71ay0pLxDQqlTuN2NGh/GUY3+BkwmUyMf2Uu74zrQE6Ktt0f53kRWAv8qSqgsHL97zihggz+wi60LgCsbgXAi5nM3ox85gs+mdzPrhX6hj/8XoW1CixFhfw5603+mvMWWSmXnosQEBZJnwmP0e36uzC6eCGhsNrRXP/sbGbdP4Bii7YCUCVMwBysiwITVAQUVvIIQMjgL+wiIyufA0dSNMWwZQHgxeq36sbYV+bbrTpg31ueov2gseX+eU5GCh/deQU/f/B4mYM/QEZyAov+714+u3cQedkZdumnI7Xq2ofuE59XGTIK68mBcsNQSBKAmk0Gf2E323efobhYWwytjwDOadp9MGNemG3zeoKyGAwGhtz7Jv1ve67c9xQVFvD5g8M4vG1VlWLuW/8bXz06gmKLRVU3dTN00iPU73KVypCXYX0cIBSRBKDmksFf2JXWBYB+weEE1aqjqDfQqs/1TPlig5KkIqhWHca99i29x1S86n3lnLc4vO3vasXeu24Za75z/WJ4RqORcc9/iX9ErMqwD2NdGCgUkASgZpLBX9id3gsAy1I7timTP1tD/9uew9u/+oVrTGYveo6cwoPzdtLismsqfG9RQT4rvnrDpn6umPk6lqJCm651JgHBoYx+aT4enl6qQhqAL7BuERQaSQJQ88jgLxxC+wJApeVlS5nMXvS95SkeX3SYax56l7i2vSpdgR/duC1XP/A2Ty45wdUPvI23X2Cl7ezb8DvZabYdg5x6+hjH92yy6Vpn06hVR/pMnqoyZAjWIkHK72E1jdyNaxYZ/IVDFBUVs2NP2QveqsqWEsDV4e0fRPfr76b79XeTl53BqX3bSD5xkKzUJIotRdZHELVjiG7c1qYT/hL2b9fUvyPbV1OvjDMNMlPO8M+K7zm5dxs56WfxC65FdJO2NO81FP+Q2pratJd+I+/k6PbV/Pv7bFUh2wPTgNtVBayJ5I5cc8jgLxxm76Gz5ORqm8K2xyOA8nj5BhDbpiexbdQVscnN0raaP/HohbUL8rIz+PmDJ1j3/ccUFRZc8n6T2Ysu19zGoLteVrrYUQkDjHnyI97ev5WUIztVRb0NWAXMVBWwppFHADWDDP7Cobbu1FYExmT2olb9pop6ow8vX39N1ycfP1D6+5N7t/LWTe1YveC9Mgd/gML8PFbNf5d3JnQmI9n5tsv7+Ppx0ysL8PTR9vdykQ+xHiEsbCAJgPuTwV843Lbd2qb/I+Ka223fvqOERMdquv5c9cJNP83k/Uk9OHviYJWuO3N4N59OGUhhfp6m9u0hpmFTBj88XWVIX+AboPJFGeISrl1ySlRGBn+hi/+bvoH9h20vAtSk2yBaXDZMYY/Uy0pJ5PShXWQkJ2D0MF0y7V6Ql8P6RZ/aHD8/O4O0xJMs/fipau8IyDx7GqPJRMP2l9vcvr3Ua9SSM0nJnN6zXlXIMCAe68JAUQ1yh3ZfMvgL3Wh9BBDd2L4LAG1lKSpk/eLPWPf9J5z4d8sFfxbduC1t+t5Ap6ET8Q+NIDwmXltbliLWLfzE5utXzX+PK8Y9ismsbAueMiP/9yan9mzgzJ51qkKOAO7FujBQVJE8AnBPMvgL3ZxOyiIhMUtTjOhGjlsAWFUpCUd4Z0Jnvnv1zksGf7A+p//5g8d56er6zH5iFCf+3YJvYKgOPbXKTkvm4BbnPD/H5Glm3Cvz8A6s/u6KCrwBdFMZ0N1JAuB+ZPAXutJaAMhgMGg+BEi19KRTfHBrL07u3Vrpe4sK8tn223w+ubsv2elnHdC78iUc+EfX9itSO7oe1zw9E4NB2TDkCcwHaqkK6O4kAXAvMvgL3WktARwcUQ+fgBBFvVFj7jNjSTtzXO9uVFtBXo7eXahQ+14D6TL2SZUh6wKzkbGtSuQvyX3I4C+cgjOWANZi77pl7N/4h97dsImejyCq6po7nqZuh34qQ/YDnlEZ0F1JAuAeZPAXTkPrDIC9SgDbavPPs/Tugs3qtby0kqCzMXoYGffiLPzC66oM+yQwQGVAdyQJgOuTwV84jZzcQvYe0vbcO7qxcyUABzc750K6ykQ0aEF043Z6d6NKgkNrccMLczGqq/1gBGYB9VQFdEeSALg2GfyFU9m5N4nCQm1n2Uc70QxAcXGxU1bVq4p+k57GYDDo3Y0qa9a+O71vf11lyHCsiwLNKoO6E0kAXJcM/sLpbN2lbf+/t18gIdFxinqjncFgwGR2vUPnOg29mdZXjtC7G9U2eOy9NOx9vcqQXYA3VQZ0J5IAuCYZ/IVT0roAMKpRG6f71Kq1oI+jdR42iese/1jvbtjGADc98ylBdRurjHoPMFJlQHchCYDrkcFfOK1tu91rASBAs55D9O5ClXh4mrnmoXe5/vFPMBpdt8q7n38gY15egMnLV2XY6YBrny5lB5IAuJb+2Gnwf2lyRxn8hSbFxbBtl7ZDgJxtASBA12vvcL7jdS8SVKsOd3zwB92vv1vvrigR16QVgx62vQxyGQKAhSW/ihKSALiOgcAi7PTJ//FJ5ey9lsFfVNGhY6mkZ2o7gc6ZFgCeExgeRf/bntO7GxXqfeMD1GnaQe9uKNVzyBhaDr5VZcgmWI8PFiVcd56oZpFpf+H0lq85yvwf99h8vdHDxND7pzrlMcD1W3UjO/0sx3YqO8FOqb1rl7H2+4/JTDlDSFQsfkFhendJMwPQrFs/tq/8meyzp1SFbQ2cBjaqCujKJAFwfjL4C5cwd/Fu/lx3zObra8c1o+fIKQp7pFbT7oMIjozh6I615OdqO+zIHgpyszmyYw1rvnmfk3u3Ed2oNX7Brl0W38NkokHnvmz+6SuK8nNVhe0H/AKcVBXQVckjAOcmg79wGVoXADrj9P/FOg29mUe/38+wB6cR0aCF3t0pU3FxMTv/XMi08Z3Y9us8vbujWVRMA65+4nPrfUkNL2AB4Px1ku1MZgCclwz+wqU8+uoK0jJsXwPQYfBNxLbuobBH9uHhaaZeiy50v/4uGnW+kqLCAk4f3ElxcbHeXbuApbCAnSsWEtOis8ttZbxYnbgmpGTkcvKfVapCBgMtgLmqAroimQFwTrLaX7iU1PQ8jp5M1xTD2Q4Bqoq6zTrh6eWDxVKkd1fKZLEUMfe58eRmafu3cQbX3fsiddv3VRlyCPCYyoCuRhIA5yOr/YXL2brrNFo/AEfFl5OYOqmUhCN8cGtP1i2crndXKpSVksi67120MNB5PIwe3PT8THxCIlWGfR64QmVAVyIJgHORaX/hkrRWAAwMj8I/NEJRb+xv/4bfmTauI8f3bNK7K1Wy/Y9v9e6CEqG1IhnxwhyM6u5VHsAcIFpVQFciCYDzkMFfuCx3rABYnl0rf2DGA0PITkvWuytVdmrfNqdbo2Crlp0uo8ctL6oMGYF1LUCNuwlKAuAcZPAXl7BYijmRkMHWXWdITM7WuzsV2rqzZiQAKQlHmPvMWArztRU8crTC/DzysjP07oYyQ25+iNhuV6sM2Qt4RWVAVyB3fv3J4C8u8PuqI3w0awuLf91PfsF/i8viY0O4skd9+vWKpU/3+oQEOccpdUVFxezal6QphjOWAC7LLx8+6ZIL6oweJrx83acKrsFgYOxzn/P2+E5knDqoKuyDwCqsJYNrBLn760sGf1EqK7uAif/7iQVLyq6mt/9wCvsPp/Dx7K14eBjo2DqKy7vWo0u7KLq0jSY6wt/BPbY6npBBXr62VfCuUAMgO/0s239foHc3bBLduK3TnbKoVUBQCKNfms9nd/RUVSTIAHwBdAT2qwjo7GQE0I8M/qJUemYeg8YtYPWmE1V6f1FRMeu2nGTdlv+KmdWNCqBzmyjatoigacNQmjYMo0nDUMye9i33cfhYmqbrPb19Ca+n9PhXuzj6z1qKCvL17oZNWlw2TO8u2EV8i/b0nTKNpW/eripkENYiQd2BHFVBnZWMAvqQwV+USs/MY+DYBazZXLXBvzzHT2Vw/FQG3/2yt/RrJpORuJggYqICqRPpT92oAKJq+xMd4U9QgBdBAV74+5nx9/XE3898Scz8giIyswpITc8lPTOfzKx8ks7mcOxUOqfOZHEiIYM9B7QthouIbeYSx9emnDqidxds4hsURo8Rk/Xuht30GXErR7atYs+vM1WFbAu8C0xSFdBZyUjgeDL4i1KqBv/yFBZa2HcohX2HUuwSXwUvv0C9u1A1LriK3mA0MuLJT/H2D9K7K3ZjAMY88QFv79/C2UM7VIW9Bet6gM9VBXRGsgvAsWTwF6XOTfvba/B3FQkH/8FSVKh3NyoVpnM5XQ+TJ5fd+D/8gsOr9n5PMyOemE6L3u45/X8+bx9fbnplAZ6+SpPJ9wHnX5yigfPPu7kPGfxFqeo+83dnBbnZ+IfWJqZ5Z727UiG/kFqsmv8uRYUFurRfbLEw7rVv6DPhcWrHNSM7NYmUhLIfS8R3upKbXppH0+6DHNxL/QSGhOEbGc+eFcoWanoCVwIzAdfa91lF7rUs1HnJ4C9KyeB/KU9vX+6ZsYbIhq307kqFvn3lDtYt/MSma4Mj65GRnKBpIeFdn/xFbJuepf+dduY4+9b/SkrCUYotFoIjYojvdCWh0XE2t+Hq5rz+AFu+fVtlyO+A6wHXewZUCUkA7E8Gf1FKBv/y1arXmHu+WI+3E68JyEpN4s2RzclKrV7dg0ad+zHmhdl8cFsvEo/8a3P7Nzw1g45DJth8fU1QUFDAO7ddweldq1WGfRCYqjKgM5A1APYlg78oJYN/xRKP7mXBi5OcumStX3A4E95chNmnajUXDAYDfSY8zi3TfsIvOJzwutrWESSfUFb0xm15enoy7uW5eAfVUhn2VaBnpe9yMZIA2I8M/qKUDP5Vs+OPb/h73jS9u1Gh+q26cff0lUQ2bFnh+0Ii6zNx6o8MvPPF0m2OYRoTgJyMVE3X1xS1oupy7TOzMBiUDXGeWM8LqK0qoDOQRYD2IYO/KCWDf/Uc2PgHjTpdSXBEjN5dKVdAWCRdrrmVyIYtsRQVkZedidHogV9QGPVbdeOKCY9y3aMfEhHX/ILrko/vZ8/qn21ut36rrjTpNlBr90tlpyVzYPMKDm1dyemDOykqKiAgNNItqgZG1mtIVoGBY1tXqAoZCLQHZuMm6wFc/1/Z+cjgL0rJ4G+boNp1uW/mJvxClE7j6u7I9tW8f6vtM8nDH36fbtfdqbkfJ/7dzLJPnmXPqiWXPHIJjoihxw2T6TnqPjxMnprb0pPFYuGDKUM4uuEXlWFfAp5UGVAvkgCoJYO/KCWDvzaNOvdl0rRfMBjd50llUUE+zw+KIiej+oWZDEYjj363n5CoWE19+HveNJa883Cl2xnrNGnHxKk/Ehgepak9vaWdTWLa+I5knjmqKqQFGAr8pCqgXuQRgDoy+ItSMvhrd/bEQaCYhh2u0Lsryhg9PMjPzuTQ1pXVvrZ5z6F0u+4OTe2v/e4jFr45hWKLpdL3ZiQnsPvvH+lw1ThMZi9N7erJ28eXqBbd2PrzVxRbtB1aVcIADALmAdoOwtCZJABqyOAvSsngr86hbX9Tr0VnwnWuwqdSvRad2fHHt2SnVf0MBVB2cdcAACAASURBVC/fACa88T0+gSE2t5t8fD9f/O+aalVdzE5LJiP5tMsfJhQWWZcinxAOrbN9/cVFfIAeWIsEKckq9OA+c2v6kcFflLLz4J8E6FOGTifFFgtznhlLaoKy6VvdmX38Gf/GwiovcvT09mXCmwsJrdNAU7u/f/4yhTYcm7v5p5klszGubcDou2l0+UiVITvh4rUBZAZAGxn8RSk7D/7bgM7AC8BSYDeQBQQDVduU7qIK8nI4smMNHQaPw+jhHrcsv+BwWve9gbPHD1ZYGKhOk/bc8vYSYlpoK5NcVJDPvOcmUFRY/SqExcXFBNWuQ2zrHpr6oDsDNOsxkK1/fE9uevUKOVWgE7APUHYKkSPJIkDbyeAvSjlg8L8SKG/OOBpoAbQEmgOtgKZYzzZ3tBzgQMmrNtBNVeDuIyZzzf/eURXOaRzfs4mtS+dwcu9WstKS8TR7U6dZB1r0GkqjLv2VbMlLOPAPU8eUc0+pgha9hzH+je/L/LPjuzdybOd6Uk4fw+ztS2SDFjRofxm+QWE2t2dPR/bt5ONJXSnMzVIVMhPoAuxSFdBRJAGwjQz+opTOg39FgoF6Ja/6QAzWQTnkopf/ee+/+J6QifWxQxrWZ52pwBkgseR1suTXo1gH/RP8t0c6ANgANLGh72Ua8+LXtO03SlW4GuPApuV8fNeVNl9fq34THpq/+4Kv7V27lB/feYiEA/9c8n6T2ZsOg8cx6O6X8Q0Mtblde1n5w2x+eHGsypC7sc7QZaoMam+SAFSfDP6ilBMP/s6iFbAW8FURzOzjz5Qv1lE7tpmKcDXGsZ3reffmrjZf7+Fp5qW/sjAaPSjMz2PxW/ez9ruPKr0uqFYdbpn2k9Md8lQMzHrpbnYs/lBl2DnAGJUB7U0WAVaPDP6ilAz+VbID0F65pkR+TiZfPXYD+TnKpm9rhODIepquLyrIJzXhKKmnj/HRHZdXafAHSEs8wSeT+zvdIk4DMOqhqdRq3FFl2NHA3SoD2pt7rKhxDBn8RSkZ/KtlG9Z1Ch1UBMtKSSQl4SitrrhWRTi3kZ+TRXb6WTy9vC8pnmT28eOv2VNtWgT4Xwx/vn31DpKO7q12v5JPHKBt/9E2t20PHh4m4jv3Y/PPX1GUn6MqbF9gGdZHYU5PHgFUjQz+opQM/jbxBlZhraWuhKqyuK4s8ehe/p47jZ1/LiI96SQARqMH9Vp1peXlw+kweBx+weEAvD22PSf3btWtr/fP2kJUoza6tV+eTX8uYf4jwygurrw4UhUdwZrsOv3PsMwAVE4Gf1FKBn+bFQK/AeOwFlHRbP+G32nSbSCBtaJVhHMpxcXF/Pbpc3z91BiO7lxHXnbGBX+WevoYe9ctY9X8dzhz5F/8gsNJOrafM4f0W6juGxhGfKc+urVfnujYxqRl53NiR/WrM5YjGOvalzk4+aFBMgNQMRn8RSkZ/JUYCixC0b0nJCqWe2dudMqV5vb07Su3s27h9Gpd42HyrLT+vz0163EVE6f+oFv7FSmyFPHenQM4sfUPlWGfxlq3w2nJIsDyyeAvSsngr8wPwOuqgqWcOsy8Z8dXqba9u1i/+LNqD/6AroM/QG5Wuq7tV8TD6MG4l2bjG6Z0NukZrGsCnJYkAGXTcfAPksHfycjgr9yTwApVwXavWsLyma+qCufUCnKzWfbx03p3wyZevgF6d6FCIeER3PDCXIzq7r8ewGygjqqAqkkCcCmdB39ZluFMZPC3i0KsW6ZOqQq47ONn2L9R6fStU9q9agnpScr+2hyqbjOlW+7sonmHnvS6TWkyWRvrqYGeKoOqIgnAhWTwF6Vk8LerBKxJQNWPpquAxVLE10/dWLoS3l3t3+CaSY7BYKBN3xF6d6NKBo+/nwY9h6sM2QN4TWVAVSQB+I8M/qKUDP4O8SfwhKpgmWdPM/uJ0dU67tbVuGqC07z3MCIatNC7G1ViMBgY++wMAqOVHkF9H3CdyoAqSAJgJYO/KCWDv0O9ASxWFezQ1pX8/P7jqsI5HYPB9W7ZgeFRXPvIB3p3o1r8AoIY8/ICPMxKdqyCddfLDKCRqoAquN53k3oy+ItSMvg7XDEwHlB24PxfX/8f/6wo++Q6VxcaHad3F6olOCKG2z9cTkBYpN5dqbYGzdrQ//53VYYMBL5B0bkYKtT00WcAsBA7DP4vTe7IozeXU/VKBn+nlJVdwJCJ3/D3huP2CL8N65YgGfwvlYt1V8AEFC2W2rP6Z1pePry0Cp67MBhg8y+z9e5GlTRo15tJ7ywlJKq+3l2xWWyzdpw8cYzE/VtUhYwA4oDvVAXUoiaPQAOx0+D/2n2dZfB3MemZeQwcO9+eg7988q/YaazHDA9VEayoIJ/D21fR4apxeJiccgG2TUKiYtn++wKyUpP07kq5DAYDl934P0Y9+yXefoF6d0cTA9C0Sz+2/7WEnJTTqsK2wnpWwGZVAW1VU0chmfYXpWTa32lsBhoASgrGZyQnkJGUQIveV6sI5xQMRiPh9RqxZenXUOycVWbbDxrLsAfedpvEy+TpScNOfdn800yKCvJUhe0P/IR1N4xuauJIJIO/KCWDv9NZBlyNdapUs5N7txASVY/oxu1UhHMKYXUb4hMQxN61y/TuSplO7d/OuoXTyU4/S1h0HD6BIXp3SbOA4FD8opuwe/kCVSFNWB8JzsT6CEwXNW00ksFflJLB3ykVAL9jXRjopSLg3nW/0rznEJdciFaeei27EhXfmoNb/iI/J1Pv7lwiPyeLw9v+ZtWC9zixZzMRDZoTEKokp9NN3YbNSE7L5NTONapChgLNsBYK0kVNGpFk8BelZPB3asnAfmAECg4NshQVsm/973S8ahwms/Iff93Ujm1Gt2vvwC84nJSTh8lOc8Jvt+JiEo/+y/pFn+LlF0D9ll317pEmTTpdwa71K8g8c1RVyKZAFrBaVcDqqCmjkqz2F6WysgsYerOs9ndyu7Aeq6pkxMhJP8vpQ7to028UBoP7HILq4Wmmfqtu9LhhMs16DQEMnDm06//bu+/4qKr0j+OfJCQhDQgWLIAV+ypItVcQ29oRlW7vursWFAXLz7a7uogFQSwUKSoqKkVgQUBaIKBI74aeQHqbycz8/rgE0YVkMnPu3Cnf9+s1L4kz85yTEOY599xznhN2xZB8Pi9r5k8hpUEjmkfwICAhIYGTz72S7Mmf4TY383IJVlGszaYC+isWMpNW+8s+Wu0fUf6L9fNsZiJY7m9rqJ+awTFnnmsiXNhpcOhR1EtMZMXsb3FXljvdnQNau3A6Z1x8A+mND3e6KwFLSUsn88RW/PrDKFMLMeOx8tQoIKT3c6I9O2naX/bRtH/E8WItCuwOpJkIuH7xTE5scwmNjmhuIlzY8Pl8TP/oZb549R7cFWVOd+egfD4vxXt2ctblXZzuSlCOaHoc5d56/LbE2NkMGUAbrEFAyM62juYMpeQv+yj5R6wiYClwBwbWA/i8XtbM/4Gzr+xGUoqRMYXjKkqLGNm3Cwu+GhK2WwP3t2fbBs7v+ij1Eo2s8XRMi1bnsfbXxRRuXWsq5LFAEtYi2JCI1iyl5C/7KPlHvOoywZeYCFZZVszW1Uto1fmOiKytv7+ywt0MfagTG7J/dLorfvN6PJx63lURPwsTFxfHqed0JnvqOFylBabCnodVD2ONqYA1iezf/gNT8pd9lPyjxsvAZFPB1mVNZ+qQAabCOWbsi73Zsmqx092os+I9xqrqOSqjUWNue3ksCeZmM+KAT7HKBdsu2gYASv6yj5J/VPFirQUwtv/qv5++yqq5E02FC7nls75h5ZzvnO5GQCK9RPD+WpzZlksfetNkyEzgc2zIY38WTQMAJX/ZR8k/KuUBXQCXiWA+r5cx/XuQvyPku6+MmPv5u053ISBxcXEcfuypTnfDqI633s/Jl91hMmRr4D8mAx5ItAwAlPxlHyX/qLYA+LupYGVFexjZtwtVLmM13kPC43axcekcp7sRkKNOaknDw5s63Q2z4uD2foPJbH6ayaj3Ys162SYaBgBK/rKPkn9MeAeD5VNzVmTx7UBjY4qQKNy1hSqXYyXkg3Jp72ec7oItUlLTuOPVz0lMSTcZ9n3gDJMB9xfpAwAlf9lHyT+m3A2sMhVs3hfvWSfsRQhPmFX689cZl9zIGRff6HQ3bNP8xFO58okhJkOmAV9g1QkwLpIHAEr+sk9xqUvJP7YUAzdj1VE34stX72PnxhWmwtmqUZNmxMc7+xl06vnXkJLh/0l/Ldp1pGv/T6KqFPOBnH91V866/iGTIU8GPjQZsFqkZjElf9mnuNRF5+7jlPxjTy5W/XQjl5SeKhfrF82gzTU9SUhMMhHSNgn1Elk1dxKFubb8zvul0939ufmZIRzWrAUl+bkU7sw54OvqpzWg493Pc8OT70bVYUw1Oa3DZSybO5XSPGN/P6cD+VhrYIyJxEym5C/7KPnHvGXAEVhlVINWWpDHnm2b+MulN5kIZ6+4OFbM/jbAt8aRkpEZ1DqCI1ucRYu2l3HUSS1p99c+tLziNg45+jgaNWnOoc1b0KLt5Zx/26Pc8OS7tGh3OXHxkTzhXDfxCQmc2L4TiyeNwGPuXIbLgGmAsYNMIm0uxtZT/Z65q+WBn1TyD0ulZW6u7v05P84/8JVHkKpP9cuzI7gYlQzMwdAgAOD6JwZx7s0PmgpnC6/Xwzu9O9S5EFD9tAbc8tww1mX9l3lfvh9w+62v7smtz38c8Ptjwc/zpvPZ3zrj83pMhdwCnI01+xW0SBqS2Xqqn5J/ZCkuddGp21g7k/9lKPlHikrgFmCPqYDfDfwHOcsXmgpni/j4BLq9MpaGhx3t93uOOOEvPPJpFn+55CYOaXpCUO3n5RirgR+1zjrnMtrdYXTXQ1NgJIZyd6QMADTtL/to2l8OYBPQAzByGk6Vq5KRz9xKWWF4/xo0Pvp47v/gR5qf0aHG18XFx9Phhnt5aNhcDm3WAoBDm50YVNvlRcbGW1Hthvv707R1R5MhOwHPmwgUCZlNyV/2UfKXGqzFOk3tAhPBKkoK2bH+V1p2ui2sV66nNMikzTU9Ofy4UykvLqAkfxeeKjcA6Y2bcOZlt3Bz3w9of8M9f1jc6PVUBXULILVBY87rYnS1O4W7trB97c/s2bqBuPh4UtIbGY3vhLj4OE4+pzPZU8bgLisyFfZCYD6wPpgg4ftbbVHyl32U/MUPCcBUDJ0cCHDFvS9yWZ9+psLZzuuporKsmPiEeiSnHnz7uMft4vnLG+OuKAuonVPOvYo+bwV/FoG7spz54wcz94v32L3lj/nskKYn0P66u6zjgyN8B8HK7Ll8+vAlePcOzgzIw1oPEPB90HDOcEr+so+Sv/jJh3Vq4O0YKp6yccksjjnzXA45+ngT4WwXFx9PYnIK9Wo5oS4+IYEN2T+yZ+uGGl93MOfcdB/H/OWcgN5bLXfzaoY+3InsSSMpL8r/n+fLi/JZmzWdn6eNo0W7jqQ1OjSo9px02JHNcCU2YFPWFFMhU4FzgBFAQKsMw3UNgJK/7KPkL3W0E+gKGCmX5/V6GP18N0f33NvlvC6B7XRITs3g7M7dgmo7f/smPnjgMnas/7XW1+blrOX9ey9k95Z1QbXptCu7PcIJF95sMmQH4J+BvjkcBwBK/rKPkr8EaDbQ11SwkvxdjHq2675769Hi1POv5eRzOtf5fZ3uGUBa5mEBt+vz+Rj7Ym+K8rb5/Z7SgjxG9bsdn9cbcLtOi4uPo3v/D2nY9CSTYR/BOiWzzsIt2yn5yz5K/hKkecBZwCkmghXszMFVXsrJHa4wES4sxMXFcXL7TqyZ/wMle3b69Z621/ah8wOvBLUwctVP3zPj09fq/L6ivG0ceeIZNDnO6Kl7IZWYlEyzlhexdOJwvB5jA8rOwHjq+HkWThlPyd8BubvLWLB0G8tW5bF5ayE7ckvJL6ygrNyN1+sjPj6OevVCP1Gk5C+GTMY6M6CxiWA5yxdwxAmRnYD+LCkljZadulKwfTM7Nhx8Or5eUjKd7/8/rnrotaB3RUwZ/FzA5y5UuSpo2em2oNp3WuahTUjIPJq1c74xFTIZuBgYDvg9qgiXXQBK/iH23fT1vPLOPBYs3YbXW/PW6YSEOBqkJ9MgPYm01CTSUhNpmJFMRpr157TURBo1qE96WiJpKdbXmQ3rW8+lJJGeZj1f/dqMtJrrrCv5i2EtgblAiolg9dMa8MinWfv200eT35YvIGvCx2xeNpfCXVuAOA475mRatLucc266jwaHHmWknVevO478HZsDem9KRiYDpuYdcBDiriwnZ0XWvrUCjY8+nmantiHJ7BG9RviA4S/ey/Lvh5oMOwKrHoZfwmEAoOQfQhWVVdz91GRGfrXc0X40zEjeNyD4fXCRSFpqEqvX72bpil12NKvkH7vuxOCJakeeeCYPDZtLYv1UUyFjytPnJuEN4kjjft9v+cNgpLw4nx+GDGDxxOFUlBT+4bWJySmcfWU3Ot49gAaHHhlwm3aorKhg4J3nk7cu22TYrsBYf17o9ABAyT+EvF4fN9wznglTI3slbYCU/OUjoLepYG2u6UWX5z4yFS6mPH9pIypKAy+Kc9/gmRzf6kIA1mVNZ3T/7hTv3lHje1IbHsIdL4+mRbvLA27XDttzNvBurza4SgpMhdyNte6l1lLmTu4CUPIPsf8MW6TkL7HsQazfBSMWffcJC7+x5Zj2qNegDucXHMjuLevw+XzMHP46Hz7SudbkD1BWuJtPnriezb/MDapt045sdjzXPfuJlZvMOATwq3KVU1lQyT/ESkpd3Hz/15SVG9kaHUmU/KVaFTAd6x6pkc+eNQumcsp5V4Xd1HK4W7PgB3J/WxPw+xsd3oysCcP46fN38Pn8P/7BW+Vm49LZtL/+buIT6gXcvmlHH3cye4rK2b78J1MhzwaGASU1vciJTKjk74DvZ6zn43HLnO5GqCn5y5/tAdZg7ZsO+pLL66liXdZ0Wl/Vg8TkyC5VGyyvp4qlP4zmhw/68/3bTzD5/X7M+/I91mZNp7KkkEObnUhisrUOM2fFIn77dX7AbeWsyGLXplUBvbesaA+NjmhG01NaB9y+HU5tezErFs2iZGdgiyP/JAEoBn6s7UWhpOTvkA/H/My8bP+LbkQBJX85mJVAA6wyqkErL8ond/Nqzrq8S1gfGmSnrauzGfpQRxZ8PZTczaupLCveeyZBCbu3rGPV3In8NHYQeTnryGjcBI+7klVzJzrW38rSItpc08ux9g8kPj6eE9pfwZLJn1FVUeOFu7+OAQbW9IJQZkQlfweNmbDSrpX14UjJX2ozA+vAoOYmguVuXkVyShrHnnmeiXARZX32TIY81JHivO01vs7rqWL72p/JmvAROSsWBnwIkQllRXu4pOfTYTdgS0vPIP24NqyaNgqfL+iKh5nA11ilsQ8oVIsAlfwd5vFEbvnMOlLyF3+4sbZLGRsVT3rvWTYsmWUqXEQozN3KyL5d6pzMSwtqXaBuq8qyYqpcFY724WDO7HARrXq+bCpcjadihmIAoOQfBtJrKb4TJZT8pS62Yp0aGNBJan/m9VTxWb/b/C6pGw2mffii48k8EPEJ9Wo9LdEpyQnQruuTNGt/rYlwbWp60u4BgJJ/mKit+l4UUPKXQEwH+psKVpS3nVH9bsfrNTKmCGuu8hIWTxzudDcCcuSJZxIXH45n4VnSkuK44B+fknZo02BDnVjTk3b+BJT8w0hGelQPAJT8JRivAsZWpK1fPIMpg583FS5src/+kSpXpdPdCMjpF/3V6S7UKDneR1J6Jmfd/lywoWosuGDXAEDJP8xE8QyAkr8Eywt0B4zsvwKYOfw1Vs75zlS4sFSw3diPK6Tqpzekw433Od2NGiXtTWFHtrws2FBpNT1pxwBAyT8MRekaACV/MWUPcAtg5JLW5/MxZkBP9mzbaCJcWIrU2xzX/X0g6ZmHO92NGlWfzxYXF3SKrjEhmh4AKPmHqSicAVDyF9OygL+ZClZenM/Ivl0idpq8No2OMLKDMmTi4uK45tF/0foqvw/Lc0x1bcOdy+cEG6qwpidNDgCU/MNYlK0BmImSv9jjPeAzU8G2rFrMhLceNxUurBzf6kIS6iU63Q2/JKdm0O3VcVx4u7Hxna0qPOAuL+Hn0UFvB6xxm6upYshK/mEuPTXoAcAm4GYgA+u+UhrQCEjf7+vM/f6cvvf56q8zgIYEN+jcA/wL+CdWXXcRO9wLtAROMxFs/vjBHHvmuZx9ZTcT4cJGSkYmf7n0Zpb+MNrprtSoyXGn0f21Lzj82FOc7orfcnds54f+N1G0NfDzEvaqsV6yiQGAkn8EMDADkAgsNtCVFKwBQYO9j+oBQkMOPLgAKADmY1VvKzXQB5GalGANdhfy++9gUMa/fj9Hn9yKJsefbiJc2Oh830usnPMdlWXFTnflgA4/9hQeGDqblIxMp7vit7WLZjCm3+2U5xupJ7GkpieDrYOo5B8h1m8u4MQLPwgmRBFWkhaJFbdh8HbA4ceewsMfLyA5NcNUyLCwYva3jHj6ZjxVbqe7ckANDj2KdtfdSbu/3hnW6xZ8Ph8zPn2VKR/0x2dugWUrYOnBngxmAKDkH0F27S6jydmDggnhxZox8v/sTZHI9w7woKlgZ3W8lTteDu8p80BsWDKL0c/dQWHuVqe7clDx8Qmcct7VdLz7eY4++Wynu/MHZUV7GPtCL9NbR7dgnXVx0M/sQLOokn+EiYuDV96ZF1QIrHvv4TnMF7HHdKATtRRU8dfODctJbdiY5qe3NxEubGQeeQzn3HQ/qQ0ak7dlHeXF+U536X/4fD5yf1vNwq+H4q6s4MQ2l4bFYUBbVi5iyEMdyVmx0HTod7B+fw8qkO9eyT9C1Tv+DTyeoC7gjwR2GOqOSKQ4Bmv9yyEmgiUkJnH/4Jk0P6ODiXBhx+f1sjZrGvO/GsLK2d+G7a2B9tffw019Bzvah/njBzPhrcft2CrqBk7CWrx9UHVdkX0xSv4Ry0AtgOi6eSnin81YlQKNHKnpcbsY+cytEXmIjj/i4uM5qX0nbnl2aFgfj7zg6yEsmTzKkbZd5aWMGdCD8a8/YFediOHUkvyhbgOApsAXKPlHrIz0oE+/0gBAYtUk4BVTwQp25jC6f3d83ug8pnv72p95u1c71mfPdLorNZr8fj+8ntDuKN61aRWD+nQge9JIu5ooAgb488K6DABextAU2P6U/EMnPTXooh1GtkSJRKgB1HJPtS7WzJ/CtI9eMhUubGRPGsE7d53H7i3rne5KrfJ3bGbj0tkha+/nqWMZ1Ls9Ozcst7OZvlgLAGvl7wCgEdaWGKOU/EPLQC0AzQBILPMAtwPGlrpPG/YSaxb8YCqc42Z8+hpjBvTEXVHmdFf8tnFp0OV2a+Vxu/jm348yqt9tdtdM+BJ4398X+zsAuAgwWktWyT/0tAZAJGi7gFsxtBvG5/Uyun93Cnf5dcEW1pZOHcOk955xuht1VpS7zdb4BTtzeP++i/lpXFDbsP2RDfSmDlu1/R0AHB9Qdw5Cyd8ZBk4E1C0AEfgJeNpUsNL8XEY+c2vYrpb3h6u8hK//+bDT3QhIYv1U22KvmT+FgT1a89uv821rY69lwBVAnaYX6nILwIiak3+8kr+NNAMgYsxbWNOtRmxeNo/v337SVLiQWzxxBGWFkXk216HNTjQe0+f1MnXoAIY9fnUodntMBy4E6tyQvwMAI0Ok2q/8Gyj520hrAESM8QF9gLWmAs4ZO5Bfpn9uKlxIrVkw1ekuBCQuLo6Tz+lsNGZpQR7DHruKqR++GIpdHgOBK7HOS6kzfwcAKYEE35+m/Z2nGQARo4qwDg0qNxXw85fvInfzalPhQmbXxhVOdyEgZ1xyE42POs5YvM3L5jGwR+tQLOwsBroAjxHEepSQDAAevPU0Jf8woDUAIsb9AjxgKlhlWTEj+naJqFX0AG5XhdNdqLPUhodwzSNvGIs3Z+xABt9/CQU7c4zFPIhfgbZA0NNFIRkAnHr8QZYQKPmHlGYARGzxCTDMVLAd65cx/nVjY4qQaHh4U0fbP/zYU6if7v9hpfXTG9LjtS/IPPLYoNuuLCtm1LNdmfDm43jcrqDj1WI40B4wMk0UkgFASnK9//2fSv4hpzUAIrZ5iBqOXa2rxROHs+DrIabC2e4Yh881OK7lBfT7bgs3PzuUZqe1rfG1x7e6kIeGzeP4sy8Kut0d63/l7V7t+HnauKBj1aICuBfoCRibHjpAZj6goBYBpiT/Kckr+TtClQBFbFOBtR5gEYZ2TX3z78doemqbsDu69kDaXNOT2aPfwucL7LCxeknJQdXEz8tZR1JKGu3+eift/non29YsZfmsb8hZnkVpYR4pGZk0Oe40Tr/oOo5vdWHA7ewve9IIvnzt/lDcrtmI9buVbTqwvwOA4GYA6u/XTIwnf4/HR0FRBYXFlaSnJZGWkkha8InZL5oBELHVeqxCLOMJ7KTVP6hyVTCibxce/TSLlIzMoDtnpyNO+Autr+7Fou8+rvN7W3W+gxZtL2PcS30Cbn/3lnV/+Pqok1py1EktA45XkypXBRPefJz5X31gS/w/+Rbrqt+W85VDMwCongGI4eS/cOl23vwwi6mzN7Kn4H8XzGQ2rE9aaiJpKYmkpyXRqEGy9XVqEhlpSTTMqP46kQbpSTRIT7YGEPt9Xf18w4wDH/qTkabDgERs9jXwL+AJE8H2bN3A2Bd60/OfX4XF2fU1ufaxf7NtzRK2rfHvTkhCYhLXPvovzr3lIbauDu7itjB3K+7KchKTg96wVqM92zYysm8XtqxabGs7QBXwHPA6dajsV1chGQCk1q8Xs8nf5fbw8PPTGPJZzf8o8gsryC80t5I2Y+/gIC01kUYN6pOelojLFfSeVA0ARGr3DNABuMBEsBWzJ/DjiDe4uMdTJsLZJiWjEXe/PYXPnu/G2oU11wU4pOkJ/nGwhgAAEP5JREFUdO3/Kcecee7er4MrxuPzeiktyKNRk2ZBxanJitnfMvaFXpQX23Ixvr8dWGfvzLS7odCsAahfLyaTv8fj47q7xjN55oaQt11c6qK41PiKVK0BEKldFdAV655tExMBJw9+juZndDCycM1OaZmHcdfbk/l56hh+GvcOOcsX4vV69j1/WPOTaPvXPpzX5eE/XK3XT2tAeubhlOTvCrhtr02llL1eD1MGP8fM4a8HvMahDmZh/e5st7shCNUtgJSkmEv+AP3fmu1I8rdROta9Tdv/FYhEuG1YV3FTgaA//LyeKkb1u43HRmSTccgRQXfOTnFxcbTsdBstO1kn3+XlrMXn85HZpDlpmYcd9H1HnHAG6xb9N6A2E+ol2rIVsXj3Dj7rdzvrs2caj/0nPuCfwLNYA8iQCM02wPr+jjOix7adJbw5NMvpbpiWgKGy0CIxYAbWfVwjinfvYFS/2/B6QpYfgpacmsHRJ59N01Na15j8AY5rFfgdk2antych0eiBtWxYMouBPVqHIvkXADcATxHC5A9O1gGIcp99s4Lyisj5h1oHWgcg4r/XgO9MBduQ/SOTBxsbU4SVttf2IaFeYDui2l93p7F++Hw+fhz5T4Y8eDlFebbPxC8B2gDf2N3QgfgzAKgHBDW0Sg3RNrdwMmPub053wS5aByDiPx/QA2svtxE/jniDFbMnmAoXNho1acYFtz1e5/c1PbUNZ1/Z3UgfyosLGP7kjXw/6KlQzLR8CJyLtX3UEf4MAILeV5FSP/YGADvzSp3ugl00AyBSN/lYB7cEXulmPz6fj7Ev9GbP1qhaXwTAFfe9RIt2Hf1+fcPDjqb7a58TF+/vZPbBbV29hLd7tWX5LNsvxsuAXsDdWAWkHGP7ACAhPo6kxOD/ciKNy+2p/UWRSQMAkbpbhHVymxHlxfmM6NuFqgg8hKcmCfUS6f3vCbS//u5a6x40P6MDD3w4h8wjjgm63YUThvHuXeexe4vtF+NrgXOAT+1uyB+2DwBSqmsAxJi0lKid9Qi6mpBIjBoMjDQVbOvqbL7596OmwoWNeknJ3NT3Ax4cNpfWV/UgPfPwfc8lpaTRol1Hur0ylgeHBp/83ZXljHupD1/8392hGEx9iXW//xe7G/KXP6vzzBQBijEGyu6GqxKnOyASwe4DWgGnmwi24OuhHHvWebS+qoeJcGGl+entaX56e8A6cc/rqSIpJT3ghYJ/lpezlhFP38L2dbbnYzfWCv//EGZbqP2ZAQj+IKDYy/+kp0blAMALrHG6EyIRrBTrYJdiUwHHv/4AO9YvMxUuLCWnZpCSkWks+f86Yzxv92wbiuS/FbgEeIswS/4QqlsAMTgCiNIZgCxgt9OdEIlwq7AWgBnhrihjxNO3UFFaZCpk1PJUufn2P39nRN+Q/LymAWcDP9ndUKDsHwAkJ8TkLYD0tKhcA/CG0x0QiRJjgUGmguX+toaxA3qGolRtxCrM3coHD1wa1LHFfvJhHeLTGQi8tnEIhGAAUC8WJwBMnLwXbr4FvnK6EyJR5B/AfFPBls/6hjljB5oKF1XWZU1nYPfWbPrZ9ovx3cDVwNNA2G8Fs30AkBqrtwDSouoWwFygG2F4D0skgrmw6gPkmQo4cdBTbF42z1S4iOfzepn+0ct8+EjnoA4a8tNCoDUwye6GTPFnF0CQJwEmEIsDAAO3AOYCHwNpex8N9j7S//R19fMNsfbom6y7XAG8A/TDUBETEfmDHKzB9UT8L81+UJ4qNyOfuZXHhi+utfZ+tCsr3M2YAT1ZNXdiKJp7F/g7EfY5afs2QOsWQOwNAAwsAtyNVSqyrpKxBgSN+H2wkAZk7v1v+p++rv5/jfb+2QXsAX7E2re6NZhvQkRqNQV4CehvIljhri189nw37ho4yUiFvEiUsyKLkX27kL9js91NlQD3AKPtbsgOts8ApMbgSYBgZBtgoDX3K/c+9gTbAREJmReB9lgLx4K2duFUpn74Ip3uGWAiXERZPHE441+7H3dlud1Nrcba0vmr3Q3ZJQTbAGO0DkDwtwBUclckdniBO4BNpgJO//hlVs2NmNvRQXNXlvP5y3cx9oVeoUj+o7Gq+kVs8oeQ7QKIvWkoA7sAdOqeSGzZA3TFug0XNJ/Xy5j+3cnfvslEuLCWu3k1g3q3J+vbj+xuqgprhf/tREFV1BDVAQgmQmQysAZAMwAisWcB8KSpYGVFexj5bFeqXBG1Nq1Ofp35FYP6dGDHetsvxnOAC7D2+EeFEFUCjD3pqboFICIBGQiMMhUsZ/lCvh9kbEwRNryeKia+25fhT91ERUmh3c39F2vK31jdhnBg+1kA1mFAMXgLIPgZgHRicu5ERLAODVppKthP4waRPcnYQYSOK9iZw/v3XsTM4bZfjFdX9etImFf1C4RuAdjEQCGgeIL82YtIxCrBKhJUairg+NcfYOfGFabCOWbdov/yds+2oSh4lIe1K+NprEWaUUe3AGySUj+RhISgRz66DSASu37F4KFBrvIShj91E5Vlxg4iDCmfz8fM4a8z9OFOoajql4U15f+D3Q05KUTHAcfeLYC4OEhLcawWgIhEh9HAEFPBcjev5stX7jUVLmRKC/IY9thVTHy3Lz6v7RfjQ4DzAdurCDnN/rMAUmJzBgC0E0BEjHgEWGwq2NKpY5g/frCpcLbLWZHF2z3bsmb+FLubKgZuBe7F0FbMcGf/LYCk2B0AaCeAiBhQCdyEVR7ciAlvPc6WlYtMhbPNgq+H8N49F4SipO9KoAMwzu6GwonWANjI0E4AEZHNQC8MnchZ5apk+NM3U1ZobExhVGVZMaOe7cqXr96Hx237xfgIoC0Q+Ssk68j+NQCxfAsg+J0AmgEQkWrfAW+YClaw4zfGvtArFPfU62TXppW80+ccfp5m+8V4BfAY0AODuy0iSQjWAAQ9DR6x0jUAEBGzngWmmQq28qfvmTH8NVPhgpY9aSRv92oXiu2KvwEXYRVdilmhOQsgRhmYAdAtABHZnwfoBmwzFXDKB8+zduFUU+ECUuWqZMKbjzFmQA9c5bZfjH8LtAQW2t1QuPNnAFA/mAZSYngGQLsARMQGO4FbALeJYD6vl9HPd6cwd6uJcHVWsOM33r/vIuaMfdvupqqAF4DrgXy7G4sEtQ0AkoGEYBqI5UWA6amaARARW8wFnjMVrCR/FyP7dsFTZWRM4beVc77jrW6tyFlu+8X4LqyqfgOI0qp+gahtABB0KdpYvgWQnqZtgCJimzeAr0wF27xsHpPf72cqXI28Xg9Thw7gkyeup7zY9ovxWVhT/tPtbijS2DoASEqMJ6FeUBMIEU3bAEXERj6gD7DeVMBZo/7Fshlfmgp3QKX5uQx79Eqmfvii3TsQfMDbwOXAdjsbilS1DQCCLANcLyYPAqqmbYAiYrMC4Eag3EQwn8/HuBf7kLt5tYlw/2PDklm81a0laxca28hwMEVY6yQexdBaiWhk6wxAav16xPIIQNsARSQEfsFKdEZUlhUz8plbcVeUmQqJz+djztiBDH2oI0V5tl+MLwHOBuydyogCtg4AUuonEMsDAG0DFJEQGQp8YirY9nW/8M2/zYwpKkqLGNm3CxPefDwUiwxHAOdh8LZINLN3ABDrtwC0DVBEQud+rKtfIxZOGMai7z4OKsbW1UsY2KO17esKsKr63YVV1c/I7ZBYYPMagATrXNwYpW2AIhJCFVin2RWaCjj+9QfZujqwMcXiicN5754L2L3F9ovxNUB7YJjdDUUbm28BxO4WQDDy/WsGQETqYi3WlbARVa4KRj3blYoS/8cU7ooyxr7Qi7Ev9DK6juAgPgfaYK2DkDqyfxFgjM4AlJa5efC5H4INowGAiNTVF8B/TAXLy1nLmAE98flqP4gwL2ct79x5LosnDjfV/MFUAU9jzXgU291YtLJ5DUBs3gIoLXNzde/P+XF+TrChErGqMYqI1MWTwBxTwVbMnsDs0W/V+Jrls75hUO/2bF9n+8X4FqyDfF7H0PHIsUq3AAwrLnXRqdtYE8m/WlDrMEQkJrmB24BcUwEnvduX5bO++Z//73G7mPDm43z6xA2UFxeYau5gfsDa4jfX7oZiQW0Z2sAMgD/nDUWH4lIXnbuPY+5io4dq2H4TTUSi0hbgDmAy/h38ViNPlZvhT95Iq853cMZF15PSsDE7Nyxn7ufvsWvTyqA7Wwsv8BLwIqrlb0xtAwBVAvSTTcl/J1BpMqCIxJSpWCfgvWAimM/nI3vSSLInjTQRzl95WEcgTwllo7EgBIWAop9NyR90eIWIBO9lrFmASDQfa8pfyd8GttYBsHYBRPctgNIyN9f2+cKO5A8w2I6gIhJTvFi3AjY53I+6GoK12M/Ygir5o9puAdQPJni43wIoLXPjcnsoLnVRVeWloKgSr9dHQVEFHo+PopJKXG4vpWUuKio9lFe4KSuvotLlobi0kqoqH/Oyt7JslbF1Nvv7DJhtR2ARiTl7gK5YR+MGXaHMZsXA3cBYpzsS7WxeA1C3swDKK6qoqKyipNSFu8pLUYkLj8dKzB6Pl8LiSqqqvBSXuqh0eSgrd+99j4fSMhcut5eikko8HiuJW8n89/e43B5Ky9xUVFZRXlEVzLdmt2zgHqc7ISJRZQHwD6wjcsPVcuBmYJXTHYkFtu4C+GLaJhauKdqbzK3EnF9oJebC4krcVV5K9kvmAsBSoBNQ6nRHRCTqDMI6LOdWpztyACOB+9BnX9iYhFVoQY/QPJYCh/r1NyMiEph0rCttpz/vqh8VGDzOWMyZgfO/HLHyWAIc4t9fi4hIUE4HSnD+c28jVi1/CUMLcP4XJBYeuvIXkVC7EfDg3Ofed0Bj279LCdgvOJ8co/2hK38RccpjhP4zrwp4hrDeIyZgHS3pdIKM5oeSv4g47UFCNxOwA7gkNN+WBGsLzifJaH0o+YtIuLgaq1aAnZ95M4GjQvT9iAG7cT5RRuNDyV9Ews0xwPeY/7wrA/6GgQOJJLSKcD5ZRttjKUr+IhK+rsO6SAn2s84NfAQ0DW33xRTdAlDyF5HYEwdcBoyi7heCq7BOHzw65L2WOqltFeY0rF8CCd7PWD/L3U53RESkDhKBc4C2wBlY9/GrL2SqsBb2bcS6wJkHrHGgj2KDv+H8VXM0PHTlLyIiEaUhkIfzCTSSH9/v/TmKiIhElDtwPolG2sMLzAe6oGIXIiIShvxNTn2B/6vD6yNNKeDCOoe6CijASuIFe78u3vt8KdbBFeUHeE8hVjGNHVj3wHaF9DsQERGpg7ok9GuBt4ATbOrL/sqASqzDKtxYq1A9QD5WYi7k98Rcuff15VjJuToxV7+nYO9/939PdTKvfo+IiEhMqesVfSJwJXAF0AxIwZryrk6yRVgJu4Tfr5T/nMwLsZJ4/gHeU53MRURERERERERERERERERERERERERERERERERERERERERERERERERERERERERERERERERERERERERERERERERERERERERERERERERERERERERERERERERERERERERERERERERERERERERERERERERERERERERERERERERERERERERERERERERERERERERERERERERERERERERERERERERERERERERERERERERERERERERERERERERERERERERERERERERERERERERERERERERERERERERERERERERERERERERERERERERERERERERERERERERERERERERERERERERERERERERERERERERERERERERERERERERERERERERERERERERERERERERERERERGLd/wNoXpH0GJ41YAAAAABJRU5ErkJggg==;" vertex="1" parent="1">
                    <mxGeometry x="208" y="-986.5" width="52" height="52" as="geometry"/>
                </mxCell>
                <mxCell id="39" value="&lt;b&gt;Invalid Tenant&lt;/b&gt;" style="edgeStyle=none;html=1;labelBackgroundColor=none;" edge="1" parent="1" source="32" target="37">
                    <mxGeometry x="-0.6417" y="-10" relative="1" as="geometry">
                        <Array as="points">
                            <mxPoint x="83" y="-745.5"/>
                        </Array>
                        <mxPoint as="offset"/>
                    </mxGeometry>
                </mxCell>
                <mxCell id="57" value="&lt;b style=&quot;border-color: var(--border-color);&quot;&gt;Valid Tenant&lt;/b&gt;" style="edgeStyle=none;html=1;entryX=0;entryY=0.5;entryDx=0;entryDy=0;labelBackgroundColor=none;strokeWidth=1;endArrow=classic;endFill=1;" edge="1" parent="1" source="32" target="34">
                    <mxGeometry x="0.1257" y="9" relative="1" as="geometry">
                        <mxPoint y="1" as="offset"/>
                    </mxGeometry>
                </mxCell>
                <mxCell id="32" value="" style="rhombus;whiteSpace=wrap;html=1;fillColor=#cce5ff;strokeColor=#36393d;" vertex="1" parent="1">
                    <mxGeometry x="216.5" y="-765.5" width="35" height="40" as="geometry"/>
                </mxCell>
                <mxCell id="55" style="edgeStyle=none;html=1;entryX=0.5;entryY=1;entryDx=0;entryDy=0;labelBackgroundColor=none;endArrow=block;endFill=0;strokeWidth=1;shape=flexArrow;fillColor=#C9C9C9;strokeColor=#36393d;" edge="1" parent="1" source="34" target="54">
                    <mxGeometry relative="1" as="geometry"/>
                </mxCell>
                <mxCell id="58" style="edgeStyle=none;html=1;entryX=0.5;entryY=0;entryDx=0;entryDy=0;labelBackgroundColor=none;strokeWidth=1;endArrow=none;endFill=0;fillColor=#C9C9C9;" edge="1" parent="1" source="34" target="41">
                    <mxGeometry relative="1" as="geometry"/>
                </mxCell>
                <mxCell id="34" value="&lt;b&gt;MultiTenant&lt;br&gt;JwtBearerHandler&lt;/b&gt;" style="rounded=0;whiteSpace=wrap;html=1;fillColor=#dae8fc;strokeColor=#6c8ebf;" vertex="1" parent="1">
                    <mxGeometry x="364" y="-775.5" width="120" height="60" as="geometry"/>
                </mxCell>
                <mxCell id="37" value="&lt;b&gt;Return 400 &lt;br&gt;Bad Request&lt;/b&gt;" style="rounded=0;whiteSpace=wrap;html=1;fillColor=#dae8fc;strokeColor=#6c8ebf;" vertex="1" parent="1">
                    <mxGeometry x="23" y="-519" width="119" height="60" as="geometry"/>
                </mxCell>
                <mxCell id="44" value="&lt;b&gt;Invalid or Missing JWT&lt;/b&gt;" style="edgeStyle=none;html=1;entryX=0.5;entryY=0;entryDx=0;entryDy=0;labelBackgroundColor=none;" edge="1" parent="1" source="41" target="43">
                    <mxGeometry x="-0.3206" y="-14" relative="1" as="geometry">
                        <Array as="points">
                            <mxPoint x="289" y="-569"/>
                        </Array>
                        <mxPoint x="1" as="offset"/>
                    </mxGeometry>
                </mxCell>
                <mxCell id="46" value="&lt;b&gt;Valid JWT&lt;/b&gt;" style="edgeStyle=none;html=1;entryX=0.558;entryY=-0.007;entryDx=0;entryDy=0;entryPerimeter=0;labelBackgroundColor=none;" edge="1" parent="1" source="41" target="45">
                    <mxGeometry x="-0.2254" y="14" relative="1" as="geometry">
                        <Array as="points">
                            <mxPoint x="551" y="-569.5"/>
                        </Array>
                        <mxPoint as="offset"/>
                    </mxGeometry>
                </mxCell>
                <mxCell id="41" value="" style="rhombus;whiteSpace=wrap;html=1;fillColor=#cce5ff;strokeColor=#36393d;" vertex="1" parent="1">
                    <mxGeometry x="406.5" y="-589.5" width="35" height="40" as="geometry"/>
                </mxCell>
                <mxCell id="43" value="&lt;b&gt;Return 401&amp;nbsp;Unauthorized&lt;br&gt;/ Redirect to Login Page&lt;/b&gt;" style="rounded=0;whiteSpace=wrap;html=1;fillColor=#dae8fc;strokeColor=#6c8ebf;" vertex="1" parent="1">
                    <mxGeometry x="213" y="-519.5" width="152" height="60" as="geometry"/>
                </mxCell>
                <mxCell id="45" value="&lt;b&gt;Forward to application (Controller or API)&lt;/b&gt;" style="rounded=0;whiteSpace=wrap;html=1;fillColor=#dae8fc;strokeColor=#6c8ebf;" vertex="1" parent="1">
                    <mxGeometry x="467" y="-519.5" width="151" height="60" as="geometry"/>
                </mxCell>
                <mxCell id="48" value="" style="shape=image;verticalLabelPosition=bottom;labelBackgroundColor=default;verticalAlign=top;aspect=fixed;imageAspect=0;image=data:image/png,iVBORw0KGgoAAAANSUhEUgAAAgAAAAIACAYAAAD0eNT6AAAACXBIWXMAAA7SAAAO0gFcPFpKAAAAGXRFWHRTb2Z0d2FyZQB3d3cuaW5rc2NhcGUub3Jnm+48GgAAIABJREFUeJzs3Xd4VMXXwPHvbjab3gMpEEgg9N47KtIFERUpSlPsiO1n772+KHZFURGkWQBFBQso0jtIkd4JJCG9J5v3jw2Rkrp3du/u5nyeZx8w7D0zQnLn7NyZMyCEEEIIIYQQQgghhBBCCCGEEEIIIYQQQgghhBBCCCGEEEIIIYQQQgghhBBCCCGEEEIIIYQQQgghhBBCCCGEEEIIIYQQQgghhBBCCCGEEEIIIYQQQgghhBBCCCGEEEIIIYQQQgghhBBCCCGEEEIIIYQQQgghhBBCCCGEEEIIIYQQQgghhBBCCCGEEEIIIYQQQgghhBBCCCGEEEIIIYQQQgghhBBCCCGEEEIIIYQQQgghhBBCCCGEEEIIIYQQQgghhBBCCCGEEEIIIYQQQgghhBBCCCGEEEIIIYQQQgghhBBCCCGEEEIIIYQQQgghhBBCCCGEEEIIIYQQQgghhBBCCCGEEEIIIYQQQgghhBBCCCGEEEIIIYQQQgghhBBCCCGEEEIIIYQQQgghhBBCCCGEEEIIIYQQQgghhBBCCCGEEEIIIYQQQgghhBBCCCGEEEIIIYQQQgghhBBCCCGEEEIIIYQQQgghhBBCCCGEEEIIIYQQQgghhHABBr07IISwuwCgXskrDAi96GUGPIDAMq7NBXJKfn/2vFdyya+ngGMlvwohXIgkAEK4Bx+gGdASaAE0BepjHfRDHNB+HnC05LUf+AfYBewAEh3QvhCimiQBEML1mIH2QJeSVyegAWDUs1MVSAI2A+uAtSW/JuvaIyGEJABCuAAvoDvQD7gCaFfyNVe2F/gb+K3kJbMEQjiYJABCOKeGwDCsg35vwFff7thVMbAV+BX4GVgJFOnaIyGEEMKBGgD3Yv1kbME6MNbEVxIwExiK9XGHEEII4XZigCeAPeg/8DrjKwX4FOhh61+wEEII4Sy8gBHAD0AB+g+yrvL6F3gWiK3uX7gQQgihp3rAa1hXwOs9mLryqxD4HuuCSCGEEMJpdcD6TFs+7at/7cG6bsKdF0kKIYRwIQZgCLAe/QfJmvA6AzwC+FflH0cIIYSwh77IwK/XKwnrOoHgyv6RhBBCCFUGA1vQfxCUl3WdxeNYSyQLIYQQdtEcWIL+g568Ln0dB27DetiREEIIoUQ08DHWVel6D3Tyqvi1Cdk1IIQQQiMT1pXn6eg/sMmreq8fgLqX/pMKUfPIWQBCVE9H4BOsB/K4DJOHkehavtSL8icy3IewIC/Cgr0JDfQiwM8Tb7MHPt4mADxNRgoKLQAUFlrIyC4gL7+I5LQ8zpa8klJzOXoqk8MnM8nJK9Tzf80WqVjXB3yMteSyEDWSJABCVE0A8CJwN078PDksyItWjUJp3iCElvEhNG8YTFydAKJr+WLysM9pwYkp1mRgz+FU/tmfwq6Dqfyz/yyHTmRQXGyXJlVZA9wO7NC7I0LoQRIAISrXA2shnwZ6d+R8niYjHZqH06VVbbq0rEXX1rWJqxNgvwYN5dwuyhnlUzPyWbfjDOt2JLJuxxnWbD9DSnqe/fpnmzzgaeBNZDZA1DCSAAhRPhPwZMnLKT71N6gbQN8udejbtQ79u9UhyF/DYXkGAxiNYPQo+bXk9wZDyZ8ZwGAsf+C/WHExFFvAUlzy+2KwFIHFAhYLlsJCtuxK5Le1x/lt7UlWbkkgL99pTv1dA4wFDujdESEcRRIAIcrWHJiFzs/6jUYDXVvV5torY7n2yljbP+F7eICHqeTXkpdRp5zGUgRFRWSk5/DT8oN8u/QAP/99lMzsAn3685904B6ssz1CuD1JAIS41E1YF4jpVl++fbNwJlzdiOv6xhFdq5rdMBjA5AmmkgHf5Fn1T/E6yckpYNmKA3z1/U5++OMg+QW6zsZ/CdwJ5OjZCSHszbnvCkI4lhfwFtabv8PVCvHmxsHxTBzWmNaNQ6t+oQHrp3uTJ5jM4GmyWx8dIelsDl8v2sXn87exdVeiXt3YBlwP7NerA0LYmyQAQljVBRYAXR3dcLumYdwxohljh8Tj41XFwdsAeHiC2QyeZuvzeze0aUcC02ZsZO7i3aVbEx0oHbgZ+NbRDQvhCJIACAE9sZ4vH+6oBo1GA8P7xHLfjS3o2S6y6hd6eoLZyzroO/m0vkrHT2XwwVeb+WjWVlLSch3ZdDHwHPB8ye+FcBs15w4iRNlGYH3m65BDY4xGA4N7xvD8XR1o1zSsihd5WD/pe3npt3DPSWRm5fP+zM28/tE6zqY6NBGYD4wHHNqoEPYkCYCoyZ7E+snO7j8HRqOBUQMa8NRt7WgaV8WTaj09wcvH+qu4QEZWPu9+vok3P1nvyBmBv4DhwFlHNSiEPUkCIGoiT2A61k90dndZhyjefLALHZtX4QmDwQheZuvA76bP9VVKTsnhhXdW88HMzY5aI7AX67HPUi9AuDxJAERN44V1OvdqezfUuH4Qr9/fmWGX16/8zQYjeHmDt5f196Ja9h1K4ZFXVvD90r2OaO4U0A/Y6YjGhLAXSQBETeKLdbFff3s24mky8sDYVjx3Z3u8zJU8szcYrc/2vX1q1KI+e1m+5ih3PL6UvQftPkufAgwC1tm7ISHspWavKBI1iT/Wo2D72rORXu0jWfLeAEYPbFjx4TsGA/j4gF9AjVvRb09xMUFMGtUGk8nImk0nKbLYbeG+DzAKWAsctlcjQtiT3HVETRAM/Ir1KF+7CPDzZOqDXblleJPKx3KzF/j4yjN+O9u2+wzj7v+R7bvtWkwoC+vjpD/s2YgQ9iAzAMLd+QJLgG72aqBr69r88sFA+nWtU/Hgb/IE/0Drs375xG93kbX8mDSqDUajgb83HLfX0cRmrFtJVwJH7dKCEHYidyHhzszAYmCAPYJ7mow8d2cHHp7YGg9jBT9KRqP1E7/Zyx7dEFXw59pjjH/gR46cSLdXE6nAFcBWezUghGqSAAh35QF8Ddxgj+B1avsx7/U+9GgbUfEbZbrfaaRl5DHhwSUsXLrPXk0kApcDu+zVgBAqySMA4Y4MWPf532SP4Fd0imLZR4No1qCCgj5GD/APkNX9TsTby8QNVzXFw8PAX+uO2eORgB8wDOtOk1Tl0YVQTO5Mwh1NBe63R+CHxrfm5SkdK17hb/YCXz8Z+J3Y0j8PMWbKYnuVE94FdAfS7BFcCFXkDiXczd3Ae6qDmjyMvPtoN+4Y0az8NxkM1oFfnvW7hP2HUxgy8Rv+tU/NgBVY157k2yO4ECrIIwDhTnoBs1H8fR3g58n3U/sxamDD8t/k4QEBQdaV/sIlhAb7MOaaFqzdctIeiwNjgWisi1CFcEqSAAh3EQf8BgSoDBobHcCKz66iW+va5b/J7GXd3lfRTgDhlHy8TYy+uhn7DqWwc2+S6vDtgQxgjerAQqggCYBwB/5YB/84lUEb1w9i+adX0TAmsOw3GAzg529d5S9jv8symYxcO7AJJ09nsvmf06rD98NaLVAODxJOR25bwtUZgG+xHtOqTKtGoSz7cBCR4T5lv8FotH7q96i5OXR2TgH7D6ey7/BZklNySEnLJSu7gOycQjKy8vH1MeHr40mgvxl/PzMhQd40ig0hPjaEkCBvvbt/ieJieOCF33n7s42qQydinQ04rjqwEFpIAiBc3RPAiyoDdmweztIPBxEaVM5iPg+TdYtfDdrbn5GVz98bjvPXumOs23KSfYdTOH4qw+Z44aE+xNcPoVObKHp1rkvvLjFEhPsp7LHtnnpzJS++u1p12NVYawQUqA4shK0kARCurCvWEqwmVQFbNw5lxadXERJYzuDvaQZ/f2rCj8723YnMWbyL3/4+zJadpykqstvBOgA0bRjGFd3rccOQpvTuHINRxzUVT7zxFy+/p/zR/VTgQdVBhbCV+9/FhLsKALYAFSzNr574mEBWfj60/Gl/s3fJ/n5VLTqfQ8fSmLNoF18v2mWPRXFVVicygJFDmzJmWHM6tIrUpQ9TnvmNd7/YpDJkMXAtsFBlUCFs5ca3MuHmvgDGqwpWp7YfKz8fQlydcjYReHuBj7+q5pzOph0JTJuxka8X7bL7J/3qatcigvtu6ciN17TAw8Nxt6ziYrj9sV+YPmebyrBJQCsgQWVQIWwhCYBwRTcA81QFCw/25q/Ph9AsrpzSvt4+1pX+bqa4GH74bT+vf7SOVRudf31ao7gQ/ndbZ8Zd1xJvL2VPfSpUVFTMDXct5Ltf9qoMuwi4RmVAIWwhCYBwNTHANiBERTB/X09WfHoVHZqHl/0GH19rAuBmNmw7xeSnf2X91lN6d6XaYusGMfXpPgwf0Ngh7WXnFHD5yDls2Kb072oi1lksIXQjCYBwNUuB/ioCGQww//Urub5fOeUDfHzA270++ScmZ/PYa3/y+YIdWCzONdVfXf16xfLOc31p2jDM7m0lJGbR5eqZHD2prGJgGtAaOKoqoBDVVXM3MQtXNBJ4RFWwJ29tx+RRzcv+Qy9v8HGObWmqfDp3G1ff8i1rNp+0x0l4DnfwaCqfzN5Kbn4RvbvE4GHHXQP+fmb69oxl9sJd5OUXqQjpDTQHZqkIJoQtZAZAuIogYDcQpSLY0MvqsfCtfmVvNfPyAl/3WfCXlpHHbY/+wvwf9+jdFbvp0i6aue9dTWzdILu2s2jZPobf9p3KBOoGYIGyaEJUg8wACFfxJnClikBNYoP46f2B+JS1kMxsBt8At0mNN25PYMDY+axc7/yL/LQ4kZDB5/N3EFs3kFZNa9mtnaYNw8jKLmT1phOqQvYEpgN5qgIKUVWSAAhX0BH4GNBcei/Az5Pln15FndplTO97elrL+7rJ4P/RrC1cf8dCks7m6N0Vh8jLL+Lbn/eSmp5H/95xGAz2+Ye8ols9Vqw9ylE1JwgGAGZgmYpgQlRHzallKlyVB/AhipLVaQ93o3H9MqaJPUzWg33cxDNT/+bOJ5ZRUGjRuysON23GRkZNXqzqWf0lTCYjc98bprJ08RSgpapgQlSVJADC2U3AOgOg2XV945g4rIytYwYD+AWAwfV/HIqKirnj8aU8P22V3l3R1YIlexg0bj7pmfaZWY+O8OezNwapCucJvKUqmBBVJY8AhDPzxnrSn+aVXVHhvix5bwC+3mU89/cPAJNjCsvYU35BESPvWsSs73fq3RWncPh4Gr+sOMi1g5rg5+upPH7juFBOJCg7QrgB1gODDqoIJkRVuP5HHuHO7sZa+EcTgwE+fbYX4cFlHEHr62s94MfFFRfDrY/8wvdLlVasc3lbd52h341zSUnLtUv8t5+5kvhYJTWpAN5A7snCgdxkuZNwQ4HAAaCcEn1VN3lUc959tPulf2A2W6f+3cB9z/3OtBnKz7GvlMFgIDo6mobx8cTE1CM4JAQfb298ff3IzcslNzeH1NRUTh4/wYGDBzh29CiFhYUO72fvLjH8MvMGfMqaAdLor3XHuGLUHFWFlcYAc1QEEqIykgAIZ/Uc8LTWIFHhvuxZNIJAv4umgD1MEBDkFj8Br36wlsde+9MhbZlMJrp07UqPHj3p1r0HHTp2xNe36tUSCwoK2LF9O2vXrGbVqlWs/OtPsrOz7djj/wzr34jvPh5ul2OGb39sKZ98vVVFqINAMyBfRTAhKuIGtz/hhmoD+7FukdJk9itXMGZQGScGBwaDh+svgfl60S5uuvcHu1f269SpM9eNGME11wwnvJa6ffbZ2dn8/NMSvv3mG37/7VeKiuyzcv+cZ+7rwbP391Qe92xqLk37TCcxWUkyMwn4TEUgISoiCYBwRq8DD2kNcnnHKP6YfhWXbAf39QUv1z/gZ9+hFDpc9QUZWfb5sGg0GrlqyBCm3Hs/7dq3t0sb5zty+DDvv/cuX8+eTW6ufWoXGI0Gvv/kWq7uF6889hcLdjDxfz+pCLUXa5lg+2ZDosaTBEA4mwDgGBpX/nuajGyZN5wWDS9aoGUqmfp3cXn5RXQf/pWqFeiX6Nd/AC+8+BLxjRrZJX5FkhITeeWVl/jqyy+xWNTXMQgK8GLb0pupXydQadziYug9YjZ/b1BSdXEkMF9FICHKIytOhbO5BQXb/u4Z3eLSwf/cfn838PDLy+0y+MfGxfH13HnMmTdfl8EfILxWLf5v6tv89scKOnXqrDx+WkYeEx9covw0RIMBpj7V59IZJ9s8inxAE3bm+g9BhTsxAbOBYC1BQgK9+G5qX7y9Lvr29vMHk/r94I627K9DTHnmN+VxR44azddz59GsWTknJDpYRGQko8fciNFoZO2aNRQrXOhw+HgaYSE+dGkXrSwmQJ3IAHbtS2bn3iStoaKAtVjXwghhFzIDIJzJtUCs1iAPjmtFcMBFe/s9PcHspTW07vILirjnmd+ULvrz9fXlg48+5v0PP8LPz7mOQPbw8ODhRx7l+0WLiYxUchBkqcde+5Mjaur5X+Clh3rjaVJya71XRRAhyiMJgHAmD2gNUCvEmymjW1z0VYPbHO/71qcb2HvwrLJ4YWFhLFz8IzeMHKUspj1079GTX379jcaNmyiLmZ1TwEMvLVcW75z42BBuG9NWRaj+QBlbWIRQQxIA4Sy6AV20Bnl4QhsCLt7z7+0NRtf/Vj+RkMGL765RFq9u3br8+PMvtO/QQVlMezrXX5XrAhYs2cOfa48pi3fO45O74WXW/ITVCNyuoDtClMn174rCXdysNUBUuC93jWx24ReNRvB2/S1/YJ2yzlS05S8yMorFS36mUaMyDkdyYqGhoXzz/UKlScsDL/yuvI5CdIQ/E0a0UhFqItYzMYRQThIA4Qx8gBFagzw8sfWlh/34+qFqWbaeDh1LY87i3UpiBQUFMf/bb6lXr56SeI7m5+fHnHkLlCUvm/85zU/LDyiJdb6Hbu+CSftagHAU/GwIURZJAIQzGI7GrX8Bfp7cfM1Fz4c9Pd3ioB+AqdPXU1iofU+8p6cns76eQ/PmF6+TcC1hYWHM//Y7wsLClMR7SeGjlXMa1g9m5JCmKkJNUBFEiItJAiCcwXitASZc3fjSev8+Va9R78ySzuYwY/4OJbEef+JJunXvoSSW3mJiYnj/o48xKljfsWbzCVasPaqgVxd68DYl6xUuB9TuVxQCSQCE/uoCV2oJYDDA3SMv2rtu9rIe+OMG3vtyE9k5BZrj9LnySu6+Z4qCHjmPvn37cc8UNbvlPvxqi5I452vXIoJu7etoDWMEnHubhnBJkgAIvd2ExoJUA7rXpUnseU8QDICPeyz8s1iKlXz6DwgI4N33P1DyadnZPPLoY0qqFi5cuo8zag7zucBd49qpCDNaRRAhzud+dwPhajQvcLpk37/ZC4zuUeTy7w3HOXZSe7Gahx99jIiISAU9cj5mLy/eeHMqBo2LPfMLivjyGzWPWs434qqm1ArT/DiqI+BaWzaE05MEQOipDqDp41FMpB8Dute98Itusu0PYO4P2lf+N23ajEm33qagN86rV+/eDL36as1x5v2wR0FvLuRl9mCimi2B16sIIsQ5kgAIPQ1F44EnYwbFYzSeF8LL220+/RcUWliwRPuA9Ojjj+Pp6fpnIFTm4Ucf0/yIY9OOBA4dS1PUo/+Mv76lijBDVAQR4hxJAISertIaYNTABhd+wdt9aqb8ufYoSWdzNMVo0LAhg6+qGeNG06bNlMwC/Pi7+vN3mjcKp1XTWlrDdAY0BxHiHEkAhF580bj6v3mDYNo2OW8fuKfZbT79A0pK1E6ePMUtF/6V59bb79Ac46flBxX05FI3XqP5lEUPYJCCrggBSAIg9NMXawVAm40edNE5KV6uf9rf+f5ary0B8PX15boRNauIXNeu3TQfGLR64wmKihTXBgZGD2uuoiil5lkzIc6RBEDoZbDWAKMHnpcAeHi4TdU/gNy8QtZvPaUpxsBBg53ueF9HGHPjjZquT8/MY9vuM4p685960YF0aKV5J0Z/NG6bFeIcSQCEXnprubh5g2AaxgT+9wUv93n2D7B+6yly8wo1xbju+pq5aHzQYO0fkldtPK6gJ5ca2jdea4hgQMmWAiEkARB6CAM0FUm/YOufwWDd++9GtH4CNZvN9L7scjWdqYbCwkIOHjjAxo0b2LlzJwUF2isYVlfD+HgaNGxY+RsrsGNPoqLeXEhBAgAak2chzpEEQOihBxq3/12QAHia3eLEv/PtO5Si6fq2bdvh48BqiEePHuX++6bQuGEcnTu2Z2C/vlzWszsN6scwcfxYNm/a5LC+APTpo2l9Kbv2JSvqyYXaNo+gblSA1jC9VPRFCEkAhB40nUbj42Wid4fznqW62eI/gP2HtSUAXbt3U9STys36aiY9unbmqy+/JD39wqqFOTk5/LB4MQP79+WF557FYtF+omFVtG2nrfzu7v1JinpyIYMBBvSO0xqmFxoTaCFAEgChj55aLu7VPgIfr5KDfoxG8HC/Ijf7NCYArVq1UdSTin06/RPuv3cKOTkV1yuwWCxMe/stHnnofw7pV5u2bTVdfzY1l7SMPEW9udBlXetpDREBaD/8QNR4kgAIR/MGOmgJ0L/bxdP/GnvkZCyWYg4f11aNrqHGZ+BVsWP7dp5+8gmKi6u+Ze7zGZ8x/ZOP7dgrq0aNGuPhoW2xfEJilqLeXOiyrjEqwmj6GRICJAEQjtca0DRn361N7f/+w80W/wFkZudTWKhtqjyuQYPK36TRKy+/RH5+frWve+apJ9m4cYMdevQfk8lERESEphin7ZQA1IsOJLZuUOVvrJi2KQ4hkARAOF6Lyt9SPpOHkXZNS6r/GY1gMqnok1PJzNK2ct7f35+AAM0LzSqUeOYMvy5batO1+fn53DJhPMnJ9llod050dB1N1yeeVX808Dm9u2ieBVByxrCo2SQBEI6mqR5qy/iQ/57/u1Hhn/NlZlX/U/X5/Pz8FfWkfBs3bqjW1P/FTpw4wZ2332rXRYHBISGars/NK1LUk0spKAgkMwBCM0kAhKNpSgA6tTjvLBQ3PeEuM1vbDICvn+az5yuVeEb7Pvk/fv+dN994XUFvymY2a0sQtT6GqUj7ltoeT2A9FEjbFIeo8SQBEI6m6RFAp5bhJb8zgMk9E4CCAm2fPD0d8PfiYVJTjfbN119j+R9/KIl1MU9PbY+HCgrtNwPQpnntC4+xtk0zFX0RNZckAMKR/AFNe6A6Ni+ZAfA0uV3xn3P8/bR9cs3Ots/itfM1atxYSRyLxcIdt9/KyZMnlcQ7X16etkcpJg/73R4D/Mw0itX2iAKw/0pP4dYkARCO1BwNm/YMBmhUr6T+v5tO/4P2BCAry/4JQPv2HahVu3blb6yC5KQkbpkwXnnZ4LQ0bVspA/ztu8akZZNalb+pYvbf6yncmiQAwpHqa7k4IswHf9+Sgd/kngsAgf/+H22UkZFBUZH9pq/Bus3u5lsmKYu3YcN6nn36KWXxANJSUzVd7+9r3++xeJkBEDqTBEA4UrSWi+NjSvZOGwzW43/dlNYZgMLCQo4dPaqoN+WbMuVe4hupK0j38UcfsmjhQiWxiouLOXr0iKYYwYH2rTERHxusNYTMAAhNJAEQjqQpAWhYt2Rvu5su/jvHy+xBeKi2g3wOHDygqDfl8/L25tMZX+Dtre7QoXvvuZv9+/ZpjpOQcIrMzExNMerVCaz8TRo0rK95BiBWQTdEDSYJgHAkbTMA557/K1qB7swaxYZqun7f3r2KelKxli1b8vqbbyqLl5mZyc0Txld6tkBl9u3VlkR4e5mICPfTFKMyDetrngEIBtz3WZiwO0kAhCNp2rccV6dkBsDD/ar/XaxRnLZPh+vXrVXUk8qNufEmbho7Tlm8Xbt28r8H7tcUY/36dZqur1cnUMU2vQpF1fbXupHFgLUegBA2kQRAOJKmBKD2uWnxGpAAaF0gtnr1ak2V+qrrtdffoHUbdScQzps7h5lffGHz9WtWr9LUfotG4ZW/SSNPk5HQYM2PT9RsxRA1kiQAwpE01T8NDfQCo4f1DAA317ShtkcASYmJ/PvvHkW9qZyXtzczPv+SoCDNh9yUeuzRR9i+bVu1r8vNzWHD+vWa2m7bwjHjqoLHDDIDIGzm/ndS4Uw0FakPDfKqEc//Abp30F7ldbGiFfVVFRsXx7vvf4BBUYGmvLxcJk4YR2o1t/P9uuxXsrO1HeTTroXmUr1VEllLcwIgMwDCZpIACEfxRuP3W2hQyQxADVAnMkDzIrFvv/1GUW+qbvBVQ7hr8j3K4h05fJjJd91ZrccZ33+n7f/bYIBObaI0xaiq0GBvrSHsf/KTcFuSAAhH0fSw09NkJNDP7Nb7/y+m9cjYA/v3s2njRkW9qbqnnn6Grt26K4v3y88/8e60aVV6b3JyMsuWLtPUXqumtVR8Mq8SP41Fn9D4cyVqNkkAhKNoOqIuyN9sXTFdA57/n9O7s+Yz4/nwg/cU9KR6TCYTn86YoaxUMMDLL73A6lV/V/q+Lz6fQW6uti2E/XrGabq+Onx9JAEQ+qk5d1OhN00JgMlU8ly5hjwCAOjfO07zVrQfFi/m8KFDinpUdZGRUUz/dAYeimZsCgsLmXTzzZw5c7rc9+Tn5THj0081t9W/d6zmGFXl6y0JgNCPJADCUTTdqIwGAxiMNWoGIDrCn8u7ajo8kaKiIqa9/ZaiHlVPz169eOyJJ5XFO3PmNJNuvpnCwsIy//yzzz7l9OkETW2EhfhwRXdNR1ZUi6+P5i2tkgAIm9Wcu6nQm6bC6gaDoUYN/ueMHqb9yPevZ8+yaTudCvfedz/9BwxUFm/1qr95+aUXLvl6SkoK//fG65rjXz+4CZ4mx32fKdgx4f5FMYTd1Lw7qtCLprNejUbAjuezO6vrBjXB7KltGr2oqIhHH37IoYWBzjEYDHzw0cfUq6dtJuN8706bxi8//3TB1159+aVqbxcsy6irtSdc1WGxaP43KXs6RIgqkOxROEq+losNGNBaN9UVhQR5M7hPAxYu1Vbbfv36dXzx+Qwm3nyLop5VXXBwMDO+mMngQQPIz8vq1aEZAAAgAElEQVTTHK+4uJjJd93J78v/pH5sLH+vXMnnMz5T0FO4ZtJ31A73JSzYh/BQH8JCfAgP8SU81IdaYb6Eh1z49bAQH03flhbtSZl9z30Wbk0SAOEo2u/8hpo3AwDwwKTOmhMAgKeeeIIuXbvSvHkLBb2qnrbt2vHyK69qrvF/TmpqKhMnjGPu/AXcc/edWCwWJXHTMvJIy8hjHylVer/RaChJBkqSglAfwoJ9iKjld1ES4UN4qC+1wnwI9P/vaZjMAAg91byPVEIvMYDNh9SHBnmRvP52UHj0rCvpPnwWazaf0BynSZOm/PrHcnx9NW3KsNmdt9/GgvnzlMUzmUzlLgp0VmZPj9JkISUtl+OnMrSEex54RlHXRA0jCYBwlAjA5iXaJg8j+bunYPDStJbQZS1cuo/ht32nJFb/AQOZOWs2JpPjJwCzs7Ppf2Uf9uzZ7fC23dSvwEIgCTgDJJf8PhmNj92E+5MEQDhKCHBWS4CM7ZPxD3JMhTZnY7EU06LvZ+w5kKwk3o03jeXtd95VVre/Ovbt20u/PleQmZnp8LZrmHQgEWtCcO6VDBwHDgO7AcedGCWcTs2pqiL0VgQ8iYak8+6b2hEYqLl2uksyGAzUjQxg3g9qPjnv2L6drMxMLr+ij8OTgLCwMOrHxvHD4kUObbcG8gJCgbpAY6At0A0YAIwEJgN3A+2w7tI5hCwqrFEkARCOYgGmoKFwyS0jW1ErvOaefdI0Poy1W05y4Ij27W4AGzas5+SJE/QfMACjg2ssNGvWjJSUFDZv2uTQdsUl/IBWwGjgZqAY2IYsLqwRauayaqGXM1ouTknLVdUPlzXt2b6a6wKcb/asr7hx1Egle+ir67kXXqRjx04Ob1eUqw4wFdgJDNa5L8IBJAEQjqQpATimbbW0W2jSIJT7bumoNOZvv/1K3z6Xs2P7dqVxK2M2m/nsiy8JCwtzaLuiUnHAEuBtQPNhBcJ5SQIgHElTAnDoeJqqfri0p+/tQdOGagfNw4cO0b9vH95843WHbqurU6cOH3483eGPIESV3Av8AtTc525uTtYACEe6DOhs68UN6wcztG8jhd1xTWZPD3p3juGLBTsoLFJTAAfAYrHw98qV/LRkCQ3j46kfG6ssdkXiGjSguLiYVVU47lc4XBxwOTAf2VbodiQBEI7UEbjC1ovDQnwYe21Lhd1xXRG1/AgN8uGn5QeUx05MTGTe3Dls2bKF+rH1qVOnjvI2Ltatew/WrVvLkSNH7N6WqLYYoDXWJMDxB0oIu5F5N+FImg6mP3RMHgGc765x7bh2YGO7xf912VIG9e/H0KsG8+03C8jLtc8izHMzD8ePH7dLfKHEEOBVvTsh1JJCQMKRugBrbb3Yy+xB5u4HMDnwuFZnl56Zx+U3zGHLztN2bys4OJgBAwcxaPBgLrv8CgICAmyOlZ+Xx5o1a/jt12UsXrSQEye0lzkWdlcMXAd8r3dHhBqSAAhHCoYqnrJSjh3LbqZlk1qKuuMeEhKz6HHtLA4eddxWPg8PD5o2a0bHTp1o1Kgx8Y0aERUVTVhYKN7nndeQl5dLeno6J46f4PDhQ+zbu5ctmzezfft2cnNzHNZfoUwa1kd5+/XuiNBOEgDhaAlYzwWwycy3hjD2WsefZufs9h9Ooce1sziTnK13V5ySwWgkJCoWk6cXZm/rQUj5udnkZWeQl5VObla6zj10KduwVhSUDM7FyXHAwtH+RUMCsPmfBEkAyhAfG8KSL0Zw5ei5pGdqP3nZ3RRbLAy68yXa9BtZ5p8XFRaQlZpEdloyWWlJZKcmkZmSeN7XkslKTSIrJZGstCSyUpMoyK2xyVYb4H2slQOFC5MZAOFo04FJtl58WdcYVswbo7A77mXTjgQGjptP0ln5cHYxs48/93y+loi45kriFebnkp1+lpz0FHIyUshOTyEj+RTpiSfJyUglu+TrORkppCedIj3xBIX5bpWc3QLM0LsTwnaSAAhHewD4P1svDgrwImXHfehwiJ3L2Lk3iQFj53MiQSonXiyiQQvumbEWs48+p0rmZWeQlZJIZmqidWbh3AxDajJZqdYZh/++lkRWWhLFFnW1HhTLwfooYJveHRG2kduocLTewJ9aAuxZfitNGoQq6o57OpGQwbBJ37FpR4LeXXE67QbeyOjnvtK7G1V2fkKQnZ5cmiRkpVgThPMTicyURHIyNK2zra79WBcFyh5dFyQJgHA0X6w3C5vXn3z4Un/uuKmduh65qeycAm55+GfmLlZzhLA7ufaRD+h67R16d8MuLEWFFyYNaclkppwhKzWJU/t3sGvlDxTmK63p8D3W7YFSJMjFSAIg9LAZ6xnkNrluUBO++egahd1xbx/N2sL9z/9Bbp6c8HqOyezFXZ+spG4ztQcruYKkE4eYfv/VpBzZqTLs/9DwaE/oQyqqCD3YXAwIYPmaI1gs8mGjqu64qR3rF4+jfUubN1+4ncL8PL567Aay08/q3RWHC68Tx6RpP+MdpLSexqtAT5UBhf3JWQBCD+GAzR/hc3ILubpfPNERckhZVUWE+3HLyNZ4mU2s3nRC6SFCrio3M5XTB3fStt8oDDVsValfQCAhDdryz7KvUTRzbwQGArOBLBUBhf1JAiD0kAtM1hKgYf0QenSsq6g7NYPRaKB3lxgmXN+KpLPZ7NiTqHeXdJd0bB8ms5m4tr307orDRdZrSGaBgeNbV6gKGYB1QeAsZD2AS5AEQOihM3CjlgAmk5GbhktBIFsEBngxfGBj+nSP5dCxNA4fd70F3N5+gRQWqNlTf3Dzn8S27UlodJySeK6kSYde7N2+nrSTyir7xmJd4PuHqoDCfmQNgHC0gcB3WoPI9jbtenWuy/J5o1k+bzSDLm/gMrUVQiLrM+HNRRg91BQytViK+PqpG0lPOqkknisxGo2MfeEr/GvXUxn2UeAqlQGFfUgCIBxpINYtQ95aA6Wk2edo2pro8q71+OnLEez+41amTOxAeKhP5RfpqMVlw2jQ/jIG3vmispiZZ08z+4nRWIpq3k6JoJAwRr04D6PJrCqkEZiJdTZAODEXyfmFG1A2+APUiQzg+Lq7VIQSF8kvKOLn5QeZ/+Mefl5x0OmSrdve/434jn0oLi7my4eGs2vlYmWxvf0CKcjPxVJUiG9gKEG16xIV35r4jlfQrOcQfIPClLXlbJZ+/T6/T7tHZciNWHcGuFX9Y3ciCYBwBKWDP8iZAI5SWGjh743HWb76KCvWHmXDtlPk5Or3KdnD5MkLy9Mwma3fSjkZqUwb35GzJw7avW2T2YtWfa7nyomPUzu2md3bc7himP7YGPYtn6sy6oeAZOpOShIAYW/KB3+Aj18ZwG1j2qoMKarAYinm8PE0du9PZvf+ZPbsT2bPgbMkns0mOSWH5JRLDyEKDvQiONCbyFp+HD6eRkKi7bvE6jbtwJQvN1zwtRP/bub9ST1VV7crl9HoQe8bH2TAHS/gYfJ0SJuOkpOdyVvju5B6VGn1yJuwbg8UTkYSAGFPdhn8a4X6cODvOwjwU/bMUihWUGjBw2jAaLzwFtPj2lms3nTC5rjdrruT4Q+/f8nX1y2czrev3G5zXFvEtOjMmOdnE1a3oUPbtbcj+3by8aSuFOYq286fBXQBlJYeFNrJIkBhL3YZ/I1GA7Ne6SODv5PzNBkvGfwtlmK2a6w9ULdZhzK/3uWaW+lw1XhNsavr2M71vH9rT5KO7XNou/ZWv1ELBv3vI5Uh/YBvAKnc5WQkARD2YJfBH+D1+zrTv0sUSClgl3PgSCqZWfmaYkQ3Lv+xz7UPv09kw1aa4ldX5tnTTL9nAGmJts9qOKNeQ2+k1dV3qgzZFJiuMqDQThIAoZrdBv/X7uvMg+NKbvCF2gYS4Xjbdp/RdL2HyZOIuPKLP3l6+zL21QV4+wVqaqe6Uk4dZubD12KxFDm0XXsb9dBUajXppDQkGiuACrUkARAq9cdOg/9Lkzvy8ITW/32hsObt13Z1W3ed1nR97dhmmMxeFb6nVr3GjHz2S4fX9j+2awOrF1y6NsGVeZq9GP/qArwDw1WGnQr0UBlQ2E4SAKHKQGARdvrk//iki6Z+CwtUNyPsbNsubTMAUY1aV/4moEXvYfQcea+mtmyx9KOnSE865fB27al2dD2GPfk5BoOyocIT+BrrgWBCZ5IACBXsOu1/wSf/c4qKwCIn2rmSbbu1LQCMbtSmyu8dfM9r1GvZVVN71ZWXncH6Re73mLvDZVfR+cbHVIasB3yFjD+6k38AoZXjpv3Pp+4TiXCA5JQcjp1M1xSjogWAF/MweeIbGKqpPVts+OELit0wMR1+93PEdOivMuRA4EmVAUX1yV1UaOHYaf9zDAYICACjfPu6Cq0LAAGi4qv2CAAgNzONfRt+09xmdaWcOsyhbX87vF17MxqN3PT8l/iGRasM+wzQT2VAUT1yBxW20umTvwECAkHRSXDCMbbs1LYAMKh2XfxCalX5/cd2baCoQJ+dIgc3r9ClXXsLCY9g1MvfqD40aC5QX1VAUT2SAAhb6PjJXwZ/V7Rd4/P/6nz6Bzi1b5um9rQ4tf8f3dq2t6Ztu9L71pdVhgzFuijQvWoquwhJAER1OX7BH8jg7+K07gCozvN/gLQz+hXmST19VLe2HWHg+Ptp0HO4ypDdgddVBhRVIwmAqA4Z/EW15RcUsXt/sqYYVd0CeE5OZpqm9rQoyM3WrW1HMBoMjH12BoHR8SrD3gtcrzKgqJwkAKKqZPAXNtm1L5n8Am1V8qqzBRDQ9ZQ+g9FDt7YdxS8giDEvL8DD7KMqpAH4DGisKqConCQAoipk8Bc20zr9b/bxIzymUbWu8a/GgkHV/IJrRo2bBs3a0P++d1WGDMR6aJCvyqCifJIAiMrI4C800VoCOLJhKwzV3PIZVreBpja1qFW/iW5tO9rl191M80E3qwzZCvhQZUBRPkkAREVk8BeaOXoBIEBMiy6a2tQipllH3dp2NAMw6pF3CWtQvUc0lRgH3KoyoCibJACiPDL4CyW0FgGKruYCQLAeHBQSFaupXVsYDAYadx3g8Hb15O3jw7hXF2D2C1IZ9h2gvcqA4lKSAIiyyOAvlDh6Mp2zqbmaYkRVcwEgWAfitv1HaWrXFvGdriQwPMrh7eotqn48Qx+bYf0ZVsMbWAAEqwooLiUJgLiYDP5CGa3T/wajsdpFgM7pdt2deHgqq1pXJT1uuMeh7TmTLv2G02HEAypDNgC+xPqkQdiBJADifDL4C6W2akwAwuvGY/bxs+na4IgYLh/7sKb2q6N+6+407zXUYe05o+vufYXIlj1VhrwacNw/Yg0jd1xxjgz+Qjk9FgCe78qJj7Pt13kkHdunKU5lvHwDGPn055W+ryAvhyPbV3Ny71ay0pLxDQqlTuN2NGh/GUY3+BkwmUyMf2Uu74zrQE6Ktt0f53kRWAv8qSqgsHL97zihggz+wi60LgCsbgXAi5nM3ox85gs+mdzPrhX6hj/8XoW1CixFhfw5603+mvMWWSmXnosQEBZJnwmP0e36uzC6eCGhsNrRXP/sbGbdP4Bii7YCUCVMwBysiwITVAQUVvIIQMjgL+wiIyufA0dSNMWwZQHgxeq36sbYV+bbrTpg31ueov2gseX+eU5GCh/deQU/f/B4mYM/QEZyAov+714+u3cQedkZdumnI7Xq2ofuE59XGTIK68mBcsNQSBKAmk0Gf2E323efobhYWwytjwDOadp9MGNemG3zeoKyGAwGhtz7Jv1ve67c9xQVFvD5g8M4vG1VlWLuW/8bXz06gmKLRVU3dTN00iPU73KVypCXYX0cIBSRBKDmksFf2JXWBYB+weEE1aqjqDfQqs/1TPlig5KkIqhWHca99i29x1S86n3lnLc4vO3vasXeu24Za75z/WJ4RqORcc9/iX9ErMqwD2NdGCgUkASgZpLBX9id3gsAy1I7timTP1tD/9uew9u/+oVrTGYveo6cwoPzdtLismsqfG9RQT4rvnrDpn6umPk6lqJCm651JgHBoYx+aT4enl6qQhqAL7BuERQaSQJQ88jgLxxC+wJApeVlS5nMXvS95SkeX3SYax56l7i2vSpdgR/duC1XP/A2Ty45wdUPvI23X2Cl7ezb8DvZabYdg5x6+hjH92yy6Vpn06hVR/pMnqoyZAjWIkHK72E1jdyNaxYZ/IVDFBUVs2NP2QveqsqWEsDV4e0fRPfr76b79XeTl53BqX3bSD5xkKzUJIotRdZHELVjiG7c1qYT/hL2b9fUvyPbV1OvjDMNMlPO8M+K7zm5dxs56WfxC65FdJO2NO81FP+Q2pratJd+I+/k6PbV/Pv7bFUh2wPTgNtVBayJ5I5cc8jgLxxm76Gz5ORqm8K2xyOA8nj5BhDbpiexbdQVscnN0raaP/HohbUL8rIz+PmDJ1j3/ccUFRZc8n6T2Ysu19zGoLteVrrYUQkDjHnyI97ev5WUIztVRb0NWAXMVBWwppFHADWDDP7Cobbu1FYExmT2olb9pop6ow8vX39N1ycfP1D6+5N7t/LWTe1YveC9Mgd/gML8PFbNf5d3JnQmI9n5tsv7+Ppx0ysL8PTR9vdykQ+xHiEsbCAJgPuTwV843Lbd2qb/I+Ka223fvqOERMdquv5c9cJNP83k/Uk9OHviYJWuO3N4N59OGUhhfp6m9u0hpmFTBj88XWVIX+AboPJFGeISrl1ySlRGBn+hi/+bvoH9h20vAtSk2yBaXDZMYY/Uy0pJ5PShXWQkJ2D0MF0y7V6Ql8P6RZ/aHD8/O4O0xJMs/fipau8IyDx7GqPJRMP2l9vcvr3Ua9SSM0nJnN6zXlXIMCAe68JAUQ1yh3ZfMvgL3Wh9BBDd2L4LAG1lKSpk/eLPWPf9J5z4d8sFfxbduC1t+t5Ap6ET8Q+NIDwmXltbliLWLfzE5utXzX+PK8Y9ismsbAueMiP/9yan9mzgzJ51qkKOAO7FujBQVJE8AnBPMvgL3ZxOyiIhMUtTjOhGjlsAWFUpCUd4Z0Jnvnv1zksGf7A+p//5g8d56er6zH5iFCf+3YJvYKgOPbXKTkvm4BbnPD/H5Glm3Cvz8A6s/u6KCrwBdFMZ0N1JAuB+ZPAXutJaAMhgMGg+BEi19KRTfHBrL07u3Vrpe4sK8tn223w+ubsv2elnHdC78iUc+EfX9itSO7oe1zw9E4NB2TDkCcwHaqkK6O4kAXAvMvgL3WktARwcUQ+fgBBFvVFj7jNjSTtzXO9uVFtBXo7eXahQ+14D6TL2SZUh6wKzkbGtSuQvyX3I4C+cgjOWANZi77pl7N/4h97dsImejyCq6po7nqZuh34qQ/YDnlEZ0F1JAuAeZPAXTkPrDIC9SgDbavPPs/Tugs3qtby0kqCzMXoYGffiLPzC66oM+yQwQGVAdyQJgOuTwV84jZzcQvYe0vbcO7qxcyUABzc750K6ykQ0aEF043Z6d6NKgkNrccMLczGqq/1gBGYB9VQFdEeSALg2GfyFU9m5N4nCQm1n2Uc70QxAcXGxU1bVq4p+k57GYDDo3Y0qa9a+O71vf11lyHCsiwLNKoO6E0kAXJcM/sLpbN2lbf+/t18gIdFxinqjncFgwGR2vUPnOg29mdZXjtC7G9U2eOy9NOx9vcqQXYA3VQZ0J5IAuCYZ/IVT0roAMKpRG6f71Kq1oI+jdR42iese/1jvbtjGADc98ylBdRurjHoPMFJlQHchCYDrkcFfOK1tu91rASBAs55D9O5ClXh4mrnmoXe5/vFPMBpdt8q7n38gY15egMnLV2XY6YBrny5lB5IAuJb+2Gnwf2lyRxn8hSbFxbBtl7ZDgJxtASBA12vvcL7jdS8SVKsOd3zwB92vv1vvrigR16QVgx62vQxyGQKAhSW/ihKSALiOgcAi7PTJ//FJ5ey9lsFfVNGhY6mkZ2o7gc6ZFgCeExgeRf/bntO7GxXqfeMD1GnaQe9uKNVzyBhaDr5VZcgmWI8PFiVcd56oZpFpf+H0lq85yvwf99h8vdHDxND7pzrlMcD1W3UjO/0sx3YqO8FOqb1rl7H2+4/JTDlDSFQsfkFhendJMwPQrFs/tq/8meyzp1SFbQ2cBjaqCujKJAFwfjL4C5cwd/Fu/lx3zObra8c1o+fIKQp7pFbT7oMIjozh6I615OdqO+zIHgpyszmyYw1rvnmfk3u3Ed2oNX7Brl0W38NkokHnvmz+6SuK8nNVhe0H/AKcVBXQVckjAOcmg79wGVoXADrj9P/FOg29mUe/38+wB6cR0aCF3t0pU3FxMTv/XMi08Z3Y9us8vbujWVRMA65+4nPrfUkNL2AB4Px1ku1MZgCclwz+wqU8+uoK0jJsXwPQYfBNxLbuobBH9uHhaaZeiy50v/4uGnW+kqLCAk4f3ElxcbHeXbuApbCAnSsWEtOis8ttZbxYnbgmpGTkcvKfVapCBgMtgLmqAroimQFwTrLaX7iU1PQ8jp5M1xTD2Q4Bqoq6zTrh6eWDxVKkd1fKZLEUMfe58eRmafu3cQbX3fsiddv3VRlyCPCYyoCuRhIA5yOr/YXL2brrNFo/AEfFl5OYOqmUhCN8cGtP1i2crndXKpSVksi67120MNB5PIwe3PT8THxCIlWGfR64QmVAVyIJgHORaX/hkrRWAAwMj8I/NEJRb+xv/4bfmTauI8f3bNK7K1Wy/Y9v9e6CEqG1IhnxwhyM6u5VHsAcIFpVQFciCYDzkMFfuCx3rABYnl0rf2DGA0PITkvWuytVdmrfNqdbo2Crlp0uo8ctL6oMGYF1LUCNuwlKAuAcZPAXl7BYijmRkMHWXWdITM7WuzsV2rqzZiQAKQlHmPvMWArztRU8crTC/DzysjP07oYyQ25+iNhuV6sM2Qt4RWVAVyB3fv3J4C8u8PuqI3w0awuLf91PfsF/i8viY0O4skd9+vWKpU/3+oQEOccpdUVFxezal6QphjOWAC7LLx8+6ZIL6oweJrx83acKrsFgYOxzn/P2+E5knDqoKuyDwCqsJYNrBLn760sGf1EqK7uAif/7iQVLyq6mt/9wCvsPp/Dx7K14eBjo2DqKy7vWo0u7KLq0jSY6wt/BPbY6npBBXr62VfCuUAMgO/0s239foHc3bBLduK3TnbKoVUBQCKNfms9nd/RUVSTIAHwBdAT2qwjo7GQE0I8M/qJUemYeg8YtYPWmE1V6f1FRMeu2nGTdlv+KmdWNCqBzmyjatoigacNQmjYMo0nDUMye9i33cfhYmqbrPb19Ca+n9PhXuzj6z1qKCvL17oZNWlw2TO8u2EV8i/b0nTKNpW/eripkENYiQd2BHFVBnZWMAvqQwV+USs/MY+DYBazZXLXBvzzHT2Vw/FQG3/2yt/RrJpORuJggYqICqRPpT92oAKJq+xMd4U9QgBdBAV74+5nx9/XE3898Scz8giIyswpITc8lPTOfzKx8ks7mcOxUOqfOZHEiIYM9B7QthouIbeYSx9emnDqidxds4hsURo8Rk/Xuht30GXErR7atYs+vM1WFbAu8C0xSFdBZyUjgeDL4i1KqBv/yFBZa2HcohX2HUuwSXwUvv0C9u1A1LriK3mA0MuLJT/H2D9K7K3ZjAMY88QFv79/C2UM7VIW9Bet6gM9VBXRGsgvAsWTwF6XOTfvba/B3FQkH/8FSVKh3NyoVpnM5XQ+TJ5fd+D/8gsOr9n5PMyOemE6L3u45/X8+bx9fbnplAZ6+SpPJ9wHnX5yigfPPu7kPGfxFqeo+83dnBbnZ+IfWJqZ5Z727UiG/kFqsmv8uRYUFurRfbLEw7rVv6DPhcWrHNSM7NYmUhLIfS8R3upKbXppH0+6DHNxL/QSGhOEbGc+eFcoWanoCVwIzAdfa91lF7rUs1HnJ4C9KyeB/KU9vX+6ZsYbIhq307kqFvn3lDtYt/MSma4Mj65GRnKBpIeFdn/xFbJuepf+dduY4+9b/SkrCUYotFoIjYojvdCWh0XE2t+Hq5rz+AFu+fVtlyO+A6wHXewZUCUkA7E8Gf1FKBv/y1arXmHu+WI+3E68JyEpN4s2RzclKrV7dg0ad+zHmhdl8cFsvEo/8a3P7Nzw1g45DJth8fU1QUFDAO7ddweldq1WGfRCYqjKgM5A1APYlg78oJYN/xRKP7mXBi5OcumStX3A4E95chNmnajUXDAYDfSY8zi3TfsIvOJzwutrWESSfUFb0xm15enoy7uW5eAfVUhn2VaBnpe9yMZIA2I8M/qKUDP5Vs+OPb/h73jS9u1Gh+q26cff0lUQ2bFnh+0Ii6zNx6o8MvPPF0m2OYRoTgJyMVE3X1xS1oupy7TOzMBiUDXGeWM8LqK0qoDOQRYD2IYO/KCWDf/Uc2PgHjTpdSXBEjN5dKVdAWCRdrrmVyIYtsRQVkZedidHogV9QGPVbdeOKCY9y3aMfEhHX/ILrko/vZ8/qn21ut36rrjTpNlBr90tlpyVzYPMKDm1dyemDOykqKiAgNNItqgZG1mtIVoGBY1tXqAoZCLQHZuMm6wFc/1/Z+cjgL0rJ4G+boNp1uW/mJvxClE7j6u7I9tW8f6vtM8nDH36fbtfdqbkfJ/7dzLJPnmXPqiWXPHIJjoihxw2T6TnqPjxMnprb0pPFYuGDKUM4uuEXlWFfAp5UGVAvkgCoJYO/KCWDvzaNOvdl0rRfMBjd50llUUE+zw+KIiej+oWZDEYjj363n5CoWE19+HveNJa883Cl2xnrNGnHxKk/Ehgepak9vaWdTWLa+I5knjmqKqQFGAr8pCqgXuQRgDoy+ItSMvhrd/bEQaCYhh2u0Lsryhg9PMjPzuTQ1pXVvrZ5z6F0u+4OTe2v/e4jFr45hWKLpdL3ZiQnsPvvH+lw1ThMZi9N7erJ28eXqBbd2PrzVxRbtB1aVcIADALmAdoOwtCZJABqyOAvSsngr86hbX9Tr0VnwnWuwqdSvRad2fHHt2SnVf0MBVB2cdcAACAASURBVC/fACa88T0+gSE2t5t8fD9f/O+aalVdzE5LJiP5tMsfJhQWWZcinxAOrbN9/cVFfIAeWIsEKckq9OA+c2v6kcFflLLz4J8E6FOGTifFFgtznhlLaoKy6VvdmX38Gf/GwiovcvT09mXCmwsJrdNAU7u/f/4yhTYcm7v5p5klszGubcDou2l0+UiVITvh4rUBZAZAGxn8RSk7D/7bgM7AC8BSYDeQBQQDVduU7qIK8nI4smMNHQaPw+jhHrcsv+BwWve9gbPHD1ZYGKhOk/bc8vYSYlpoK5NcVJDPvOcmUFRY/SqExcXFBNWuQ2zrHpr6oDsDNOsxkK1/fE9uevUKOVWgE7APUHYKkSPJIkDbyeAvSjlg8L8SKG/OOBpoAbQEmgOtgKZYzzZ3tBzgQMmrNtBNVeDuIyZzzf/eURXOaRzfs4mtS+dwcu9WstKS8TR7U6dZB1r0GkqjLv2VbMlLOPAPU8eUc0+pgha9hzH+je/L/LPjuzdybOd6Uk4fw+ztS2SDFjRofxm+QWE2t2dPR/bt5ONJXSnMzVIVMhPoAuxSFdBRJAGwjQz+opTOg39FgoF6Ja/6QAzWQTnkopf/ee+/+J6QifWxQxrWZ52pwBkgseR1suTXo1gH/RP8t0c6ANgANLGh72Ua8+LXtO03SlW4GuPApuV8fNeVNl9fq34THpq/+4Kv7V27lB/feYiEA/9c8n6T2ZsOg8cx6O6X8Q0Mtblde1n5w2x+eHGsypC7sc7QZaoMam+SAFSfDP6ilBMP/s6iFbAW8FURzOzjz5Qv1lE7tpmKcDXGsZ3reffmrjZf7+Fp5qW/sjAaPSjMz2PxW/ez9ruPKr0uqFYdbpn2k9Md8lQMzHrpbnYs/lBl2DnAGJUB7U0WAVaPDP6ilAz+VbID0F65pkR+TiZfPXYD+TnKpm9rhODIepquLyrIJzXhKKmnj/HRHZdXafAHSEs8wSeT+zvdIk4DMOqhqdRq3FFl2NHA3SoD2pt7rKhxDBn8RSkZ/KtlG9Z1Ch1UBMtKSSQl4SitrrhWRTi3kZ+TRXb6WTy9vC8pnmT28eOv2VNtWgT4Xwx/vn31DpKO7q12v5JPHKBt/9E2t20PHh4m4jv3Y/PPX1GUn6MqbF9gGdZHYU5PHgFUjQz+opQM/jbxBlZhraWuhKqyuK4s8ehe/p47jZ1/LiI96SQARqMH9Vp1peXlw+kweBx+weEAvD22PSf3btWtr/fP2kJUoza6tV+eTX8uYf4jwygurrw4UhUdwZrsOv3PsMwAVE4Gf1FKBn+bFQK/AeOwFlHRbP+G32nSbSCBtaJVhHMpxcXF/Pbpc3z91BiO7lxHXnbGBX+WevoYe9ctY9X8dzhz5F/8gsNJOrafM4f0W6juGxhGfKc+urVfnujYxqRl53NiR/WrM5YjGOvalzk4+aFBMgNQMRn8RSkZ/JUYCixC0b0nJCqWe2dudMqV5vb07Su3s27h9Gpd42HyrLT+vz0163EVE6f+oFv7FSmyFPHenQM4sfUPlWGfxlq3w2nJIsDyyeAvSsngr8wPwOuqgqWcOsy8Z8dXqba9u1i/+LNqD/6AroM/QG5Wuq7tV8TD6MG4l2bjG6Z0NukZrGsCnJYkAGXTcfAPksHfycjgr9yTwApVwXavWsLyma+qCufUCnKzWfbx03p3wyZevgF6d6FCIeER3PDCXIzq7r8ewGygjqqAqkkCcCmdB39ZluFMZPC3i0KsW6ZOqQq47ONn2L9R6fStU9q9agnpScr+2hyqbjOlW+7sonmHnvS6TWkyWRvrqYGeKoOqIgnAhWTwF6Vk8LerBKxJQNWPpquAxVLE10/dWLoS3l3t3+CaSY7BYKBN3xF6d6NKBo+/nwY9h6sM2QN4TWVAVSQB+I8M/qKUDP4O8SfwhKpgmWdPM/uJ0dU67tbVuGqC07z3MCIatNC7G1ViMBgY++wMAqOVHkF9H3CdyoAqSAJgJYO/KCWDv0O9ASxWFezQ1pX8/P7jqsI5HYPB9W7ZgeFRXPvIB3p3o1r8AoIY8/ICPMxKdqyCddfLDKCRqoAquN53k3oy+ItSMvg7XDEwHlB24PxfX/8f/6wo++Q6VxcaHad3F6olOCKG2z9cTkBYpN5dqbYGzdrQ//53VYYMBL5B0bkYKtT00WcAsBA7DP4vTe7IozeXU/VKBn+nlJVdwJCJ3/D3huP2CL8N65YgGfwvlYt1V8AEFC2W2rP6Z1pePry0Cp67MBhg8y+z9e5GlTRo15tJ7ywlJKq+3l2xWWyzdpw8cYzE/VtUhYwA4oDvVAXUoiaPQAOx0+D/2n2dZfB3MemZeQwcO9+eg7988q/YaazHDA9VEayoIJ/D21fR4apxeJiccgG2TUKiYtn++wKyUpP07kq5DAYDl934P0Y9+yXefoF6d0cTA9C0Sz+2/7WEnJTTqsK2wnpWwGZVAW1VU0chmfYXpWTa32lsBhoASgrGZyQnkJGUQIveV6sI5xQMRiPh9RqxZenXUOycVWbbDxrLsAfedpvEy+TpScNOfdn800yKCvJUhe0P/IR1N4xuauJIJIO/KCWDv9NZBlyNdapUs5N7txASVY/oxu1UhHMKYXUb4hMQxN61y/TuSplO7d/OuoXTyU4/S1h0HD6BIXp3SbOA4FD8opuwe/kCVSFNWB8JzsT6CEwXNW00ksFflJLB3ykVAL9jXRjopSLg3nW/0rznEJdciFaeei27EhXfmoNb/iI/J1Pv7lwiPyeLw9v+ZtWC9zixZzMRDZoTEKokp9NN3YbNSE7L5NTONapChgLNsBYK0kVNGpFk8BelZPB3asnAfmAECg4NshQVsm/973S8ahwms/Iff93Ujm1Gt2vvwC84nJSTh8lOc8Jvt+JiEo/+y/pFn+LlF0D9ll317pEmTTpdwa71K8g8c1RVyKZAFrBaVcDqqCmjkqz2F6WysgsYerOs9ndyu7Aeq6pkxMhJP8vpQ7to028UBoP7HILq4Wmmfqtu9LhhMs16DQEMnDm06//bu+/4qKr0j+OfJCQhDQgWLIAV+ypItVcQ29oRlW7vursWFAXLz7a7uogFQSwUKSoqKkVgQUBaIKBI74aeQHqbycz8/rgE0YVkMnPu3Cnf9+s1L4kz85yTEOY599xznhN2xZB8Pi9r5k8hpUEjmkfwICAhIYGTz72S7Mmf4TY383IJVlGszaYC+isWMpNW+8s+Wu0fUf6L9fNsZiJY7m9rqJ+awTFnnmsiXNhpcOhR1EtMZMXsb3FXljvdnQNau3A6Z1x8A+mND3e6KwFLSUsn88RW/PrDKFMLMeOx8tQoIKT3c6I9O2naX/bRtH/E8WItCuwOpJkIuH7xTE5scwmNjmhuIlzY8Pl8TP/oZb549R7cFWVOd+egfD4vxXt2ctblXZzuSlCOaHoc5d56/LbE2NkMGUAbrEFAyM62juYMpeQv+yj5R6wiYClwBwbWA/i8XtbM/4Gzr+xGUoqRMYXjKkqLGNm3Cwu+GhK2WwP3t2fbBs7v+ij1Eo2s8XRMi1bnsfbXxRRuXWsq5LFAEtYi2JCI1iyl5C/7KPlHvOoywZeYCFZZVszW1Uto1fmOiKytv7+ywt0MfagTG7J/dLorfvN6PJx63lURPwsTFxfHqed0JnvqOFylBabCnodVD2ONqYA1iezf/gNT8pd9lPyjxsvAZFPB1mVNZ+qQAabCOWbsi73Zsmqx092os+I9xqrqOSqjUWNue3ksCeZmM+KAT7HKBdsu2gYASv6yj5J/VPFirQUwtv/qv5++yqq5E02FC7nls75h5ZzvnO5GQCK9RPD+WpzZlksfetNkyEzgc2zIY38WTQMAJX/ZR8k/KuUBXQCXiWA+r5cx/XuQvyPku6+MmPv5u053ISBxcXEcfuypTnfDqI633s/Jl91hMmRr4D8mAx5ItAwAlPxlHyX/qLYA+LupYGVFexjZtwtVLmM13kPC43axcekcp7sRkKNOaknDw5s63Q2z4uD2foPJbH6ayaj3Ys162SYaBgBK/rKPkn9MeAeD5VNzVmTx7UBjY4qQKNy1hSqXYyXkg3Jp72ec7oItUlLTuOPVz0lMSTcZ9n3gDJMB9xfpAwAlf9lHyT+m3A2sMhVs3hfvWSfsRQhPmFX689cZl9zIGRff6HQ3bNP8xFO58okhJkOmAV9g1QkwLpIHAEr+sk9xqUvJP7YUAzdj1VE34stX72PnxhWmwtmqUZNmxMc7+xl06vnXkJLh/0l/Ldp1pGv/T6KqFPOBnH91V866/iGTIU8GPjQZsFqkZjElf9mnuNRF5+7jlPxjTy5W/XQjl5SeKhfrF82gzTU9SUhMMhHSNgn1Elk1dxKFubb8zvul0939ufmZIRzWrAUl+bkU7sw54OvqpzWg493Pc8OT70bVYUw1Oa3DZSybO5XSPGN/P6cD+VhrYIyJxEym5C/7KPnHvGXAEVhlVINWWpDHnm2b+MulN5kIZ6+4OFbM/jbAt8aRkpEZ1DqCI1ucRYu2l3HUSS1p99c+tLziNg45+jgaNWnOoc1b0KLt5Zx/26Pc8OS7tGh3OXHxkTzhXDfxCQmc2L4TiyeNwGPuXIbLgGmAsYNMIm0uxtZT/Z65q+WBn1TyD0ulZW6u7v05P84/8JVHkKpP9cuzI7gYlQzMwdAgAOD6JwZx7s0PmgpnC6/Xwzu9O9S5EFD9tAbc8tww1mX9l3lfvh9w+62v7smtz38c8Ptjwc/zpvPZ3zrj83pMhdwCnI01+xW0SBqS2Xqqn5J/ZCkuddGp21g7k/9lKPlHikrgFmCPqYDfDfwHOcsXmgpni/j4BLq9MpaGhx3t93uOOOEvPPJpFn+55CYOaXpCUO3n5RirgR+1zjrnMtrdYXTXQ1NgJIZyd6QMADTtL/to2l8OYBPQAzByGk6Vq5KRz9xKWWF4/xo0Pvp47v/gR5qf0aHG18XFx9Phhnt5aNhcDm3WAoBDm50YVNvlRcbGW1Hthvv707R1R5MhOwHPmwgUCZlNyV/2UfKXGqzFOk3tAhPBKkoK2bH+V1p2ui2sV66nNMikzTU9Ofy4UykvLqAkfxeeKjcA6Y2bcOZlt3Bz3w9of8M9f1jc6PVUBXULILVBY87rYnS1O4W7trB97c/s2bqBuPh4UtIbGY3vhLj4OE4+pzPZU8bgLisyFfZCYD6wPpgg4ftbbVHyl32U/MUPCcBUDJ0cCHDFvS9yWZ9+psLZzuuporKsmPiEeiSnHnz7uMft4vnLG+OuKAuonVPOvYo+bwV/FoG7spz54wcz94v32L3lj/nskKYn0P66u6zjgyN8B8HK7Ll8+vAlePcOzgzIw1oPEPB90HDOcEr+so+Sv/jJh3Vq4O0YKp6yccksjjnzXA45+ngT4WwXFx9PYnIK9Wo5oS4+IYEN2T+yZ+uGGl93MOfcdB/H/OWcgN5bLXfzaoY+3InsSSMpL8r/n+fLi/JZmzWdn6eNo0W7jqQ1OjSo9px02JHNcCU2YFPWFFMhU4FzgBFAQKsMw3UNgJK/7KPkL3W0E+gKGCmX5/V6GP18N0f33NvlvC6B7XRITs3g7M7dgmo7f/smPnjgMnas/7XW1+blrOX9ey9k95Z1QbXptCu7PcIJF95sMmQH4J+BvjkcBwBK/rKPkr8EaDbQ11SwkvxdjHq2675769Hi1POv5eRzOtf5fZ3uGUBa5mEBt+vz+Rj7Ym+K8rb5/Z7SgjxG9bsdn9cbcLtOi4uPo3v/D2nY9CSTYR/BOiWzzsIt2yn5yz5K/hKkecBZwCkmghXszMFVXsrJHa4wES4sxMXFcXL7TqyZ/wMle3b69Z621/ah8wOvBLUwctVP3zPj09fq/L6ivG0ceeIZNDnO6Kl7IZWYlEyzlhexdOJwvB5jA8rOwHjq+HkWThlPyd8BubvLWLB0G8tW5bF5ayE7ckvJL6ygrNyN1+sjPj6OevVCP1Gk5C+GTMY6M6CxiWA5yxdwxAmRnYD+LCkljZadulKwfTM7Nhx8Or5eUjKd7/8/rnrotaB3RUwZ/FzA5y5UuSpo2em2oNp3WuahTUjIPJq1c74xFTIZuBgYDvg9qgiXXQBK/iH23fT1vPLOPBYs3YbXW/PW6YSEOBqkJ9MgPYm01CTSUhNpmJFMRpr157TURBo1qE96WiJpKdbXmQ3rW8+lJJGeZj1f/dqMtJrrrCv5i2EtgblAiolg9dMa8MinWfv200eT35YvIGvCx2xeNpfCXVuAOA475mRatLucc266jwaHHmWknVevO478HZsDem9KRiYDpuYdcBDiriwnZ0XWvrUCjY8+nmantiHJ7BG9RviA4S/ey/Lvh5oMOwKrHoZfwmEAoOQfQhWVVdz91GRGfrXc0X40zEjeNyD4fXCRSFpqEqvX72bpil12NKvkH7vuxOCJakeeeCYPDZtLYv1UUyFjytPnJuEN4kjjft9v+cNgpLw4nx+GDGDxxOFUlBT+4bWJySmcfWU3Ot49gAaHHhlwm3aorKhg4J3nk7cu22TYrsBYf17o9ABAyT+EvF4fN9wznglTI3slbYCU/OUjoLepYG2u6UWX5z4yFS6mPH9pIypKAy+Kc9/gmRzf6kIA1mVNZ3T/7hTv3lHje1IbHsIdL4+mRbvLA27XDttzNvBurza4SgpMhdyNte6l1lLmTu4CUPIPsf8MW6TkL7HsQazfBSMWffcJC7+x5Zj2qNegDucXHMjuLevw+XzMHP46Hz7SudbkD1BWuJtPnriezb/MDapt045sdjzXPfuJlZvMOATwq3KVU1lQyT/ESkpd3Hz/15SVG9kaHUmU/KVaFTAd6x6pkc+eNQumcsp5V4Xd1HK4W7PgB3J/WxPw+xsd3oysCcP46fN38Pn8P/7BW+Vm49LZtL/+buIT6gXcvmlHH3cye4rK2b78J1MhzwaGASU1vciJTKjk74DvZ6zn43HLnO5GqCn5y5/tAdZg7ZsO+pLL66liXdZ0Wl/Vg8TkyC5VGyyvp4qlP4zmhw/68/3bTzD5/X7M+/I91mZNp7KkkEObnUhisrUOM2fFIn77dX7AbeWsyGLXplUBvbesaA+NjmhG01NaB9y+HU5tezErFs2iZGdgiyP/JAEoBn6s7UWhpOTvkA/H/My8bP+LbkQBJX85mJVAA6wyqkErL8ond/Nqzrq8S1gfGmSnrauzGfpQRxZ8PZTczaupLCveeyZBCbu3rGPV3In8NHYQeTnryGjcBI+7klVzJzrW38rSItpc08ux9g8kPj6eE9pfwZLJn1FVUeOFu7+OAQbW9IJQZkQlfweNmbDSrpX14UjJX2ozA+vAoOYmguVuXkVyShrHnnmeiXARZX32TIY81JHivO01vs7rqWL72p/JmvAROSsWBnwIkQllRXu4pOfTYTdgS0vPIP24NqyaNgqfL+iKh5nA11ilsQ8oVIsAlfwd5vFEbvnMOlLyF3+4sbZLGRsVT3rvWTYsmWUqXEQozN3KyL5d6pzMSwtqXaBuq8qyYqpcFY724WDO7HARrXq+bCpcjadihmIAoOQfBtJrKb4TJZT8pS62Yp0aGNBJan/m9VTxWb/b/C6pGw2mffii48k8EPEJ9Wo9LdEpyQnQruuTNGt/rYlwbWp60u4BgJJ/mKit+l4UUPKXQEwH+psKVpS3nVH9bsfrNTKmCGuu8hIWTxzudDcCcuSJZxIXH45n4VnSkuK44B+fknZo02BDnVjTk3b+BJT8w0hGelQPAJT8JRivAsZWpK1fPIMpg583FS5src/+kSpXpdPdCMjpF/3V6S7UKDneR1J6Jmfd/lywoWosuGDXAEDJP8xE8QyAkr8Eywt0B4zsvwKYOfw1Vs75zlS4sFSw3diPK6Tqpzekw433Od2NGiXtTWFHtrws2FBpNT1pxwBAyT8MRekaACV/MWUPcAtg5JLW5/MxZkBP9mzbaCJcWIrU2xzX/X0g6ZmHO92NGlWfzxYXF3SKrjEhmh4AKPmHqSicAVDyF9OygL+ZClZenM/Ivl0idpq8No2OMLKDMmTi4uK45tF/0foqvw/Lc0x1bcOdy+cEG6qwpidNDgCU/MNYlK0BmImSv9jjPeAzU8G2rFrMhLceNxUurBzf6kIS6iU63Q2/JKdm0O3VcVx4u7Hxna0qPOAuL+Hn0UFvB6xxm6upYshK/mEuPTXoAcAm4GYgA+u+UhrQCEjf7+vM/f6cvvf56q8zgIYEN+jcA/wL+CdWXXcRO9wLtAROMxFs/vjBHHvmuZx9ZTcT4cJGSkYmf7n0Zpb+MNrprtSoyXGn0f21Lzj82FOc7orfcnds54f+N1G0NfDzEvaqsV6yiQGAkn8EMDADkAgsNtCVFKwBQYO9j+oBQkMOPLgAKADmY1VvKzXQB5GalGANdhfy++9gUMa/fj9Hn9yKJsefbiJc2Oh830usnPMdlWXFTnflgA4/9hQeGDqblIxMp7vit7WLZjCm3+2U5xupJ7GkpieDrYOo5B8h1m8u4MQLPwgmRBFWkhaJFbdh8HbA4ceewsMfLyA5NcNUyLCwYva3jHj6ZjxVbqe7ckANDj2KdtfdSbu/3hnW6xZ8Ph8zPn2VKR/0x2dugWUrYOnBngxmAKDkH0F27S6jydmDggnhxZox8v/sTZHI9w7woKlgZ3W8lTteDu8p80BsWDKL0c/dQWHuVqe7clDx8Qmcct7VdLz7eY4++Wynu/MHZUV7GPtCL9NbR7dgnXVx0M/sQLOokn+EiYuDV96ZF1QIrHvv4TnMF7HHdKATtRRU8dfODctJbdiY5qe3NxEubGQeeQzn3HQ/qQ0ak7dlHeXF+U536X/4fD5yf1vNwq+H4q6s4MQ2l4bFYUBbVi5iyEMdyVmx0HTod7B+fw8qkO9eyT9C1Tv+DTyeoC7gjwR2GOqOSKQ4Bmv9yyEmgiUkJnH/4Jk0P6ODiXBhx+f1sjZrGvO/GsLK2d+G7a2B9tffw019Bzvah/njBzPhrcft2CrqBk7CWrx9UHVdkX0xSv4Ry0AtgOi6eSnin81YlQKNHKnpcbsY+cytEXmIjj/i4uM5qX0nbnl2aFgfj7zg6yEsmTzKkbZd5aWMGdCD8a8/YFediOHUkvyhbgOApsAXKPlHrIz0oE+/0gBAYtUk4BVTwQp25jC6f3d83ug8pnv72p95u1c71mfPdLorNZr8fj+8ntDuKN61aRWD+nQge9JIu5ooAgb488K6DABextAU2P6U/EMnPTXooh1GtkSJRKgB1HJPtS7WzJ/CtI9eMhUubGRPGsE7d53H7i3rne5KrfJ3bGbj0tkha+/nqWMZ1Ls9Ozcst7OZvlgLAGvl7wCgEdaWGKOU/EPLQC0AzQBILPMAtwPGlrpPG/YSaxb8YCqc42Z8+hpjBvTEXVHmdFf8tnFp0OV2a+Vxu/jm348yqt9tdtdM+BJ4398X+zsAuAgwWktWyT/0tAZAJGi7gFsxtBvG5/Uyun93Cnf5dcEW1pZOHcOk955xuht1VpS7zdb4BTtzeP++i/lpXFDbsP2RDfSmDlu1/R0AHB9Qdw5Cyd8ZBk4E1C0AEfgJeNpUsNL8XEY+c2vYrpb3h6u8hK//+bDT3QhIYv1U22KvmT+FgT1a89uv821rY69lwBVAnaYX6nILwIiak3+8kr+NNAMgYsxbWNOtRmxeNo/v337SVLiQWzxxBGWFkXk216HNTjQe0+f1MnXoAIY9fnUodntMBy4E6tyQvwMAI0Ok2q/8Gyj520hrAESM8QF9gLWmAs4ZO5Bfpn9uKlxIrVkw1ekuBCQuLo6Tz+lsNGZpQR7DHruKqR++GIpdHgOBK7HOS6kzfwcAKYEE35+m/Z2nGQARo4qwDg0qNxXw85fvInfzalPhQmbXxhVOdyEgZ1xyE42POs5YvM3L5jGwR+tQLOwsBroAjxHEepSQDAAevPU0Jf8woDUAIsb9AjxgKlhlWTEj+naJqFX0AG5XhdNdqLPUhodwzSNvGIs3Z+xABt9/CQU7c4zFPIhfgbZA0NNFIRkAnHr8QZYQKPmHlGYARGzxCTDMVLAd65cx/nVjY4qQaHh4U0fbP/zYU6if7v9hpfXTG9LjtS/IPPLYoNuuLCtm1LNdmfDm43jcrqDj1WI40B4wMk0UkgFASnK9//2fSv4hpzUAIrZ5iBqOXa2rxROHs+DrIabC2e4Yh881OK7lBfT7bgs3PzuUZqe1rfG1x7e6kIeGzeP4sy8Kut0d63/l7V7t+HnauKBj1aICuBfoCRibHjpAZj6goBYBpiT/Kckr+TtClQBFbFOBtR5gEYZ2TX3z78doemqbsDu69kDaXNOT2aPfwucL7LCxeknJQdXEz8tZR1JKGu3+eift/non29YsZfmsb8hZnkVpYR4pGZk0Oe40Tr/oOo5vdWHA7ewve9IIvnzt/lDcrtmI9buVbTqwvwOA4GYA6u/XTIwnf4/HR0FRBYXFlaSnJZGWkkha8InZL5oBELHVeqxCLOMJ7KTVP6hyVTCibxce/TSLlIzMoDtnpyNO+Autr+7Fou8+rvN7W3W+gxZtL2PcS30Cbn/3lnV/+Pqok1py1EktA45XkypXBRPefJz5X31gS/w/+Rbrqt+W85VDMwCongGI4eS/cOl23vwwi6mzN7Kn4H8XzGQ2rE9aaiJpKYmkpyXRqEGy9XVqEhlpSTTMqP46kQbpSTRIT7YGEPt9Xf18w4wDH/qTkabDgERs9jXwL+AJE8H2bN3A2Bd60/OfX4XF2fU1ufaxf7NtzRK2rfHvTkhCYhLXPvovzr3lIbauDu7itjB3K+7KchKTg96wVqM92zYysm8XtqxabGs7QBXwHPA6dajsV1chGQCk1q8Xs8nf5fbw8PPTGPJZzf8o8gsryC80t5I2Y+/gIC01kUYN6pOelojLFfSeVA0ARGr3DNABuMBEsBWzJ/DjiDe4uMdTJsLZJiWjEXe/PYXPnu/G2oU11wU4pOkJ/nGwhgAAEP5JREFUdO3/Kcecee7er4MrxuPzeiktyKNRk2ZBxanJitnfMvaFXpQX23Ixvr8dWGfvzLS7odCsAahfLyaTv8fj47q7xjN55oaQt11c6qK41PiKVK0BEKldFdAV655tExMBJw9+juZndDCycM1OaZmHcdfbk/l56hh+GvcOOcsX4vV69j1/WPOTaPvXPpzX5eE/XK3XT2tAeubhlOTvCrhtr02llL1eD1MGP8fM4a8HvMahDmZh/e5st7shCNUtgJSkmEv+AP3fmu1I8rdROta9Tdv/FYhEuG1YV3FTgaA//LyeKkb1u43HRmSTccgRQXfOTnFxcbTsdBstO1kn3+XlrMXn85HZpDlpmYcd9H1HnHAG6xb9N6A2E+ol2rIVsXj3Dj7rdzvrs2caj/0nPuCfwLNYA8iQCM02wPr+jjOix7adJbw5NMvpbpiWgKGy0CIxYAbWfVwjinfvYFS/2/B6QpYfgpacmsHRJ59N01Na15j8AY5rFfgdk2antych0eiBtWxYMouBPVqHIvkXADcATxHC5A9O1gGIcp99s4Lyisj5h1oHWgcg4r/XgO9MBduQ/SOTBxsbU4SVttf2IaFeYDui2l93p7F++Hw+fhz5T4Y8eDlFebbPxC8B2gDf2N3QgfgzAKgHBDW0Sg3RNrdwMmPub053wS5aByDiPx/QA2svtxE/jniDFbMnmAoXNho1acYFtz1e5/c1PbUNZ1/Z3UgfyosLGP7kjXw/6KlQzLR8CJyLtX3UEf4MAILeV5FSP/YGADvzSp3ugl00AyBSN/lYB7cEXulmPz6fj7Ev9GbP1qhaXwTAFfe9RIt2Hf1+fcPDjqb7a58TF+/vZPbBbV29hLd7tWX5LNsvxsuAXsDdWAWkHGP7ACAhPo6kxOD/ciKNy+2p/UWRSQMAkbpbhHVymxHlxfmM6NuFqgg8hKcmCfUS6f3vCbS//u5a6x40P6MDD3w4h8wjjgm63YUThvHuXeexe4vtF+NrgXOAT+1uyB+2DwBSqmsAxJi0lKid9Qi6mpBIjBoMjDQVbOvqbL7596OmwoWNeknJ3NT3Ax4cNpfWV/UgPfPwfc8lpaTRol1Hur0ylgeHBp/83ZXljHupD1/8392hGEx9iXW//xe7G/KXP6vzzBQBijEGyu6GqxKnOyASwe4DWgGnmwi24OuhHHvWebS+qoeJcGGl+entaX56e8A6cc/rqSIpJT3ghYJ/lpezlhFP38L2dbbnYzfWCv//EGZbqP2ZAQj+IKDYy/+kp0blAMALrHG6EyIRrBTrYJdiUwHHv/4AO9YvMxUuLCWnZpCSkWks+f86Yzxv92wbiuS/FbgEeIswS/4QqlsAMTgCiNIZgCxgt9OdEIlwq7AWgBnhrihjxNO3UFFaZCpk1PJUufn2P39nRN+Q/LymAWcDP9ndUKDsHwAkJ8TkLYD0tKhcA/CG0x0QiRJjgUGmguX+toaxA3qGolRtxCrM3coHD1wa1LHFfvJhHeLTGQi8tnEIhGAAUC8WJwBMnLwXbr4FvnK6EyJR5B/AfFPBls/6hjljB5oKF1XWZU1nYPfWbPrZ9ovx3cDVwNNA2G8Fs30AkBqrtwDSouoWwFygG2F4D0skgrmw6gPkmQo4cdBTbF42z1S4iOfzepn+0ct8+EjnoA4a8tNCoDUwye6GTPFnF0CQJwEmEIsDAAO3AOYCHwNpex8N9j7S//R19fMNsfbom6y7XAG8A/TDUBETEfmDHKzB9UT8L81+UJ4qNyOfuZXHhi+utfZ+tCsr3M2YAT1ZNXdiKJp7F/g7EfY5afs2QOsWQOwNAAwsAtyNVSqyrpKxBgSN+H2wkAZk7v1v+p++rv5/jfb+2QXsAX7E2re6NZhvQkRqNQV4CehvIljhri189nw37ho4yUiFvEiUsyKLkX27kL9js91NlQD3AKPtbsgOts8ApMbgSYBgZBtgoDX3K/c+9gTbAREJmReB9lgLx4K2duFUpn74Ip3uGWAiXERZPHE441+7H3dlud1Nrcba0vmr3Q3ZJQTbAGO0DkDwtwBUclckdniBO4BNpgJO//hlVs2NmNvRQXNXlvP5y3cx9oVeoUj+o7Gq+kVs8oeQ7QKIvWkoA7sAdOqeSGzZA3TFug0XNJ/Xy5j+3cnfvslEuLCWu3k1g3q3J+vbj+xuqgprhf/tREFV1BDVAQgmQmQysAZAMwAisWcB8KSpYGVFexj5bFeqXBG1Nq1Ofp35FYP6dGDHetsvxnOAC7D2+EeFEFUCjD3pqboFICIBGQiMMhUsZ/lCvh9kbEwRNryeKia+25fhT91ERUmh3c39F2vK31jdhnBg+1kA1mFAMXgLIPgZgHRicu5ERLAODVppKthP4waRPcnYQYSOK9iZw/v3XsTM4bZfjFdX9etImFf1C4RuAdjEQCGgeIL82YtIxCrBKhJUairg+NcfYOfGFabCOWbdov/yds+2oSh4lIe1K+NprEWaUUe3AGySUj+RhISgRz66DSASu37F4KFBrvIShj91E5Vlxg4iDCmfz8fM4a8z9OFOoajql4U15f+D3Q05KUTHAcfeLYC4OEhLcawWgIhEh9HAEFPBcjev5stX7jUVLmRKC/IY9thVTHy3Lz6v7RfjQ4DzAdurCDnN/rMAUmJzBgC0E0BEjHgEWGwq2NKpY5g/frCpcLbLWZHF2z3bsmb+FLubKgZuBe7F0FbMcGf/LYCk2B0AaCeAiBhQCdyEVR7ciAlvPc6WlYtMhbPNgq+H8N49F4SipO9KoAMwzu6GwonWANjI0E4AEZHNQC8MnchZ5apk+NM3U1ZobExhVGVZMaOe7cqXr96Hx237xfgIoC0Q+Ssk68j+NQCxfAsg+J0AmgEQkWrfAW+YClaw4zfGvtArFPfU62TXppW80+ccfp5m+8V4BfAY0AODuy0iSQjWAAQ9DR6x0jUAEBGzngWmmQq28qfvmTH8NVPhgpY9aSRv92oXiu2KvwEXYRVdilmhOQsgRhmYAdAtABHZnwfoBmwzFXDKB8+zduFUU+ECUuWqZMKbjzFmQA9c5bZfjH8LtAQW2t1QuPNnAFA/mAZSYngGQLsARMQGO4FbALeJYD6vl9HPd6cwd6uJcHVWsOM33r/vIuaMfdvupqqAF4DrgXy7G4sEtQ0AkoGEYBqI5UWA6amaARARW8wFnjMVrCR/FyP7dsFTZWRM4beVc77jrW6tyFlu+8X4LqyqfgOI0qp+gahtABB0KdpYvgWQnqZtgCJimzeAr0wF27xsHpPf72cqXI28Xg9Thw7gkyeup7zY9ovxWVhT/tPtbijS2DoASEqMJ6FeUBMIEU3bAEXERj6gD7DeVMBZo/7Fshlfmgp3QKX5uQx79Eqmfvii3TsQfMDbwOXAdjsbilS1DQCCLANcLyYPAqqmbYAiYrMC4Eag3EQwn8/HuBf7kLt5tYlw/2PDklm81a0laxca28hwMEVY6yQexdBaiWhk6wxAav16xPIIQNsARSQEfsFKdEZUlhUz8plbcVeUmQqJz+djztiBDH2oI0V5tl+MLwHOBuydyogCtg4AUuonEMsDAG0DFJEQGQp8YirY9nW/8M2/zYwpKkqLGNm3CxPefDwUiwxHAOdh8LZINLN3ABDrtwC0DVBEQud+rKtfIxZOGMai7z4OKsbW1UsY2KO17esKsKr63YVV1c/I7ZBYYPMagATrXNwYpW2AIhJCFVin2RWaCjj+9QfZujqwMcXiicN5754L2L3F9ovxNUB7YJjdDUUbm28BxO4WQDDy/WsGQETqYi3WlbARVa4KRj3blYoS/8cU7ooyxr7Qi7Ev9DK6juAgPgfaYK2DkDqyfxFgjM4AlJa5efC5H4INowGAiNTVF8B/TAXLy1nLmAE98flqP4gwL2ct79x5LosnDjfV/MFUAU9jzXgU291YtLJ5DUBs3gIoLXNzde/P+XF+TrChErGqMYqI1MWTwBxTwVbMnsDs0W/V+Jrls75hUO/2bF9n+8X4FqyDfF7H0PHIsUq3AAwrLnXRqdtYE8m/WlDrMEQkJrmB24BcUwEnvduX5bO++Z//73G7mPDm43z6xA2UFxeYau5gfsDa4jfX7oZiQW0Z2sAMgD/nDUWH4lIXnbuPY+5io4dq2H4TTUSi0hbgDmAy/h38ViNPlZvhT95Iq853cMZF15PSsDE7Nyxn7ufvsWvTyqA7Wwsv8BLwIqrlb0xtAwBVAvSTTcl/J1BpMqCIxJSpWCfgvWAimM/nI3vSSLInjTQRzl95WEcgTwllo7EgBIWAop9NyR90eIWIBO9lrFmASDQfa8pfyd8GttYBsHYBRPctgNIyN9f2+cKO5A8w2I6gIhJTvFi3AjY53I+6GoK12M/Ygir5o9puAdQPJni43wIoLXPjcnsoLnVRVeWloKgSr9dHQVEFHo+PopJKXG4vpWUuKio9lFe4KSuvotLlobi0kqoqH/Oyt7JslbF1Nvv7DJhtR2ARiTl7gK5YR+MGXaHMZsXA3cBYpzsS7WxeA1C3swDKK6qoqKyipNSFu8pLUYkLj8dKzB6Pl8LiSqqqvBSXuqh0eSgrd+99j4fSMhcut5eikko8HiuJW8n89/e43B5Ky9xUVFZRXlEVzLdmt2zgHqc7ISJRZQHwD6wjcsPVcuBmYJXTHYkFtu4C+GLaJhauKdqbzK3EnF9oJebC4krcVV5K9kvmAsBSoBNQ6nRHRCTqDMI6LOdWpztyACOB+9BnX9iYhFVoQY/QPJYCh/r1NyMiEph0rCttpz/vqh8VGDzOWMyZgfO/HLHyWAIc4t9fi4hIUE4HSnD+c28jVi1/CUMLcP4XJBYeuvIXkVC7EfDg3Ofed0Bj279LCdgvOJ8co/2hK38RccpjhP4zrwp4hrDeIyZgHS3pdIKM5oeSv4g47UFCNxOwA7gkNN+WBGsLzifJaH0o+YtIuLgaq1aAnZ95M4GjQvT9iAG7cT5RRuNDyV9Ews0xwPeY/7wrA/6GgQOJJLSKcD5ZRttjKUr+IhK+rsO6SAn2s84NfAQ0DW33xRTdAlDyF5HYEwdcBoyi7heCq7BOHzw65L2WOqltFeY0rF8CCd7PWD/L3U53RESkDhKBc4C2wBlY9/GrL2SqsBb2bcS6wJkHrHGgj2KDv+H8VXM0PHTlLyIiEaUhkIfzCTSSH9/v/TmKiIhElDtwPolG2sMLzAe6oGIXIiIShvxNTn2B/6vD6yNNKeDCOoe6CijASuIFe78u3vt8KdbBFeUHeE8hVjGNHVj3wHaF9DsQERGpg7ok9GuBt4ATbOrL/sqASqzDKtxYq1A9QD5WYi7k98Rcuff15VjJuToxV7+nYO9/939PdTKvfo+IiEhMqesVfSJwJXAF0AxIwZryrk6yRVgJu4Tfr5T/nMwLsZJ4/gHeU53MRURERERERERERERERERERERERERERERERERERERERERERERERERERERERERERERERERERERERERERERERERERERERERERERERERERERERERERERERERERERERERERERERERERERERERERERERERERERERERERERERERERERERERERERERERERERERERERERERERERERERERERERERERERERERERERERERERERERERERERERERERERERERERERERERERERERERERERERERERERERERERERERERERERERERERERERERERERERERERERERERERERERERERERERERERERERERERERERERERERERERERERERERERERERERERERERERERERERERERERERERGLd/wNoXpH0GJ41YAAAAABJRU5ErkJggg==;" vertex="1" parent="1">
                    <mxGeometry x="208" y="-835.5" width="52" height="52" as="geometry"/>
                </mxCell>
                <mxCell id="59" value="" style="edgeStyle=none;html=1;labelBackgroundColor=none;strokeWidth=1;endArrow=none;endFill=0;fillColor=#C9C9C9;startArrow=none;startFill=0;" edge="1" parent="1" source="49" target="41">
                    <mxGeometry relative="1" as="geometry"/>
                </mxCell>
                <mxCell id="49" value="" style="shape=image;verticalLabelPosition=bottom;labelBackgroundColor=default;verticalAlign=top;aspect=fixed;imageAspect=0;image=data:image/png,iVBORw0KGgoAAAANSUhEUgAAAgAAAAIACAYAAAD0eNT6AAAACXBIWXMAAA7SAAAO0gFcPFpKAAAAGXRFWHRTb2Z0d2FyZQB3d3cuaW5rc2NhcGUub3Jnm+48GgAAIABJREFUeJzs3Xd4VMXXwPHvbjab3gMpEEgg9N47KtIFERUpSlPsiO1n772+KHZFURGkWQBFBQso0jtIkd4JJCG9J5v3jw2Rkrp3du/u5nyeZx8w7D0zQnLn7NyZMyCEEEIIIYQQQgghhBBCCCGEEEIIIYQQQgghhBBCCCGEEEIIIYQQQgghhBBCCCGEEEIIIYQQQgghhBBCCCGEEEIIIYQQQgghhBBCCCGEEEIIIYQQQgghhBBCCCGEEEIIIYQQQgghhBBCCCGEEEIIIYQQQgghhBBCCCGEEEIIIYQQQgghhBBCCCGEEEIIIYQQQgghhBBCCCGEEEIIIYQQQgghhBBCCCGEEEIIIYQQQgghhBBCCCGEEEIIIYQQQgghhBBCCCGEEEIIIYQQQgghhBBCCCGEEEIIIYQQQgghhBBCCCGEEEIIIYQQQgghhBBCCCGEEEIIIYQQQgghhBBCCCGEEEIIIYQQQgghhBBCCCGEEEIIIYQQQgghhBBCCCGEEEIIIYQQQgghhBBCCCGEEEIIIYQQQgghhBBCCCGEEEIIIYQQQgghhBBCCCGEEEIIIYQQQgghhBBCCCGEEEIIIYQQQgghhBBCCCGEEEIIIYQQQgghhHABBr07IISwuwCgXskrDAi96GUGPIDAMq7NBXJKfn/2vFdyya+ngGMlvwohXIgkAEK4Bx+gGdASaAE0BepjHfRDHNB+HnC05LUf+AfYBewAEh3QvhCimiQBEML1mIH2QJeSVyegAWDUs1MVSAI2A+uAtSW/JuvaIyGEJABCuAAvoDvQD7gCaFfyNVe2F/gb+K3kJbMEQjiYJABCOKeGwDCsg35vwFff7thVMbAV+BX4GVgJFOnaIyGEEMKBGgD3Yv1kbME6MNbEVxIwExiK9XGHEEII4XZigCeAPeg/8DrjKwX4FOhh61+wEEII4Sy8gBHAD0AB+g+yrvL6F3gWiK3uX7gQQgihp3rAa1hXwOs9mLryqxD4HuuCSCGEEMJpdcD6TFs+7at/7cG6bsKdF0kKIYRwIQZgCLAe/QfJmvA6AzwC+FflH0cIIYSwh77IwK/XKwnrOoHgyv6RhBBCCFUGA1vQfxCUl3WdxeNYSyQLIYQQdtEcWIL+g568Ln0dB27DetiREEIIoUQ08DHWVel6D3Tyqvi1Cdk1IIQQQiMT1pXn6eg/sMmreq8fgLqX/pMKUfPIWQBCVE9H4BOsB/K4DJOHkehavtSL8icy3IewIC/Cgr0JDfQiwM8Tb7MHPt4mADxNRgoKLQAUFlrIyC4gL7+I5LQ8zpa8klJzOXoqk8MnM8nJK9Tzf80WqVjXB3yMteSyEDWSJABCVE0A8CJwN078PDksyItWjUJp3iCElvEhNG8YTFydAKJr+WLysM9pwYkp1mRgz+FU/tmfwq6Dqfyz/yyHTmRQXGyXJlVZA9wO7NC7I0LoQRIAISrXA2shnwZ6d+R8niYjHZqH06VVbbq0rEXX1rWJqxNgvwYN5dwuyhnlUzPyWbfjDOt2JLJuxxnWbD9DSnqe/fpnmzzgaeBNZDZA1DCSAAhRPhPwZMnLKT71N6gbQN8udejbtQ79u9UhyF/DYXkGAxiNYPQo+bXk9wZDyZ8ZwGAsf+C/WHExFFvAUlzy+2KwFIHFAhYLlsJCtuxK5Le1x/lt7UlWbkkgL99pTv1dA4wFDujdESEcRRIAIcrWHJiFzs/6jUYDXVvV5torY7n2yljbP+F7eICHqeTXkpdRp5zGUgRFRWSk5/DT8oN8u/QAP/99lMzsAn3685904B6ssz1CuD1JAIS41E1YF4jpVl++fbNwJlzdiOv6xhFdq5rdMBjA5AmmkgHf5Fn1T/E6yckpYNmKA3z1/U5++OMg+QW6zsZ/CdwJ5OjZCSHszbnvCkI4lhfwFtabv8PVCvHmxsHxTBzWmNaNQ6t+oQHrp3uTJ5jM4GmyWx8dIelsDl8v2sXn87exdVeiXt3YBlwP7NerA0LYmyQAQljVBRYAXR3dcLumYdwxohljh8Tj41XFwdsAeHiC2QyeZuvzeze0aUcC02ZsZO7i3aVbEx0oHbgZ+NbRDQvhCJIACAE9sZ4vH+6oBo1GA8P7xHLfjS3o2S6y6hd6eoLZyzroO/m0vkrHT2XwwVeb+WjWVlLSch3ZdDHwHPB8ye+FcBs15w4iRNlGYH3m65BDY4xGA4N7xvD8XR1o1zSsihd5WD/pe3npt3DPSWRm5fP+zM28/tE6zqY6NBGYD4wHHNqoEPYkCYCoyZ7E+snO7j8HRqOBUQMa8NRt7WgaV8WTaj09wcvH+qu4QEZWPu9+vok3P1nvyBmBv4DhwFlHNSiEPUkCIGoiT2A61k90dndZhyjefLALHZtX4QmDwQheZuvA76bP9VVKTsnhhXdW88HMzY5aI7AX67HPUi9AuDxJAERN44V1OvdqezfUuH4Qr9/fmWGX16/8zQYjeHmDt5f196Ja9h1K4ZFXVvD90r2OaO4U0A/Y6YjGhLAXSQBETeKLdbFff3s24mky8sDYVjx3Z3u8zJU8szcYrc/2vX1q1KI+e1m+5ih3PL6UvQftPkufAgwC1tm7ISHspWavKBI1iT/Wo2D72rORXu0jWfLeAEYPbFjx4TsGA/j4gF9AjVvRb09xMUFMGtUGk8nImk0nKbLYbeG+DzAKWAsctlcjQtiT3HVETRAM/Ir1KF+7CPDzZOqDXblleJPKx3KzF/j4yjN+O9u2+wzj7v+R7bvtWkwoC+vjpD/s2YgQ9iAzAMLd+QJLgG72aqBr69r88sFA+nWtU/Hgb/IE/0Drs375xG93kbX8mDSqDUajgb83HLfX0cRmrFtJVwJH7dKCEHYidyHhzszAYmCAPYJ7mow8d2cHHp7YGg9jBT9KRqP1E7/Zyx7dEFXw59pjjH/gR46cSLdXE6nAFcBWezUghGqSAAh35QF8Ddxgj+B1avsx7/U+9GgbUfEbZbrfaaRl5DHhwSUsXLrPXk0kApcDu+zVgBAqySMA4Y4MWPf532SP4Fd0imLZR4No1qCCgj5GD/APkNX9TsTby8QNVzXFw8PAX+uO2eORgB8wDOtOk1Tl0YVQTO5Mwh1NBe63R+CHxrfm5SkdK17hb/YCXz8Z+J3Y0j8PMWbKYnuVE94FdAfS7BFcCFXkDiXczd3Ae6qDmjyMvPtoN+4Y0az8NxkM1oFfnvW7hP2HUxgy8Rv+tU/NgBVY157k2yO4ECrIIwDhTnoBs1H8fR3g58n3U/sxamDD8t/k4QEBQdaV/sIlhAb7MOaaFqzdctIeiwNjgWisi1CFcEqSAAh3EQf8BgSoDBobHcCKz66iW+va5b/J7GXd3lfRTgDhlHy8TYy+uhn7DqWwc2+S6vDtgQxgjerAQqggCYBwB/5YB/84lUEb1w9i+adX0TAmsOw3GAzg529d5S9jv8symYxcO7AJJ09nsvmf06rD98NaLVAODxJOR25bwtUZgG+xHtOqTKtGoSz7cBCR4T5lv8FotH7q96i5OXR2TgH7D6ey7/BZklNySEnLJSu7gOycQjKy8vH1MeHr40mgvxl/PzMhQd40ig0hPjaEkCBvvbt/ieJieOCF33n7s42qQydinQ04rjqwEFpIAiBc3RPAiyoDdmweztIPBxEaVM5iPg+TdYtfDdrbn5GVz98bjvPXumOs23KSfYdTOH4qw+Z44aE+xNcPoVObKHp1rkvvLjFEhPsp7LHtnnpzJS++u1p12NVYawQUqA4shK0kARCurCvWEqwmVQFbNw5lxadXERJYzuDvaQZ/f2rCj8723YnMWbyL3/4+zJadpykqstvBOgA0bRjGFd3rccOQpvTuHINRxzUVT7zxFy+/p/zR/VTgQdVBhbCV+9/FhLsKALYAFSzNr574mEBWfj60/Gl/s3fJ/n5VLTqfQ8fSmLNoF18v2mWPRXFVVicygJFDmzJmWHM6tIrUpQ9TnvmNd7/YpDJkMXAtsFBlUCFs5ca3MuHmvgDGqwpWp7YfKz8fQlydcjYReHuBj7+q5pzOph0JTJuxka8X7bL7J/3qatcigvtu6ciN17TAw8Nxt6ziYrj9sV+YPmebyrBJQCsgQWVQIWwhCYBwRTcA81QFCw/25q/Ph9AsrpzSvt4+1pX+bqa4GH74bT+vf7SOVRudf31ao7gQ/ndbZ8Zd1xJvL2VPfSpUVFTMDXct5Ltf9qoMuwi4RmVAIWwhCYBwNTHANiBERTB/X09WfHoVHZqHl/0GH19rAuBmNmw7xeSnf2X91lN6d6XaYusGMfXpPgwf0Ngh7WXnFHD5yDls2Kb072oi1lksIXQjCYBwNUuB/ioCGQww//Urub5fOeUDfHzA270++ScmZ/PYa3/y+YIdWCzONdVfXf16xfLOc31p2jDM7m0lJGbR5eqZHD2prGJgGtAaOKoqoBDVVXM3MQtXNBJ4RFWwJ29tx+RRzcv+Qy9v8HGObWmqfDp3G1ff8i1rNp+0x0l4DnfwaCqfzN5Kbn4RvbvE4GHHXQP+fmb69oxl9sJd5OUXqQjpDTQHZqkIJoQtZAZAuIogYDcQpSLY0MvqsfCtfmVvNfPyAl/3WfCXlpHHbY/+wvwf9+jdFbvp0i6aue9dTWzdILu2s2jZPobf9p3KBOoGYIGyaEJUg8wACFfxJnClikBNYoP46f2B+JS1kMxsBt8At0mNN25PYMDY+axc7/yL/LQ4kZDB5/N3EFs3kFZNa9mtnaYNw8jKLmT1phOqQvYEpgN5qgIKUVWSAAhX0BH4GNBcei/Az5Pln15FndplTO97elrL+7rJ4P/RrC1cf8dCks7m6N0Vh8jLL+Lbn/eSmp5H/95xGAz2+Ye8ols9Vqw9ylE1JwgGAGZgmYpgQlRHzallKlyVB/AhipLVaQ93o3H9MqaJPUzWg33cxDNT/+bOJ5ZRUGjRuysON23GRkZNXqzqWf0lTCYjc98bprJ08RSgpapgQlSVJADC2U3AOgOg2XV945g4rIytYwYD+AWAwfV/HIqKirnj8aU8P22V3l3R1YIlexg0bj7pmfaZWY+O8OezNwapCucJvKUqmBBVJY8AhDPzxnrSn+aVXVHhvix5bwC+3mU89/cPAJNjCsvYU35BESPvWsSs73fq3RWncPh4Gr+sOMi1g5rg5+upPH7juFBOJCg7QrgB1gODDqoIJkRVuP5HHuHO7sZa+EcTgwE+fbYX4cFlHEHr62s94MfFFRfDrY/8wvdLlVasc3lbd52h341zSUnLtUv8t5+5kvhYJTWpAN5A7snCgdxkuZNwQ4HAAaCcEn1VN3lUc959tPulf2A2W6f+3cB9z/3OtBnKz7GvlMFgIDo6mobx8cTE1CM4JAQfb298ff3IzcslNzeH1NRUTh4/wYGDBzh29CiFhYUO72fvLjH8MvMGfMqaAdLor3XHuGLUHFWFlcYAc1QEEqIykgAIZ/Uc8LTWIFHhvuxZNIJAv4umgD1MEBDkFj8Br36wlsde+9MhbZlMJrp07UqPHj3p1r0HHTp2xNe36tUSCwoK2LF9O2vXrGbVqlWs/OtPsrOz7djj/wzr34jvPh5ul2OGb39sKZ98vVVFqINAMyBfRTAhKuIGtz/hhmoD+7FukdJk9itXMGZQGScGBwaDh+svgfl60S5uuvcHu1f269SpM9eNGME11wwnvJa6ffbZ2dn8/NMSvv3mG37/7VeKiuyzcv+cZ+7rwbP391Qe92xqLk37TCcxWUkyMwn4TEUgISoiCYBwRq8DD2kNcnnHKP6YfhWXbAf39QUv1z/gZ9+hFDpc9QUZWfb5sGg0GrlqyBCm3Hs/7dq3t0sb5zty+DDvv/cuX8+eTW6ufWoXGI0Gvv/kWq7uF6889hcLdjDxfz+pCLUXa5lg+2ZDosaTBEA4mwDgGBpX/nuajGyZN5wWDS9aoGUqmfp3cXn5RXQf/pWqFeiX6Nd/AC+8+BLxjRrZJX5FkhITeeWVl/jqyy+xWNTXMQgK8GLb0pupXydQadziYug9YjZ/b1BSdXEkMF9FICHKIytOhbO5BQXb/u4Z3eLSwf/cfn838PDLy+0y+MfGxfH13HnMmTdfl8EfILxWLf5v6tv89scKOnXqrDx+WkYeEx9covw0RIMBpj7V59IZJ9s8inxAE3bm+g9BhTsxAbOBYC1BQgK9+G5qX7y9Lvr29vMHk/r94I627K9DTHnmN+VxR44azddz59GsWTknJDpYRGQko8fciNFoZO2aNRQrXOhw+HgaYSE+dGkXrSwmQJ3IAHbtS2bn3iStoaKAtVjXwghhFzIDIJzJtUCs1iAPjmtFcMBFe/s9PcHspTW07vILirjnmd+ULvrz9fXlg48+5v0PP8LPz7mOQPbw8ODhRx7l+0WLiYxUchBkqcde+5Mjaur5X+Clh3rjaVJya71XRRAhyiMJgHAmD2gNUCvEmymjW1z0VYPbHO/71qcb2HvwrLJ4YWFhLFz8IzeMHKUspj1079GTX379jcaNmyiLmZ1TwEMvLVcW75z42BBuG9NWRaj+QBlbWIRQQxIA4Sy6AV20Bnl4QhsCLt7z7+0NRtf/Vj+RkMGL765RFq9u3br8+PMvtO/QQVlMezrXX5XrAhYs2cOfa48pi3fO45O74WXW/ITVCNyuoDtClMn174rCXdysNUBUuC93jWx24ReNRvB2/S1/YJ2yzlS05S8yMorFS36mUaMyDkdyYqGhoXzz/UKlScsDL/yuvI5CdIQ/E0a0UhFqItYzMYRQThIA4Qx8gBFagzw8sfWlh/34+qFqWbaeDh1LY87i3UpiBQUFMf/bb6lXr56SeI7m5+fHnHkLlCUvm/85zU/LDyiJdb6Hbu+CSftagHAU/GwIURZJAIQzGI7GrX8Bfp7cfM1Fz4c9Pd3ioB+AqdPXU1iofU+8p6cns76eQ/PmF6+TcC1hYWHM//Y7wsLClMR7SeGjlXMa1g9m5JCmKkJNUBFEiItJAiCcwXitASZc3fjSev8+Va9R78ySzuYwY/4OJbEef+JJunXvoSSW3mJiYnj/o48xKljfsWbzCVasPaqgVxd68DYl6xUuB9TuVxQCSQCE/uoCV2oJYDDA3SMv2rtu9rIe+OMG3vtyE9k5BZrj9LnySu6+Z4qCHjmPvn37cc8UNbvlPvxqi5I452vXIoJu7etoDWMEnHubhnBJkgAIvd2ExoJUA7rXpUnseU8QDICPeyz8s1iKlXz6DwgI4N33P1DyadnZPPLoY0qqFi5cuo8zag7zucBd49qpCDNaRRAhzud+dwPhajQvcLpk37/ZC4zuUeTy7w3HOXZSe7Gahx99jIiISAU9cj5mLy/eeHMqBo2LPfMLivjyGzWPWs434qqm1ArT/DiqI+BaWzaE05MEQOipDqDp41FMpB8Dute98Itusu0PYO4P2lf+N23ajEm33qagN86rV+/eDL36as1x5v2wR0FvLuRl9mCimi2B16sIIsQ5kgAIPQ1F44EnYwbFYzSeF8LL220+/RcUWliwRPuA9Ojjj+Pp6fpnIFTm4Ucf0/yIY9OOBA4dS1PUo/+Mv76lijBDVAQR4hxJAISertIaYNTABhd+wdt9aqb8ufYoSWdzNMVo0LAhg6+qGeNG06bNlMwC/Pi7+vN3mjcKp1XTWlrDdAY0BxHiHEkAhF580bj6v3mDYNo2OW8fuKfZbT79A0pK1E6ePMUtF/6V59bb79Ac46flBxX05FI3XqP5lEUPYJCCrggBSAIg9NMXawVAm40edNE5KV6uf9rf+f5ary0B8PX15boRNauIXNeu3TQfGLR64wmKihTXBgZGD2uuoiil5lkzIc6RBEDoZbDWAKMHnpcAeHi4TdU/gNy8QtZvPaUpxsBBg53ueF9HGHPjjZquT8/MY9vuM4p685960YF0aKV5J0Z/NG6bFeIcSQCEXnprubh5g2AaxgT+9wUv93n2D7B+6yly8wo1xbju+pq5aHzQYO0fkldtPK6gJ5ca2jdea4hgQMmWAiEkARB6CAM0FUm/YOufwWDd++9GtH4CNZvN9L7scjWdqYbCwkIOHjjAxo0b2LlzJwUF2isYVlfD+HgaNGxY+RsrsGNPoqLeXEhBAgAak2chzpEEQOihBxq3/12QAHia3eLEv/PtO5Si6fq2bdvh48BqiEePHuX++6bQuGEcnTu2Z2C/vlzWszsN6scwcfxYNm/a5LC+APTpo2l9Kbv2JSvqyYXaNo+gblSA1jC9VPRFCEkAhB40nUbj42Wid4fznqW62eI/gP2HtSUAXbt3U9STys36aiY9unbmqy+/JD39wqqFOTk5/LB4MQP79+WF557FYtF+omFVtG2nrfzu7v1JinpyIYMBBvSO0xqmFxoTaCFAEgChj55aLu7VPgIfr5KDfoxG8HC/Ijf7NCYArVq1UdSTin06/RPuv3cKOTkV1yuwWCxMe/stHnnofw7pV5u2bTVdfzY1l7SMPEW9udBlXetpDREBaD/8QNR4kgAIR/MGOmgJ0L/bxdP/GnvkZCyWYg4f11aNrqHGZ+BVsWP7dp5+8gmKi6u+Ze7zGZ8x/ZOP7dgrq0aNGuPhoW2xfEJilqLeXOiyrjEqwmj6GRICJAEQjtca0DRn361N7f/+w80W/wFkZudTWKhtqjyuQYPK36TRKy+/RH5+frWve+apJ9m4cYMdevQfk8lERESEphin7ZQA1IsOJLZuUOVvrJi2KQ4hkARAOF6Lyt9SPpOHkXZNS6r/GY1gMqnok1PJzNK2ct7f35+AAM0LzSqUeOYMvy5batO1+fn53DJhPMnJ9llod050dB1N1yeeVX808Dm9u2ieBVByxrCo2SQBEI6mqR5qy/iQ/57/u1Hhn/NlZlX/U/X5/Pz8FfWkfBs3bqjW1P/FTpw4wZ2332rXRYHBISGars/NK1LUk0spKAgkMwBCM0kAhKNpSgA6tTjvLBQ3PeEuM1vbDICvn+az5yuVeEb7Pvk/fv+dN994XUFvymY2a0sQtT6GqUj7ltoeT2A9FEjbFIeo8SQBEI6m6RFAp5bhJb8zgMk9E4CCAm2fPD0d8PfiYVJTjfbN119j+R9/KIl1MU9PbY+HCgrtNwPQpnntC4+xtk0zFX0RNZckAMKR/AFNe6A6Ni+ZAfA0uV3xn3P8/bR9cs3Ots/itfM1atxYSRyLxcIdt9/KyZMnlcQ7X16etkcpJg/73R4D/Mw0itX2iAKw/0pP4dYkARCO1BwNm/YMBmhUr6T+v5tO/4P2BCAry/4JQPv2HahVu3blb6yC5KQkbpkwXnnZ4LQ0bVspA/ztu8akZZNalb+pYvbf6yncmiQAwpHqa7k4IswHf9+Sgd/kngsAgf/+H22UkZFBUZH9pq/Bus3u5lsmKYu3YcN6nn36KWXxANJSUzVd7+9r3++xeJkBEDqTBEA4UrSWi+NjSvZOGwzW43/dlNYZgMLCQo4dPaqoN+WbMuVe4hupK0j38UcfsmjhQiWxiouLOXr0iKYYwYH2rTERHxusNYTMAAhNJAEQjqQpAWhYt2Rvu5su/jvHy+xBeKi2g3wOHDygqDfl8/L25tMZX+Dtre7QoXvvuZv9+/ZpjpOQcIrMzExNMerVCaz8TRo0rK95BiBWQTdEDSYJgHAkbTMA557/K1qB7swaxYZqun7f3r2KelKxli1b8vqbbyqLl5mZyc0Txld6tkBl9u3VlkR4e5mICPfTFKMyDetrngEIBtz3WZiwO0kAhCNp2rccV6dkBsDD/ar/XaxRnLZPh+vXrVXUk8qNufEmbho7Tlm8Xbt28r8H7tcUY/36dZqur1cnUMU2vQpF1fbXupHFgLUegBA2kQRAOJKmBKD2uWnxGpAAaF0gtnr1ak2V+qrrtdffoHUbdScQzps7h5lffGHz9WtWr9LUfotG4ZW/SSNPk5HQYM2PT9RsxRA1kiQAwpE01T8NDfQCo4f1DAA317ShtkcASYmJ/PvvHkW9qZyXtzczPv+SoCDNh9yUeuzRR9i+bVu1r8vNzWHD+vWa2m7bwjHjqoLHDDIDIGzm/ndS4Uw0FakPDfKqEc//Abp30F7ldbGiFfVVFRsXx7vvf4BBUYGmvLxcJk4YR2o1t/P9uuxXsrO1HeTTroXmUr1VEllLcwIgMwDCZpIACEfxRuP3W2hQyQxADVAnMkDzIrFvv/1GUW+qbvBVQ7hr8j3K4h05fJjJd91ZrccZ33+n7f/bYIBObaI0xaiq0GBvrSHsf/KTcFuSAAhH0fSw09NkJNDP7Nb7/y+m9cjYA/v3s2njRkW9qbqnnn6Grt26K4v3y88/8e60aVV6b3JyMsuWLtPUXqumtVR8Mq8SP41Fn9D4cyVqNkkAhKNoOqIuyN9sXTFdA57/n9O7s+Yz4/nwg/cU9KR6TCYTn86YoaxUMMDLL73A6lV/V/q+Lz6fQW6uti2E/XrGabq+Onx9JAEQ+qk5d1OhN00JgMlU8ly5hjwCAOjfO07zVrQfFi/m8KFDinpUdZGRUUz/dAYeimZsCgsLmXTzzZw5c7rc9+Tn5THj0081t9W/d6zmGFXl6y0JgNCPJADCUTTdqIwGAxiMNWoGIDrCn8u7ajo8kaKiIqa9/ZaiHlVPz169eOyJJ5XFO3PmNJNuvpnCwsIy//yzzz7l9OkETW2EhfhwRXdNR1ZUi6+P5i2tkgAIm9Wcu6nQm6bC6gaDoUYN/ueMHqb9yPevZ8+yaTudCvfedz/9BwxUFm/1qr95+aUXLvl6SkoK//fG65rjXz+4CZ4mx32fKdgx4f5FMYTd1Lw7qtCLprNejUbAjuezO6vrBjXB7KltGr2oqIhHH37IoYWBzjEYDHzw0cfUq6dtJuN8706bxi8//3TB1159+aVqbxcsy6irtSdc1WGxaP43KXs6RIgqkOxROEq+losNGNBaN9UVhQR5M7hPAxYu1Vbbfv36dXzx+Qwm3nyLop5VXXBwMDO+mMngQQPIz8vq1aEZAAAgAElEQVTTHK+4uJjJd93J78v/pH5sLH+vXMnnMz5T0FO4ZtJ31A73JSzYh/BQH8JCfAgP8SU81IdaYb6Eh1z49bAQH03flhbtSZl9z30Wbk0SAOEo2u/8hpo3AwDwwKTOmhMAgKeeeIIuXbvSvHkLBb2qnrbt2vHyK69qrvF/TmpqKhMnjGPu/AXcc/edWCwWJXHTMvJIy8hjHylVer/RaChJBkqSglAfwoJ9iKjld1ES4UN4qC+1wnwI9P/vaZjMAAg91byPVEIvMYDNh9SHBnmRvP52UHj0rCvpPnwWazaf0BynSZOm/PrHcnx9NW3KsNmdt9/GgvnzlMUzmUzlLgp0VmZPj9JkISUtl+OnMrSEex54RlHXRA0jCYBwlAjA5iXaJg8j+bunYPDStJbQZS1cuo/ht32nJFb/AQOZOWs2JpPjJwCzs7Ppf2Uf9uzZ7fC23dSvwEIgCTgDJJf8PhmNj92E+5MEQDhKCHBWS4CM7ZPxD3JMhTZnY7EU06LvZ+w5kKwk3o03jeXtd95VVre/Ovbt20u/PleQmZnp8LZrmHQgEWtCcO6VDBwHDgO7AcedGCWcTs2pqiL0VgQ8iYak8+6b2hEYqLl2uksyGAzUjQxg3g9qPjnv2L6drMxMLr+ij8OTgLCwMOrHxvHD4kUObbcG8gJCgbpAY6At0A0YAIwEJgN3A+2w7tI5hCwqrFEkARCOYgGmoKFwyS0jW1ErvOaefdI0Poy1W05y4Ij27W4AGzas5+SJE/QfMACjg2ssNGvWjJSUFDZv2uTQdsUl/IBWwGjgZqAY2IYsLqwRauayaqGXM1ouTknLVdUPlzXt2b6a6wKcb/asr7hx1Egle+ir67kXXqRjx04Ob1eUqw4wFdgJDNa5L8IBJAEQjqQpATimbbW0W2jSIJT7bumoNOZvv/1K3z6Xs2P7dqVxK2M2m/nsiy8JCwtzaLuiUnHAEuBtQPNhBcJ5SQIgHElTAnDoeJqqfri0p+/tQdOGagfNw4cO0b9vH95843WHbqurU6cOH3483eGPIESV3Av8AtTc525uTtYACEe6DOhs68UN6wcztG8jhd1xTWZPD3p3juGLBTsoLFJTAAfAYrHw98qV/LRkCQ3j46kfG6ssdkXiGjSguLiYVVU47lc4XBxwOTAf2VbodiQBEI7UEbjC1ovDQnwYe21Lhd1xXRG1/AgN8uGn5QeUx05MTGTe3Dls2bKF+rH1qVOnjvI2Ltatew/WrVvLkSNH7N6WqLYYoDXWJMDxB0oIu5F5N+FImg6mP3RMHgGc765x7bh2YGO7xf912VIG9e/H0KsG8+03C8jLtc8izHMzD8ePH7dLfKHEEOBVvTsh1JJCQMKRugBrbb3Yy+xB5u4HMDnwuFZnl56Zx+U3zGHLztN2bys4OJgBAwcxaPBgLrv8CgICAmyOlZ+Xx5o1a/jt12UsXrSQEye0lzkWdlcMXAd8r3dHhBqSAAhHCoYqnrJSjh3LbqZlk1qKuuMeEhKz6HHtLA4eddxWPg8PD5o2a0bHTp1o1Kgx8Y0aERUVTVhYKN7nndeQl5dLeno6J46f4PDhQ+zbu5ctmzezfft2cnNzHNZfoUwa1kd5+/XuiNBOEgDhaAlYzwWwycy3hjD2WsefZufs9h9Ooce1sziTnK13V5ySwWgkJCoWk6cXZm/rQUj5udnkZWeQl5VObla6zj10KduwVhSUDM7FyXHAwtH+RUMCsPmfBEkAyhAfG8KSL0Zw5ei5pGdqP3nZ3RRbLAy68yXa9BtZ5p8XFRaQlZpEdloyWWlJZKcmkZmSeN7XkslKTSIrJZGstCSyUpMoyK2xyVYb4H2slQOFC5MZAOFo04FJtl58WdcYVswbo7A77mXTjgQGjptP0ln5cHYxs48/93y+loi45kriFebnkp1+lpz0FHIyUshOTyEj+RTpiSfJyUglu+TrORkppCedIj3xBIX5bpWc3QLM0LsTwnaSAAhHewD4P1svDgrwImXHfehwiJ3L2Lk3iQFj53MiQSonXiyiQQvumbEWs48+p0rmZWeQlZJIZmqidWbh3AxDajJZqdYZh/++lkRWWhLFFnW1HhTLwfooYJveHRG2kduocLTewJ9aAuxZfitNGoQq6o57OpGQwbBJ37FpR4LeXXE67QbeyOjnvtK7G1V2fkKQnZ5cmiRkpVgThPMTicyURHIyNK2zra79WBcFyh5dFyQJgHA0X6w3C5vXn3z4Un/uuKmduh65qeycAm55+GfmLlZzhLA7ufaRD+h67R16d8MuLEWFFyYNaclkppwhKzWJU/t3sGvlDxTmK63p8D3W7YFSJMjFSAIg9LAZ6xnkNrluUBO++egahd1xbx/N2sL9z/9Bbp6c8HqOyezFXZ+spG4ztQcruYKkE4eYfv/VpBzZqTLs/9DwaE/oQyqqCD3YXAwIYPmaI1gs8mGjqu64qR3rF4+jfUubN1+4ncL8PL567Aay08/q3RWHC68Tx6RpP+MdpLSexqtAT5UBhf3JWQBCD+GAzR/hc3ILubpfPNERckhZVUWE+3HLyNZ4mU2s3nRC6SFCrio3M5XTB3fStt8oDDVsValfQCAhDdryz7KvUTRzbwQGArOBLBUBhf1JAiD0kAtM1hKgYf0QenSsq6g7NYPRaKB3lxgmXN+KpLPZ7NiTqHeXdJd0bB8ms5m4tr307orDRdZrSGaBgeNbV6gKGYB1QeAsZD2AS5AEQOihM3CjlgAmk5GbhktBIFsEBngxfGBj+nSP5dCxNA4fd70F3N5+gRQWqNlTf3Dzn8S27UlodJySeK6kSYde7N2+nrSTyir7xmJd4PuHqoDCfmQNgHC0gcB3WoPI9jbtenWuy/J5o1k+bzSDLm/gMrUVQiLrM+HNRRg91BQytViK+PqpG0lPOqkknisxGo2MfeEr/GvXUxn2UeAqlQGFfUgCIBxpINYtQ95aA6Wk2edo2pro8q71+OnLEez+41amTOxAeKhP5RfpqMVlw2jQ/jIG3vmispiZZ08z+4nRWIpq3k6JoJAwRr04D6PJrCqkEZiJdTZAODEXyfmFG1A2+APUiQzg+Lq7VIQSF8kvKOLn5QeZ/+Mefl5x0OmSrdve/434jn0oLi7my4eGs2vlYmWxvf0CKcjPxVJUiG9gKEG16xIV35r4jlfQrOcQfIPClLXlbJZ+/T6/T7tHZciNWHcGuFX9Y3ciCYBwBKWDP8iZAI5SWGjh743HWb76KCvWHmXDtlPk5Or3KdnD5MkLy9Mwma3fSjkZqUwb35GzJw7avW2T2YtWfa7nyomPUzu2md3bc7himP7YGPYtn6sy6oeAZOpOShIAYW/KB3+Aj18ZwG1j2qoMKarAYinm8PE0du9PZvf+ZPbsT2bPgbMkns0mOSWH5JRLDyEKDvQiONCbyFp+HD6eRkKi7bvE6jbtwJQvN1zwtRP/bub9ST1VV7crl9HoQe8bH2TAHS/gYfJ0SJuOkpOdyVvju5B6VGn1yJuwbg8UTkYSAGFPdhn8a4X6cODvOwjwU/bMUihWUGjBw2jAaLzwFtPj2lms3nTC5rjdrruT4Q+/f8nX1y2czrev3G5zXFvEtOjMmOdnE1a3oUPbtbcj+3by8aSuFOYq286fBXQBlJYeFNrJIkBhL3YZ/I1GA7Ne6SODv5PzNBkvGfwtlmK2a6w9ULdZhzK/3uWaW+lw1XhNsavr2M71vH9rT5KO7XNou/ZWv1ELBv3vI5Uh/YBvAKnc5WQkARD2YJfBH+D1+zrTv0sUSClgl3PgSCqZWfmaYkQ3Lv+xz7UPv09kw1aa4ldX5tnTTL9nAGmJts9qOKNeQ2+k1dV3qgzZFJiuMqDQThIAoZrdBv/X7uvMg+NKbvCF2gYS4Xjbdp/RdL2HyZOIuPKLP3l6+zL21QV4+wVqaqe6Uk4dZubD12KxFDm0XXsb9dBUajXppDQkGiuACrUkARAq9cdOg/9Lkzvy8ITW/32hsObt13Z1W3ed1nR97dhmmMxeFb6nVr3GjHz2S4fX9j+2awOrF1y6NsGVeZq9GP/qArwDw1WGnQr0UBlQ2E4SAKHKQGARdvrk//iki6Z+CwtUNyPsbNsubTMAUY1aV/4moEXvYfQcea+mtmyx9KOnSE865fB27al2dD2GPfk5BoOyocIT+BrrgWBCZ5IACBXsOu1/wSf/c4qKwCIn2rmSbbu1LQCMbtSmyu8dfM9r1GvZVVN71ZWXncH6Re73mLvDZVfR+cbHVIasB3yFjD+6k38AoZXjpv3Pp+4TiXCA5JQcjp1M1xSjogWAF/MweeIbGKqpPVts+OELit0wMR1+93PEdOivMuRA4EmVAUX1yV1UaOHYaf9zDAYICACjfPu6Cq0LAAGi4qv2CAAgNzONfRt+09xmdaWcOsyhbX87vF17MxqN3PT8l/iGRasM+wzQT2VAUT1yBxW20umTvwECAkHRSXDCMbbs1LYAMKh2XfxCalX5/cd2baCoQJ+dIgc3r9ClXXsLCY9g1MvfqD40aC5QX1VAUT2SAAhb6PjJXwZ/V7Rd4/P/6nz6Bzi1b5um9rQ4tf8f3dq2t6Ztu9L71pdVhgzFuijQvWoquwhJAER1OX7BH8jg7+K07gCozvN/gLQz+hXmST19VLe2HWHg+Ptp0HO4ypDdgddVBhRVIwmAqA4Z/EW15RcUsXt/sqYYVd0CeE5OZpqm9rQoyM3WrW1HMBoMjH12BoHR8SrD3gtcrzKgqJwkAKKqZPAXNtm1L5n8Am1V8qqzBRDQ9ZQ+g9FDt7YdxS8giDEvL8DD7KMqpAH4DGisKqConCQAoipk8Bc20zr9b/bxIzymUbWu8a/GgkHV/IJrRo2bBs3a0P++d1WGDMR6aJCvyqCifJIAiMrI4C800VoCOLJhKwzV3PIZVreBpja1qFW/iW5tO9rl191M80E3qwzZCvhQZUBRPkkAREVk8BeaOXoBIEBMiy6a2tQipllH3dp2NAMw6pF3CWtQvUc0lRgH3KoyoCibJACiPDL4CyW0FgGKruYCQLAeHBQSFaupXVsYDAYadx3g8Hb15O3jw7hXF2D2C1IZ9h2gvcqA4lKSAIiyyOAvlDh6Mp2zqbmaYkRVcwEgWAfitv1HaWrXFvGdriQwPMrh7eotqn48Qx+bYf0ZVsMbWAAEqwooLiUJgLiYDP5CGa3T/wajsdpFgM7pdt2deHgqq1pXJT1uuMeh7TmTLv2G02HEAypDNgC+xPqkQdiBJADifDL4C6W2akwAwuvGY/bxs+na4IgYLh/7sKb2q6N+6+407zXUYe05o+vufYXIlj1VhrwacNw/Yg0jd1xxjgz+Qjk9FgCe78qJj7Pt13kkHdunKU5lvHwDGPn055W+ryAvhyPbV3Ny71ay0pLxDQqlTuN2NGh/GUY3+BkwmUyMf2Uu74zrQE6Ktt0f53kRWAv8qSqgsHL97zihggz+wi60LgCsbgXAi5nM3ox85gs+mdzPrhX6hj/8XoW1CixFhfw5603+mvMWWSmXnosQEBZJnwmP0e36uzC6eCGhsNrRXP/sbGbdP4Bii7YCUCVMwBysiwITVAQUVvIIQMjgL+wiIyufA0dSNMWwZQHgxeq36sbYV+bbrTpg31ueov2gseX+eU5GCh/deQU/f/B4mYM/QEZyAov+714+u3cQedkZdumnI7Xq2ofuE59XGTIK68mBcsNQSBKAmk0Gf2E323efobhYWwytjwDOadp9MGNemG3zeoKyGAwGhtz7Jv1ve67c9xQVFvD5g8M4vG1VlWLuW/8bXz06gmKLRVU3dTN00iPU73KVypCXYX0cIBSRBKDmksFf2JXWBYB+weEE1aqjqDfQqs/1TPlig5KkIqhWHca99i29x1S86n3lnLc4vO3vasXeu24Za75z/WJ4RqORcc9/iX9ErMqwD2NdGCgUkASgZpLBX9id3gsAy1I7timTP1tD/9uew9u/+oVrTGYveo6cwoPzdtLismsqfG9RQT4rvnrDpn6umPk6lqJCm651JgHBoYx+aT4enl6qQhqAL7BuERQaSQJQ88jgLxxC+wJApeVlS5nMXvS95SkeX3SYax56l7i2vSpdgR/duC1XP/A2Ty45wdUPvI23X2Cl7ezb8DvZabYdg5x6+hjH92yy6Vpn06hVR/pMnqoyZAjWIkHK72E1jdyNaxYZ/IVDFBUVs2NP2QveqsqWEsDV4e0fRPfr76b79XeTl53BqX3bSD5xkKzUJIotRdZHELVjiG7c1qYT/hL2b9fUvyPbV1OvjDMNMlPO8M+K7zm5dxs56WfxC65FdJO2NO81FP+Q2pratJd+I+/k6PbV/Pv7bFUh2wPTgNtVBayJ5I5cc8jgLxxm76Gz5ORqm8K2xyOA8nj5BhDbpiexbdQVscnN0raaP/HohbUL8rIz+PmDJ1j3/ccUFRZc8n6T2Ysu19zGoLteVrrYUQkDjHnyI97ev5WUIztVRb0NWAXMVBWwppFHADWDDP7Cobbu1FYExmT2olb9pop6ow8vX39N1ycfP1D6+5N7t/LWTe1YveC9Mgd/gML8PFbNf5d3JnQmI9n5tsv7+Ppx0ysL8PTR9vdykQ+xHiEsbCAJgPuTwV843Lbd2qb/I+Ka223fvqOERMdquv5c9cJNP83k/Uk9OHviYJWuO3N4N59OGUhhfp6m9u0hpmFTBj88XWVIX+AboPJFGeISrl1ySlRGBn+hi/+bvoH9h20vAtSk2yBaXDZMYY/Uy0pJ5PShXWQkJ2D0MF0y7V6Ql8P6RZ/aHD8/O4O0xJMs/fipau8IyDx7GqPJRMP2l9vcvr3Ua9SSM0nJnN6zXlXIMCAe68JAUQ1yh3ZfMvgL3Wh9BBDd2L4LAG1lKSpk/eLPWPf9J5z4d8sFfxbduC1t+t5Ap6ET8Q+NIDwmXltbliLWLfzE5utXzX+PK8Y9ismsbAueMiP/9yan9mzgzJ51qkKOAO7FujBQVJE8AnBPMvgL3ZxOyiIhMUtTjOhGjlsAWFUpCUd4Z0Jnvnv1zksGf7A+p//5g8d56er6zH5iFCf+3YJvYKgOPbXKTkvm4BbnPD/H5Glm3Cvz8A6s/u6KCrwBdFMZ0N1JAuB+ZPAXutJaAMhgMGg+BEi19KRTfHBrL07u3Vrpe4sK8tn223w+ubsv2elnHdC78iUc+EfX9itSO7oe1zw9E4NB2TDkCcwHaqkK6O4kAXAvMvgL3WktARwcUQ+fgBBFvVFj7jNjSTtzXO9uVFtBXo7eXahQ+14D6TL2SZUh6wKzkbGtSuQvyX3I4C+cgjOWANZi77pl7N/4h97dsImejyCq6po7nqZuh34qQ/YDnlEZ0F1JAuAeZPAXTkPrDIC9SgDbavPPs/Tugs3qtby0kqCzMXoYGffiLPzC66oM+yQwQGVAdyQJgOuTwV84jZzcQvYe0vbcO7qxcyUABzc750K6ykQ0aEF043Z6d6NKgkNrccMLczGqq/1gBGYB9VQFdEeSALg2GfyFU9m5N4nCQm1n2Uc70QxAcXGxU1bVq4p+k57GYDDo3Y0qa9a+O71vf11lyHCsiwLNKoO6E0kAXJcM/sLpbN2lbf+/t18gIdFxinqjncFgwGR2vUPnOg29mdZXjtC7G9U2eOy9NOx9vcqQXYA3VQZ0J5IAuCYZ/IVT0roAMKpRG6f71Kq1oI+jdR42iese/1jvbtjGADc98ylBdRurjHoPMFJlQHchCYDrkcFfOK1tu91rASBAs55D9O5ClXh4mrnmoXe5/vFPMBpdt8q7n38gY15egMnLV2XY6YBrny5lB5IAuJb+2Gnwf2lyRxn8hSbFxbBtl7ZDgJxtASBA12vvcL7jdS8SVKsOd3zwB92vv1vvrigR16QVgx62vQxyGQKAhSW/ihKSALiOgcAi7PTJ//FJ5ey9lsFfVNGhY6mkZ2o7gc6ZFgCeExgeRf/bntO7GxXqfeMD1GnaQe9uKNVzyBhaDr5VZcgmWI8PFiVcd56oZpFpf+H0lq85yvwf99h8vdHDxND7pzrlMcD1W3UjO/0sx3YqO8FOqb1rl7H2+4/JTDlDSFQsfkFhendJMwPQrFs/tq/8meyzp1SFbQ2cBjaqCujKJAFwfjL4C5cwd/Fu/lx3zObra8c1o+fIKQp7pFbT7oMIjozh6I615OdqO+zIHgpyszmyYw1rvnmfk3u3Ed2oNX7Brl0W38NkokHnvmz+6SuK8nNVhe0H/AKcVBXQVckjAOcmg79wGVoXADrj9P/FOg29mUe/38+wB6cR0aCF3t0pU3FxMTv/XMi08Z3Y9us8vbujWVRMA65+4nPrfUkNL2AB4Px1ku1MZgCclwz+wqU8+uoK0jJsXwPQYfBNxLbuobBH9uHhaaZeiy50v/4uGnW+kqLCAk4f3ElxcbHeXbuApbCAnSsWEtOis8ttZbxYnbgmpGTkcvKfVapCBgMtgLmqAroimQFwTrLaX7iU1PQ8jp5M1xTD2Q4Bqoq6zTrh6eWDxVKkd1fKZLEUMfe58eRmafu3cQbX3fsiddv3VRlyCPCYyoCuRhIA5yOr/YXL2brrNFo/AEfFl5OYOqmUhCN8cGtP1i2crndXKpSVksi67120MNB5PIwe3PT8THxCIlWGfR64QmVAVyIJgHORaX/hkrRWAAwMj8I/NEJRb+xv/4bfmTauI8f3bNK7K1Wy/Y9v9e6CEqG1IhnxwhyM6u5VHsAcIFpVQFciCYDzkMFfuCx3rABYnl0rf2DGA0PITkvWuytVdmrfNqdbo2Crlp0uo8ctL6oMGYF1LUCNuwlKAuAcZPAXl7BYijmRkMHWXWdITM7WuzsV2rqzZiQAKQlHmPvMWArztRU8crTC/DzysjP07oYyQ25+iNhuV6sM2Qt4RWVAVyB3fv3J4C8u8PuqI3w0awuLf91PfsF/i8viY0O4skd9+vWKpU/3+oQEOccpdUVFxezal6QphjOWAC7LLx8+6ZIL6oweJrx83acKrsFgYOxzn/P2+E5knDqoKuyDwCqsJYNrBLn760sGf1EqK7uAif/7iQVLyq6mt/9wCvsPp/Dx7K14eBjo2DqKy7vWo0u7KLq0jSY6wt/BPbY6npBBXr62VfCuUAMgO/0s239foHc3bBLduK3TnbKoVUBQCKNfms9nd/RUVSTIAHwBdAT2qwjo7GQE0I8M/qJUemYeg8YtYPWmE1V6f1FRMeu2nGTdlv+KmdWNCqBzmyjatoigacNQmjYMo0nDUMye9i33cfhYmqbrPb19Ca+n9PhXuzj6z1qKCvL17oZNWlw2TO8u2EV8i/b0nTKNpW/eripkENYiQd2BHFVBnZWMAvqQwV+USs/MY+DYBazZXLXBvzzHT2Vw/FQG3/2yt/RrJpORuJggYqICqRPpT92oAKJq+xMd4U9QgBdBAV74+5nx9/XE3898Scz8giIyswpITc8lPTOfzKx8ks7mcOxUOqfOZHEiIYM9B7QthouIbeYSx9emnDqidxds4hsURo8Rk/Xuht30GXErR7atYs+vM1WFbAu8C0xSFdBZyUjgeDL4i1KqBv/yFBZa2HcohX2HUuwSXwUvv0C9u1A1LriK3mA0MuLJT/H2D9K7K3ZjAMY88QFv79/C2UM7VIW9Bet6gM9VBXRGsgvAsWTwF6XOTfvba/B3FQkH/8FSVKh3NyoVpnM5XQ+TJ5fd+D/8gsOr9n5PMyOemE6L3u45/X8+bx9fbnplAZ6+SpPJ9wHnX5yigfPPu7kPGfxFqeo+83dnBbnZ+IfWJqZ5Z727UiG/kFqsmv8uRYUFurRfbLEw7rVv6DPhcWrHNSM7NYmUhLIfS8R3upKbXppH0+6DHNxL/QSGhOEbGc+eFcoWanoCVwIzAdfa91lF7rUs1HnJ4C9KyeB/KU9vX+6ZsYbIhq307kqFvn3lDtYt/MSma4Mj65GRnKBpIeFdn/xFbJuepf+dduY4+9b/SkrCUYotFoIjYojvdCWh0XE2t+Hq5rz+AFu+fVtlyO+A6wHXewZUCUkA7E8Gf1FKBv/y1arXmHu+WI+3E68JyEpN4s2RzclKrV7dg0ad+zHmhdl8cFsvEo/8a3P7Nzw1g45DJth8fU1QUFDAO7ddweldq1WGfRCYqjKgM5A1APYlg78oJYN/xRKP7mXBi5OcumStX3A4E95chNmnajUXDAYDfSY8zi3TfsIvOJzwutrWESSfUFb0xm15enoy7uW5eAfVUhn2VaBnpe9yMZIA2I8M/qKUDP5Vs+OPb/h73jS9u1Gh+q26cff0lUQ2bFnh+0Ii6zNx6o8MvPPF0m2OYRoTgJyMVE3X1xS1oupy7TOzMBiUDXGeWM8LqK0qoDOQRYD2IYO/KCWDf/Uc2PgHjTpdSXBEjN5dKVdAWCRdrrmVyIYtsRQVkZedidHogV9QGPVbdeOKCY9y3aMfEhHX/ILrko/vZ8/qn21ut36rrjTpNlBr90tlpyVzYPMKDm1dyemDOykqKiAgNNItqgZG1mtIVoGBY1tXqAoZCLQHZuMm6wFc/1/Z+cjgL0rJ4G+boNp1uW/mJvxClE7j6u7I9tW8f6vtM8nDH36fbtfdqbkfJ/7dzLJPnmXPqiWXPHIJjoihxw2T6TnqPjxMnprb0pPFYuGDKUM4uuEXlWFfAp5UGVAvkgCoJYO/KCWDvzaNOvdl0rRfMBjd50llUUE+zw+KIiej+oWZDEYjj363n5CoWE19+HveNJa883Cl2xnrNGnHxKk/Ehgepak9vaWdTWLa+I5knjmqKqQFGAr8pCqgXuQRgDoy+ItSMvhrd/bEQaCYhh2u0Lsryhg9PMjPzuTQ1pXVvrZ5z6F0u+4OTe2v/e4jFr45hWKLpdL3ZiQnsPvvH+lw1ThMZi9N7erJ28eXqBbd2PrzVxRbtB1aVcIADALmAdoOwtCZJABqyOAvSsngr86hbX9Tr0VnwnWuwqdSvRad2fHHt2SnVf0MBVB2cdcAACAASURBVC/fACa88T0+gSE2t5t8fD9f/O+aalVdzE5LJiP5tMsfJhQWWZcinxAOrbN9/cVFfIAeWIsEKckq9OA+c2v6kcFflLLz4J8E6FOGTifFFgtznhlLaoKy6VvdmX38Gf/GwiovcvT09mXCmwsJrdNAU7u/f/4yhTYcm7v5p5klszGubcDou2l0+UiVITvh4rUBZAZAGxn8RSk7D/7bgM7AC8BSYDeQBQQDVduU7qIK8nI4smMNHQaPw+jhHrcsv+BwWve9gbPHD1ZYGKhOk/bc8vYSYlpoK5NcVJDPvOcmUFRY/SqExcXFBNWuQ2zrHpr6oDsDNOsxkK1/fE9uevUKOVWgE7APUHYKkSPJIkDbyeAvSjlg8L8SKG/OOBpoAbQEmgOtgKZYzzZ3tBzgQMmrNtBNVeDuIyZzzf/eURXOaRzfs4mtS+dwcu9WstKS8TR7U6dZB1r0GkqjLv2VbMlLOPAPU8eUc0+pgha9hzH+je/L/LPjuzdybOd6Uk4fw+ztS2SDFjRofxm+QWE2t2dPR/bt5ONJXSnMzVIVMhPoAuxSFdBRJAGwjQz+opTOg39FgoF6Ja/6QAzWQTnkopf/ee+/+J6QifWxQxrWZ52pwBkgseR1suTXo1gH/RP8t0c6ANgANLGh72Ua8+LXtO03SlW4GuPApuV8fNeVNl9fq34THpq/+4Kv7V27lB/feYiEA/9c8n6T2ZsOg8cx6O6X8Q0Mtblde1n5w2x+eHGsypC7sc7QZaoMam+SAFSfDP6ilBMP/s6iFbAW8FURzOzjz5Qv1lE7tpmKcDXGsZ3reffmrjZf7+Fp5qW/sjAaPSjMz2PxW/ez9ruPKr0uqFYdbpn2k9Md8lQMzHrpbnYs/lBl2DnAGJUB7U0WAVaPDP6ilAz+VbID0F65pkR+TiZfPXYD+TnKpm9rhODIepquLyrIJzXhKKmnj/HRHZdXafAHSEs8wSeT+zvdIk4DMOqhqdRq3FFl2NHA3SoD2pt7rKhxDBn8RSkZ/KtlG9Z1Ch1UBMtKSSQl4SitrrhWRTi3kZ+TRXb6WTy9vC8pnmT28eOv2VNtWgT4Xwx/vn31DpKO7q12v5JPHKBt/9E2t20PHh4m4jv3Y/PPX1GUn6MqbF9gGdZHYU5PHgFUjQz+opQM/jbxBlZhraWuhKqyuK4s8ehe/p47jZ1/LiI96SQARqMH9Vp1peXlw+kweBx+weEAvD22PSf3btWtr/fP2kJUoza6tV+eTX8uYf4jwygurrw4UhUdwZrsOv3PsMwAVE4Gf1FKBn+bFQK/AeOwFlHRbP+G32nSbSCBtaJVhHMpxcXF/Pbpc3z91BiO7lxHXnbGBX+WevoYe9ctY9X8dzhz5F/8gsNJOrafM4f0W6juGxhGfKc+urVfnujYxqRl53NiR/WrM5YjGOvalzk4+aFBMgNQMRn8RSkZ/JUYCixC0b0nJCqWe2dudMqV5vb07Su3s27h9Gpd42HyrLT+vz0163EVE6f+oFv7FSmyFPHenQM4sfUPlWGfxlq3w2nJIsDyyeAvSsngr8wPwOuqgqWcOsy8Z8dXqba9u1i/+LNqD/6AroM/QG5Wuq7tV8TD6MG4l2bjG6Z0NukZrGsCnJYkAGXTcfAPksHfycjgr9yTwApVwXavWsLyma+qCufUCnKzWfbx03p3wyZevgF6d6FCIeER3PDCXIzq7r8ewGygjqqAqkkCcCmdB39ZluFMZPC3i0KsW6ZOqQq47ONn2L9R6fStU9q9agnpScr+2hyqbjOlW+7sonmHnvS6TWkyWRvrqYGeKoOqIgnAhWTwF6Vk8LerBKxJQNWPpquAxVLE10/dWLoS3l3t3+CaSY7BYKBN3xF6d6NKBo+/nwY9h6sM2QN4TWVAVSQB+I8M/qKUDP4O8SfwhKpgmWdPM/uJ0dU67tbVuGqC07z3MCIatNC7G1ViMBgY++wMAqOVHkF9H3CdyoAqSAJgJYO/KCWDv0O9ASxWFezQ1pX8/P7jqsI5HYPB9W7ZgeFRXPvIB3p3o1r8AoIY8/ICPMxKdqyCddfLDKCRqoAquN53k3oy+ItSMvg7XDEwHlB24PxfX/8f/6wo++Q6VxcaHad3F6olOCKG2z9cTkBYpN5dqbYGzdrQ//53VYYMBL5B0bkYKtT00WcAsBA7DP4vTe7IozeXU/VKBn+nlJVdwJCJ3/D3huP2CL8N65YgGfwvlYt1V8AEFC2W2rP6Z1pePry0Cp67MBhg8y+z9e5GlTRo15tJ7ywlJKq+3l2xWWyzdpw8cYzE/VtUhYwA4oDvVAXUoiaPQAOx0+D/2n2dZfB3MemZeQwcO9+eg7988q/YaazHDA9VEayoIJ/D21fR4apxeJiccgG2TUKiYtn++wKyUpP07kq5DAYDl934P0Y9+yXefoF6d0cTA9C0Sz+2/7WEnJTTqsK2wnpWwGZVAW1VU0chmfYXpWTa32lsBhoASgrGZyQnkJGUQIveV6sI5xQMRiPh9RqxZenXUOycVWbbDxrLsAfedpvEy+TpScNOfdn800yKCvJUhe0P/IR1N4xuauJIJIO/KCWDv9NZBlyNdapUs5N7txASVY/oxu1UhHMKYXUb4hMQxN61y/TuSplO7d/OuoXTyU4/S1h0HD6BIXp3SbOA4FD8opuwe/kCVSFNWB8JzsT6CEwXNW00ksFflJLB3ykVAL9jXRjopSLg3nW/0rznEJdciFaeei27EhXfmoNb/iI/J1Pv7lwiPyeLw9v+ZtWC9zixZzMRDZoTEKokp9NN3YbNSE7L5NTONapChgLNsBYK0kVNGpFk8BelZPB3asnAfmAECg4NshQVsm/973S8ahwms/Iff93Ujm1Gt2vvwC84nJSTh8lOc8Jvt+JiEo/+y/pFn+LlF0D9ll317pEmTTpdwa71K8g8c1RVyKZAFrBaVcDqqCmjkqz2F6WysgsYerOs9ndyu7Aeq6pkxMhJP8vpQ7to028UBoP7HILq4Wmmfqtu9LhhMs16DQEMnDm06//bu+/4qKr0j+OfJCQhDQgWLIAV+ypItVcQ29oRlW7vursWFAXLz7a7uogFQSwUKSoqKkVgQUBaIKBI74aeQHqbycz8/rgE0YVkMnPu3Cnf9+s1L4kz85yTEOY599xznhN2xZB8Pi9r5k8hpUEjmkfwICAhIYGTz72S7Mmf4TY383IJVlGszaYC+isWMpNW+8s+Wu0fUf6L9fNsZiJY7m9rqJ+awTFnnmsiXNhpcOhR1EtMZMXsb3FXljvdnQNau3A6Z1x8A+mND3e6KwFLSUsn88RW/PrDKFMLMeOx8tQoIKT3c6I9O2naX/bRtH/E8WItCuwOpJkIuH7xTE5scwmNjmhuIlzY8Pl8TP/oZb549R7cFWVOd+egfD4vxXt2ctblXZzuSlCOaHoc5d56/LbE2NkMGUAbrEFAyM62juYMpeQv+yj5R6wiYClwBwbWA/i8XtbM/4Gzr+xGUoqRMYXjKkqLGNm3Cwu+GhK2WwP3t2fbBs7v+ij1Eo2s8XRMi1bnsfbXxRRuXWsq5LFAEtYi2JCI1iyl5C/7KPlHvOoywZeYCFZZVszW1Uto1fmOiKytv7+ywt0MfagTG7J/dLorfvN6PJx63lURPwsTFxfHqed0JnvqOFylBabCnodVD2ONqYA1iezf/gNT8pd9lPyjxsvAZFPB1mVNZ+qQAabCOWbsi73Zsmqx092os+I9xqrqOSqjUWNue3ksCeZmM+KAT7HKBdsu2gYASv6yj5J/VPFirQUwtv/qv5++yqq5E02FC7nls75h5ZzvnO5GQCK9RPD+WpzZlksfetNkyEzgc2zIY38WTQMAJX/ZR8k/KuUBXQCXiWA+r5cx/XuQvyPku6+MmPv5u053ISBxcXEcfuypTnfDqI633s/Jl91hMmRr4D8mAx5ItAwAlPxlHyX/qLYA+LupYGVFexjZtwtVLmM13kPC43axcekcp7sRkKNOaknDw5s63Q2z4uD2foPJbH6ayaj3Ys162SYaBgBK/rKPkn9MeAeD5VNzVmTx7UBjY4qQKNy1hSqXYyXkg3Jp72ec7oItUlLTuOPVz0lMSTcZ9n3gDJMB9xfpAwAlf9lHyT+m3A2sMhVs3hfvWSfsRQhPmFX689cZl9zIGRff6HQ3bNP8xFO58okhJkOmAV9g1QkwLpIHAEr+sk9xqUvJP7YUAzdj1VE34stX72PnxhWmwtmqUZNmxMc7+xl06vnXkJLh/0l/Ldp1pGv/T6KqFPOBnH91V866/iGTIU8GPjQZsFqkZjElf9mnuNRF5+7jlPxjTy5W/XQjl5SeKhfrF82gzTU9SUhMMhHSNgn1Elk1dxKFubb8zvul0939ufmZIRzWrAUl+bkU7sw54OvqpzWg493Pc8OT70bVYUw1Oa3DZSybO5XSPGN/P6cD+VhrYIyJxEym5C/7KPnHvGXAEVhlVINWWpDHnm2b+MulN5kIZ6+4OFbM/jbAt8aRkpEZ1DqCI1ucRYu2l3HUSS1p99c+tLziNg45+jgaNWnOoc1b0KLt5Zx/26Pc8OS7tGh3OXHxkTzhXDfxCQmc2L4TiyeNwGPuXIbLgGmAsYNMIm0uxtZT/Z65q+WBn1TyD0ulZW6u7v05P84/8JVHkKpP9cuzI7gYlQzMwdAgAOD6JwZx7s0PmgpnC6/Xwzu9O9S5EFD9tAbc8tww1mX9l3lfvh9w+62v7smtz38c8Ptjwc/zpvPZ3zrj83pMhdwCnI01+xW0SBqS2Xqqn5J/ZCkuddGp21g7k/9lKPlHikrgFmCPqYDfDfwHOcsXmgpni/j4BLq9MpaGhx3t93uOOOEvPPJpFn+55CYOaXpCUO3n5RirgR+1zjrnMtrdYXTXQ1NgJIZyd6QMADTtL/to2l8OYBPQAzByGk6Vq5KRz9xKWWF4/xo0Pvp47v/gR5qf0aHG18XFx9Phhnt5aNhcDm3WAoBDm50YVNvlRcbGW1Hthvv707R1R5MhOwHPmwgUCZlNyV/2UfKXGqzFOk3tAhPBKkoK2bH+V1p2ui2sV66nNMikzTU9Ofy4UykvLqAkfxeeKjcA6Y2bcOZlt3Bz3w9of8M9f1jc6PVUBXULILVBY87rYnS1O4W7trB97c/s2bqBuPh4UtIbGY3vhLj4OE4+pzPZU8bgLisyFfZCYD6wPpgg4ftbbVHyl32U/MUPCcBUDJ0cCHDFvS9yWZ9+psLZzuuporKsmPiEeiSnHnz7uMft4vnLG+OuKAuonVPOvYo+bwV/FoG7spz54wcz94v32L3lj/nskKYn0P66u6zjgyN8B8HK7Ll8+vAlePcOzgzIw1oPEPB90HDOcEr+so+Sv/jJh3Vq4O0YKp6yccksjjnzXA45+ngT4WwXFx9PYnIK9Wo5oS4+IYEN2T+yZ+uGGl93MOfcdB/H/OWcgN5bLXfzaoY+3InsSSMpL8r/n+fLi/JZmzWdn6eNo0W7jqQ1OjSo9px02JHNcCU2YFPWFFMhU4FzgBFAQKsMw3UNgJK/7KPkL3W0E+gKGCmX5/V6GP18N0f33NvlvC6B7XRITs3g7M7dgmo7f/smPnjgMnas/7XW1+blrOX9ey9k95Z1QbXptCu7PcIJF95sMmQH4J+BvjkcBwBK/rKPkr8EaDbQ11SwkvxdjHq2675769Hi1POv5eRzOtf5fZ3uGUBa5mEBt+vz+Rj7Ym+K8rb5/Z7SgjxG9bsdn9cbcLtOi4uPo3v/D2nY9CSTYR/BOiWzzsIt2yn5yz5K/hKkecBZwCkmghXszMFVXsrJHa4wES4sxMXFcXL7TqyZ/wMle3b69Z621/ah8wOvBLUwctVP3zPj09fq/L6ivG0ceeIZNDnO6Kl7IZWYlEyzlhexdOJwvB5jA8rOwHjq+HkWThlPyd8BubvLWLB0G8tW5bF5ayE7ckvJL6ygrNyN1+sjPj6OevVCP1Gk5C+GTMY6M6CxiWA5yxdwxAmRnYD+LCkljZadulKwfTM7Nhx8Or5eUjKd7/8/rnrotaB3RUwZ/FzA5y5UuSpo2em2oNp3WuahTUjIPJq1c74xFTIZuBgYDvg9qgiXXQBK/iH23fT1vPLOPBYs3YbXW/PW6YSEOBqkJ9MgPYm01CTSUhNpmJFMRpr157TURBo1qE96WiJpKdbXmQ3rW8+lJJGeZj1f/dqMtJrrrCv5i2EtgblAiolg9dMa8MinWfv200eT35YvIGvCx2xeNpfCXVuAOA475mRatLucc266jwaHHmWknVevO478HZsDem9KRiYDpuYdcBDiriwnZ0XWvrUCjY8+nmantiHJ7BG9RviA4S/ey/Lvh5oMOwKrHoZfwmEAoOQfQhWVVdz91GRGfrXc0X40zEjeNyD4fXCRSFpqEqvX72bpil12NKvkH7vuxOCJakeeeCYPDZtLYv1UUyFjytPnJuEN4kjjft9v+cNgpLw4nx+GDGDxxOFUlBT+4bWJySmcfWU3Ot49gAaHHhlwm3aorKhg4J3nk7cu22TYrsBYf17o9ABAyT+EvF4fN9wznglTI3slbYCU/OUjoLepYG2u6UWX5z4yFS6mPH9pIypKAy+Kc9/gmRzf6kIA1mVNZ3T/7hTv3lHje1IbHsIdL4+mRbvLA27XDttzNvBurza4SgpMhdyNte6l1lLmTu4CUPIPsf8MW6TkL7HsQazfBSMWffcJC7+x5Zj2qNegDucXHMjuLevw+XzMHP46Hz7SudbkD1BWuJtPnriezb/MDapt045sdjzXPfuJlZvMOATwq3KVU1lQyT/ESkpd3Hz/15SVG9kaHUmU/KVaFTAd6x6pkc+eNQumcsp5V4Xd1HK4W7PgB3J/WxPw+xsd3oysCcP46fN38Pn8P/7BW+Vm49LZtL/+buIT6gXcvmlHH3cye4rK2b78J1MhzwaGASU1vciJTKjk74DvZ6zn43HLnO5GqCn5y5/tAdZg7ZsO+pLL66liXdZ0Wl/Vg8TkyC5VGyyvp4qlP4zmhw/68/3bTzD5/X7M+/I91mZNp7KkkEObnUhisrUOM2fFIn77dX7AbeWsyGLXplUBvbesaA+NjmhG01NaB9y+HU5tezErFs2iZGdgiyP/JAEoBn6s7UWhpOTvkA/H/My8bP+LbkQBJX85mJVAA6wyqkErL8ond/Nqzrq8S1gfGmSnrauzGfpQRxZ8PZTczaupLCveeyZBCbu3rGPV3In8NHYQeTnryGjcBI+7klVzJzrW38rSItpc08ux9g8kPj6eE9pfwZLJn1FVUeOFu7+OAQbW9IJQZkQlfweNmbDSrpX14UjJX2ozA+vAoOYmguVuXkVyShrHnnmeiXARZX32TIY81JHivO01vs7rqWL72p/JmvAROSsWBnwIkQllRXu4pOfTYTdgS0vPIP24NqyaNgqfL+iKh5nA11ilsQ8oVIsAlfwd5vFEbvnMOlLyF3+4sbZLGRsVT3rvWTYsmWUqXEQozN3KyL5d6pzMSwtqXaBuq8qyYqpcFY724WDO7HARrXq+bCpcjadihmIAoOQfBtJrKb4TJZT8pS62Yp0aGNBJan/m9VTxWb/b/C6pGw2mffii48k8EPEJ9Wo9LdEpyQnQruuTNGt/rYlwbWp60u4BgJJ/mKit+l4UUPKXQEwH+psKVpS3nVH9bsfrNTKmCGuu8hIWTxzudDcCcuSJZxIXH45n4VnSkuK44B+fknZo02BDnVjTk3b+BJT8w0hGelQPAJT8JRivAsZWpK1fPIMpg583FS5src/+kSpXpdPdCMjpF/3V6S7UKDneR1J6Jmfd/lywoWosuGDXAEDJP8xE8QyAkr8Eywt0B4zsvwKYOfw1Vs75zlS4sFSw3diPK6Tqpzekw433Od2NGiXtTWFHtrws2FBpNT1pxwBAyT8MRekaACV/MWUPcAtg5JLW5/MxZkBP9mzbaCJcWIrU2xzX/X0g6ZmHO92NGlWfzxYXF3SKrjEhmh4AKPmHqSicAVDyF9OygL+ZClZenM/Ivl0idpq8No2OMLKDMmTi4uK45tF/0foqvw/Lc0x1bcOdy+cEG6qwpidNDgCU/MNYlK0BmImSv9jjPeAzU8G2rFrMhLceNxUurBzf6kIS6iU63Q2/JKdm0O3VcVx4u7Hxna0qPOAuL+Hn0UFvB6xxm6upYshK/mEuPTXoAcAm4GYgA+u+UhrQCEjf7+vM/f6cvvf56q8zgIYEN+jcA/wL+CdWXXcRO9wLtAROMxFs/vjBHHvmuZx9ZTcT4cJGSkYmf7n0Zpb+MNrprtSoyXGn0f21Lzj82FOc7orfcnds54f+N1G0NfDzEvaqsV6yiQGAkn8EMDADkAgsNtCVFKwBQYO9j+oBQkMOPLgAKADmY1VvKzXQB5GalGANdhfy++9gUMa/fj9Hn9yKJsefbiJc2Oh830usnPMdlWXFTnflgA4/9hQeGDqblIxMp7vit7WLZjCm3+2U5xupJ7GkpieDrYOo5B8h1m8u4MQLPwgmRBFWkhaJFbdh8HbA4ceewsMfLyA5NcNUyLCwYva3jHj6ZjxVbqe7ckANDj2KdtfdSbu/3hnW6xZ8Ph8zPn2VKR/0x2dugWUrYOnBngxmAKDkH0F27S6jydmDggnhxZox8v/sTZHI9w7woKlgZ3W8lTteDu8p80BsWDKL0c/dQWHuVqe7clDx8Qmcct7VdLz7eY4++Wynu/MHZUV7GPtCL9NbR7dgnXVx0M/sQLOokn+EiYuDV96ZF1QIrHvv4TnMF7HHdKATtRRU8dfODctJbdiY5qe3NxEubGQeeQzn3HQ/qQ0ak7dlHeXF+U536X/4fD5yf1vNwq+H4q6s4MQ2l4bFYUBbVi5iyEMdyVmx0HTod7B+fw8qkO9eyT9C1Tv+DTyeoC7gjwR2GOqOSKQ4Bmv9yyEmgiUkJnH/4Jk0P6ODiXBhx+f1sjZrGvO/GsLK2d+G7a2B9tffw019Bzvah/njBzPhrcft2CrqBk7CWrx9UHVdkX0xSv4Ry0AtgOi6eSnin81YlQKNHKnpcbsY+cytEXmIjj/i4uM5qX0nbnl2aFgfj7zg6yEsmTzKkbZd5aWMGdCD8a8/YFediOHUkvyhbgOApsAXKPlHrIz0oE+/0gBAYtUk4BVTwQp25jC6f3d83ug8pnv72p95u1c71mfPdLorNZr8fj+8ntDuKN61aRWD+nQge9JIu5ooAgb488K6DABextAU2P6U/EMnPTXooh1GtkSJRKgB1HJPtS7WzJ/CtI9eMhUubGRPGsE7d53H7i3rne5KrfJ3bGbj0tkha+/nqWMZ1Ls9Ozcst7OZvlgLAGvl7wCgEdaWGKOU/EPLQC0AzQBILPMAtwPGlrpPG/YSaxb8YCqc42Z8+hpjBvTEXVHmdFf8tnFp0OV2a+Vxu/jm348yqt9tdtdM+BJ4398X+zsAuAgwWktWyT/0tAZAJGi7gFsxtBvG5/Uyun93Cnf5dcEW1pZOHcOk955xuht1VpS7zdb4BTtzeP++i/lpXFDbsP2RDfSmDlu1/R0AHB9Qdw5Cyd8ZBk4E1C0AEfgJeNpUsNL8XEY+c2vYrpb3h6u8hK//+bDT3QhIYv1U22KvmT+FgT1a89uv821rY69lwBVAnaYX6nILwIiak3+8kr+NNAMgYsxbWNOtRmxeNo/v337SVLiQWzxxBGWFkXk216HNTjQe0+f1MnXoAIY9fnUodntMBy4E6tyQvwMAI0Ok2q/8Gyj520hrAESM8QF9gLWmAs4ZO5Bfpn9uKlxIrVkw1ekuBCQuLo6Tz+lsNGZpQR7DHruKqR++GIpdHgOBK7HOS6kzfwcAKYEE35+m/Z2nGQARo4qwDg0qNxXw85fvInfzalPhQmbXxhVOdyEgZ1xyE42POs5YvM3L5jGwR+tQLOwsBroAjxHEepSQDAAevPU0Jf8woDUAIsb9AjxgKlhlWTEj+naJqFX0AG5XhdNdqLPUhodwzSNvGIs3Z+xABt9/CQU7c4zFPIhfgbZA0NNFIRkAnHr8QZYQKPmHlGYARGzxCTDMVLAd65cx/nVjY4qQaHh4U0fbP/zYU6if7v9hpfXTG9LjtS/IPPLYoNuuLCtm1LNdmfDm43jcrqDj1WI40B4wMk0UkgFASnK9//2fSv4hpzUAIrZ5iBqOXa2rxROHs+DrIabC2e4Yh881OK7lBfT7bgs3PzuUZqe1rfG1x7e6kIeGzeP4sy8Kut0d63/l7V7t+HnauKBj1aICuBfoCRibHjpAZj6goBYBpiT/Kckr+TtClQBFbFOBtR5gEYZ2TX3z78doemqbsDu69kDaXNOT2aPfwucL7LCxeknJQdXEz8tZR1JKGu3+eift/non29YsZfmsb8hZnkVpYR4pGZk0Oe40Tr/oOo5vdWHA7ewve9IIvnzt/lDcrtmI9buVbTqwvwOA4GYA6u/XTIwnf4/HR0FRBYXFlaSnJZGWkkha8InZL5oBELHVeqxCLOMJ7KTVP6hyVTCibxce/TSLlIzMoDtnpyNO+Autr+7Fou8+rvN7W3W+gxZtL2PcS30Cbn/3lnV/+Pqok1py1EktA45XkypXBRPefJz5X31gS/w/+Rbrqt+W85VDMwCongGI4eS/cOl23vwwi6mzN7Kn4H8XzGQ2rE9aaiJpKYmkpyXRqEGy9XVqEhlpSTTMqP46kQbpSTRIT7YGEPt9Xf18w4wDH/qTkabDgERs9jXwL+AJE8H2bN3A2Bd60/OfX4XF2fU1ufaxf7NtzRK2rfHvTkhCYhLXPvovzr3lIbauDu7itjB3K+7KchKTg96wVqM92zYysm8XtqxabGs7QBXwHPA6dajsV1chGQCk1q8Xs8nf5fbw8PPTGPJZzf8o8gsryC80t5I2Y+/gIC01kUYN6pOelojLFfSeVA0ARGr3DNABuMBEsBWzJ/DjiDe4uMdTJsLZJiWjEXe/PYXPnu/G2oU11wU4pOkJ/nGwhgAAEP5JREFUdO3/Kcecee7er4MrxuPzeiktyKNRk2ZBxanJitnfMvaFXpQX23Ixvr8dWGfvzLS7odCsAahfLyaTv8fj47q7xjN55oaQt11c6qK41PiKVK0BEKldFdAV655tExMBJw9+juZndDCycM1OaZmHcdfbk/l56hh+GvcOOcsX4vV69j1/WPOTaPvXPpzX5eE/XK3XT2tAeubhlOTvCrhtr02llL1eD1MGP8fM4a8HvMahDmZh/e5st7shCNUtgJSkmEv+AP3fmu1I8rdROta9Tdv/FYhEuG1YV3FTgaA//LyeKkb1u43HRmSTccgRQXfOTnFxcbTsdBstO1kn3+XlrMXn85HZpDlpmYcd9H1HnHAG6xb9N6A2E+ol2rIVsXj3Dj7rdzvrs2caj/0nPuCfwLNYA8iQCM02wPr+jjOix7adJbw5NMvpbpiWgKGy0CIxYAbWfVwjinfvYFS/2/B6QpYfgpacmsHRJ59N01Na15j8AY5rFfgdk2antych0eiBtWxYMouBPVqHIvkXADcATxHC5A9O1gGIcp99s4Lyisj5h1oHWgcg4r/XgO9MBduQ/SOTBxsbU4SVttf2IaFeYDui2l93p7F++Hw+fhz5T4Y8eDlFebbPxC8B2gDf2N3QgfgzAKgHBDW0Sg3RNrdwMmPub053wS5aByDiPx/QA2svtxE/jniDFbMnmAoXNho1acYFtz1e5/c1PbUNZ1/Z3UgfyosLGP7kjXw/6KlQzLR8CJyLtX3UEf4MAILeV5FSP/YGADvzSp3ugl00AyBSN/lYB7cEXulmPz6fj7Ev9GbP1qhaXwTAFfe9RIt2Hf1+fcPDjqb7a58TF+/vZPbBbV29hLd7tWX5LNsvxsuAXsDdWAWkHGP7ACAhPo6kxOD/ciKNy+2p/UWRSQMAkbpbhHVymxHlxfmM6NuFqgg8hKcmCfUS6f3vCbS//u5a6x40P6MDD3w4h8wjjgm63YUThvHuXeexe4vtF+NrgXOAT+1uyB+2DwBSqmsAxJi0lKid9Qi6mpBIjBoMjDQVbOvqbL7596OmwoWNeknJ3NT3Ax4cNpfWV/UgPfPwfc8lpaTRol1Hur0ylgeHBp/83ZXljHupD1/8392hGEx9iXW//xe7G/KXP6vzzBQBijEGyu6GqxKnOyASwe4DWgGnmwi24OuhHHvWebS+qoeJcGGl+entaX56e8A6cc/rqSIpJT3ghYJ/lpezlhFP38L2dbbnYzfWCv//EGZbqP2ZAQj+IKDYy/+kp0blAMALrHG6EyIRrBTrYJdiUwHHv/4AO9YvMxUuLCWnZpCSkWks+f86Yzxv92wbiuS/FbgEeIswS/4QqlsAMTgCiNIZgCxgt9OdEIlwq7AWgBnhrihjxNO3UFFaZCpk1PJUufn2P39nRN+Q/LymAWcDP9ndUKDsHwAkJ8TkLYD0tKhcA/CG0x0QiRJjgUGmguX+toaxA3qGolRtxCrM3coHD1wa1LHFfvJhHeLTGQi8tnEIhGAAUC8WJwBMnLwXbr4FvnK6EyJR5B/AfFPBls/6hjljB5oKF1XWZU1nYPfWbPrZ9ovx3cDVwNNA2G8Fs30AkBqrtwDSouoWwFygG2F4D0skgrmw6gPkmQo4cdBTbF42z1S4iOfzepn+0ct8+EjnoA4a8tNCoDUwye6GTPFnF0CQJwEmEIsDAAO3AOYCHwNpex8N9j7S//R19fMNsfbom6y7XAG8A/TDUBETEfmDHKzB9UT8L81+UJ4qNyOfuZXHhi+utfZ+tCsr3M2YAT1ZNXdiKJp7F/g7EfY5afs2QOsWQOwNAAwsAtyNVSqyrpKxBgSN+H2wkAZk7v1v+p++rv5/jfb+2QXsAX7E2re6NZhvQkRqNQV4CehvIljhri189nw37ho4yUiFvEiUsyKLkX27kL9js91NlQD3AKPtbsgOts8ApMbgSYBgZBtgoDX3K/c+9gTbAREJmReB9lgLx4K2duFUpn74Ip3uGWAiXERZPHE441+7H3dlud1Nrcba0vmr3Q3ZJQTbAGO0DkDwtwBUclckdniBO4BNpgJO//hlVs2NmNvRQXNXlvP5y3cx9oVeoUj+o7Gq+kVs8oeQ7QKIvWkoA7sAdOqeSGzZA3TFug0XNJ/Xy5j+3cnfvslEuLCWu3k1g3q3J+vbj+xuqgprhf/tREFV1BDVAQgmQmQysAZAMwAisWcB8KSpYGVFexj5bFeqXBG1Nq1Ofp35FYP6dGDHetsvxnOAC7D2+EeFEFUCjD3pqboFICIBGQiMMhUsZ/lCvh9kbEwRNryeKia+25fhT91ERUmh3c39F2vK31jdhnBg+1kA1mFAMXgLIPgZgHRicu5ERLAODVppKthP4waRPcnYQYSOK9iZw/v3XsTM4bZfjFdX9etImFf1C4RuAdjEQCGgeIL82YtIxCrBKhJUairg+NcfYOfGFabCOWbdov/yds+2oSh4lIe1K+NprEWaUUe3AGySUj+RhISgRz66DSASu37F4KFBrvIShj91E5Vlxg4iDCmfz8fM4a8z9OFOoajql4U15f+D3Q05KUTHAcfeLYC4OEhLcawWgIhEh9HAEFPBcjev5stX7jUVLmRKC/IY9thVTHy3Lz6v7RfjQ4DzAdurCDnN/rMAUmJzBgC0E0BEjHgEWGwq2NKpY5g/frCpcLbLWZHF2z3bsmb+FLubKgZuBe7F0FbMcGf/LYCk2B0AaCeAiBhQCdyEVR7ciAlvPc6WlYtMhbPNgq+H8N49F4SipO9KoAMwzu6GwonWANjI0E4AEZHNQC8MnchZ5apk+NM3U1ZobExhVGVZMaOe7cqXr96Hx237xfgIoC0Q+Ssk68j+NQCxfAsg+J0AmgEQkWrfAW+YClaw4zfGvtArFPfU62TXppW80+ccfp5m+8V4BfAY0AODuy0iSQjWAAQ9DR6x0jUAEBGzngWmmQq28qfvmTH8NVPhgpY9aSRv92oXiu2KvwEXYRVdilmhOQsgRhmYAdAtABHZnwfoBmwzFXDKB8+zduFUU+ECUuWqZMKbjzFmQA9c5bZfjH8LtAQW2t1QuPNnAFA/mAZSYngGQLsARMQGO4FbALeJYD6vl9HPd6cwd6uJcHVWsOM33r/vIuaMfdvupqqAF4DrgXy7G4sEtQ0AkoGEYBqI5UWA6amaARARW8wFnjMVrCR/FyP7dsFTZWRM4beVc77jrW6tyFlu+8X4LqyqfgOI0qp+gahtABB0KdpYvgWQnqZtgCJimzeAr0wF27xsHpPf72cqXI28Xg9Thw7gkyeup7zY9ovxWVhT/tPtbijS2DoASEqMJ6FeUBMIEU3bAEXERj6gD7DeVMBZo/7Fshlfmgp3QKX5uQx79Eqmfvii3TsQfMDbwOXAdjsbilS1DQCCLANcLyYPAqqmbYAiYrMC4Eag3EQwn8/HuBf7kLt5tYlw/2PDklm81a0laxca28hwMEVY6yQexdBaiWhk6wxAav16xPIIQNsARSQEfsFKdEZUlhUz8plbcVeUmQqJz+djztiBDH2oI0V5tl+MLwHOBuydyogCtg4AUuonEMsDAG0DFJEQGQp8YirY9nW/8M2/zYwpKkqLGNm3CxPefDwUiwxHAOdh8LZINLN3ABDrtwC0DVBEQud+rKtfIxZOGMai7z4OKsbW1UsY2KO17esKsKr63YVV1c/I7ZBYYPMagATrXNwYpW2AIhJCFVin2RWaCjj+9QfZujqwMcXiicN5754L2L3F9ovxNUB7YJjdDUUbm28BxO4WQDDy/WsGQETqYi3WlbARVa4KRj3blYoS/8cU7ooyxr7Qi7Ev9DK6juAgPgfaYK2DkDqyfxFgjM4AlJa5efC5H4INowGAiNTVF8B/TAXLy1nLmAE98flqP4gwL2ct79x5LosnDjfV/MFUAU9jzXgU291YtLJ5DUBs3gIoLXNzde/P+XF+TrChErGqMYqI1MWTwBxTwVbMnsDs0W/V+Jrls75hUO/2bF9n+8X4FqyDfF7H0PHIsUq3AAwrLnXRqdtYE8m/WlDrMEQkJrmB24BcUwEnvduX5bO++Z//73G7mPDm43z6xA2UFxeYau5gfsDa4jfX7oZiQW0Z2sAMgD/nDUWH4lIXnbuPY+5io4dq2H4TTUSi0hbgDmAy/h38ViNPlZvhT95Iq853cMZF15PSsDE7Nyxn7ufvsWvTyqA7Wwsv8BLwIqrlb0xtAwBVAvSTTcl/J1BpMqCIxJSpWCfgvWAimM/nI3vSSLInjTQRzl95WEcgTwllo7EgBIWAop9NyR90eIWIBO9lrFmASDQfa8pfyd8GttYBsHYBRPctgNIyN9f2+cKO5A8w2I6gIhJTvFi3AjY53I+6GoK12M/Ygir5o9puAdQPJni43wIoLXPjcnsoLnVRVeWloKgSr9dHQVEFHo+PopJKXG4vpWUuKio9lFe4KSuvotLlobi0kqoqH/Oyt7JslbF1Nvv7DJhtR2ARiTl7gK5YR+MGXaHMZsXA3cBYpzsS7WxeA1C3swDKK6qoqKyipNSFu8pLUYkLj8dKzB6Pl8LiSqqqvBSXuqh0eSgrd+99j4fSMhcut5eikko8HiuJW8n89/e43B5Ky9xUVFZRXlEVzLdmt2zgHqc7ISJRZQHwD6wjcsPVcuBmYJXTHYkFtu4C+GLaJhauKdqbzK3EnF9oJebC4krcVV5K9kvmAsBSoBNQ6nRHRCTqDMI6LOdWpztyACOB+9BnX9iYhFVoQY/QPJYCh/r1NyMiEph0rCttpz/vqh8VGDzOWMyZgfO/HLHyWAIc4t9fi4hIUE4HSnD+c28jVi1/CUMLcP4XJBYeuvIXkVC7EfDg3Ofed0Bj279LCdgvOJ8co/2hK38RccpjhP4zrwp4hrDeIyZgHS3pdIKM5oeSv4g47UFCNxOwA7gkNN+WBGsLzifJaH0o+YtIuLgaq1aAnZ95M4GjQvT9iAG7cT5RRuNDyV9Ews0xwPeY/7wrA/6GgQOJJLSKcD5ZRttjKUr+IhK+rsO6SAn2s84NfAQ0DW33xRTdAlDyF5HYEwdcBoyi7heCq7BOHzw65L2WOqltFeY0rF8CCd7PWD/L3U53RESkDhKBc4C2wBlY9/GrL2SqsBb2bcS6wJkHrHGgj2KDv+H8VXM0PHTlLyIiEaUhkIfzCTSSH9/v/TmKiIhElDtwPolG2sMLzAe6oGIXIiIShvxNTn2B/6vD6yNNKeDCOoe6CijASuIFe78u3vt8KdbBFeUHeE8hVjGNHVj3wHaF9DsQERGpg7ok9GuBt4ATbOrL/sqASqzDKtxYq1A9QD5WYi7k98Rcuff15VjJuToxV7+nYO9/939PdTKvfo+IiEhMqesVfSJwJXAF0AxIwZryrk6yRVgJu4Tfr5T/nMwLsZJ4/gHeU53MRURERERERERERERERERERERERERERERERERERERERERERERERERERERERERERERERERERERERERERERERERERERERERERERERERERERERERERERERERERERERERERERERERERERERERERERERERERERERERERERERERERERERERERERERERERERERERERERERERERERERERERERERERERERERERERERERERERERERERERERERERERERERERERERERERERERERERERERERERERERERERERERERERERERERERERERERERERERERERERERERERERERERERERERERERERERERERERERERERERERERERERERERERERERERERERERERERERERERERERERERGLd/wNoXpH0GJ41YAAAAABJRU5ErkJggg==;" vertex="1" parent="1">
                    <mxGeometry x="398" y="-684" width="52" height="52" as="geometry"/>
                </mxCell>
                <mxCell id="50" value="&lt;b&gt;1.Extract TenantName&lt;br&gt;and validate it.&lt;/b&gt;" style="shape=callout;whiteSpace=wrap;html=1;perimeter=calloutPerimeter;fillColor=#fff2cc;strokeColor=#d6b656;position2=0.19;" vertex="1" parent="1">
                    <mxGeometry x="267" y="-977" width="140" height="80" as="geometry"/>
                </mxCell>
                <mxCell id="52" value="&lt;b&gt;2. Get or create&amp;nbsp;&lt;/b&gt;&lt;span style=&quot;background-color: initial;&quot;&gt;&lt;b&gt;the tenant's authentication scheme.&lt;/b&gt;&lt;/span&gt;&lt;b&gt;&lt;br&gt;&lt;/b&gt;" style="shape=callout;whiteSpace=wrap;html=1;perimeter=calloutPerimeter;fillColor=#fff2cc;strokeColor=#d6b656;position2=0.28;" vertex="1" parent="1">
                    <mxGeometry x="448" y="-835.5" width="139" height="80" as="geometry"/>
                </mxCell>
                <mxCell id="53" value="&lt;b&gt;3. Validate Token&lt;/b&gt;&lt;span style=&quot;background-color: initial;&quot;&gt;&lt;b&gt;.&lt;/b&gt;&lt;/span&gt;&lt;b&gt;&lt;br&gt;&lt;/b&gt;" style="shape=callout;whiteSpace=wrap;html=1;perimeter=calloutPerimeter;fillColor=#fff2cc;strokeColor=#d6b656;position2=0.28;" vertex="1" parent="1">
                    <mxGeometry x="450" y="-977" width="139" height="80" as="geometry"/>
                </mxCell>
                <mxCell id="54" value="&lt;b&gt;JwtBearerHandler&lt;/b&gt;" style="rounded=0;whiteSpace=wrap;html=1;fillColor=#CFCFCF;strokeColor=#36393d;" vertex="1" parent="1">
                    <mxGeometry x="364" y="-906.5" width="120" height="60" as="geometry"/>
                </mxCell>
            </root>
        </mxGraphModel>
    </diagram>
</mxfile>